<?xml version="1.0" encoding="UTF-8"?>
<svg id="Layer_2" data-name="Layer 2" xmlns="http://www.w3.org/2000/svg" viewBox="0 0 519.96 530.65">
  <defs>
    <style>
      .cls-1 {
        fill: #c6ac93;
      }

      .cls-1, .cls-2, .cls-3, .cls-4, .cls-5 {
        stroke-width: 0px;
      }

      .cls-2 {
        fill: #c2c4c4;
      }

      .cls-3 {
        fill: #fff;
      }

      .cls-4 {
        fill: #c08d65;
      }

      .cls-5 {
        fill: #acacac;
      }
    </style>
  </defs>
  <g id="PROJECT-PART3">
    <g>
      <g>
        <path class="cls-1" d="m519.96,530.65H0V0h519.96v530.65Zm-519.77-.19h519.58V.19H.19v530.27Z"/>
        <g>
          <path class="cls-1" d="m519.96,530.65h-109.02v-17.5h109.02v17.5Zm-108.82-.19h108.63v-17.11h-108.63v17.11Z"/>
          <rect class="cls-1" x=".1" y="17.1" width="519.77" height=".19"/>
          <g>
            <rect class="cls-1" x="502.34" y=".1" width=".19" height="17.1"/>
            <rect class="cls-1" x="484.91" y=".1" width=".19" height="17.1"/>
            <rect class="cls-1" x="467.48" y=".1" width=".19" height="17.1"/>
          </g>
          <g>
            <polygon class="cls-3" points="508.04 12.12 507.97 12.05 514.86 5.17 514.92 5.24 508.04 12.12"/>
            <polygon class="cls-3" points="514.86 12.12 507.97 5.24 508.04 5.17 514.92 12.05 514.86 12.12"/>
          </g>
          <rect class="cls-1" x="472.62" y="8.48" width="6.99" height=".19"/>
          <rect class="cls-1" x="472.69" y="8.62" width="6.99" height=".19"/>
          <rect class="cls-1" x="494.39" y="5.08" width=".19" height="6.99"/>
          <g>
            <path class="cls-2" d="m419.04,524.41c-.56,0-1-.18-1.31-.54-.32-.36-.48-.87-.48-1.55v-1.14c0-.66.16-1.17.48-1.53.32-.37.76-.55,1.31-.55.39,0,.72.08.98.25.27.16.47.39.6.67s.2.59.2.94v.09h-.61v-.09c0-.22-.05-.43-.13-.63-.08-.19-.21-.35-.38-.47-.17-.12-.4-.18-.67-.18-.39,0-.69.14-.89.43-.2.29-.3.66-.3,1.13v1.05c0,.5.1.88.3,1.15.2.27.49.41.89.41.28,0,.5-.06.68-.18.17-.12.3-.28.38-.47.08-.19.12-.4.12-.63v-.09h.61v.09c0,.34-.07.66-.2.94s-.34.5-.6.67-.59.25-.98.25Z"/>
            <path class="cls-2" d="m422.6,524.3v-5.1h.61v4.53h2.67v.57h-3.28Z"/>
            <path class="cls-2" d="m427.77,524.3v-.57h1.31v-3.96h-1.31v-.57h3.23v.57h-1.31v3.96h1.31v.57h-3.23Z"/>
            <path class="cls-2" d="m432.87,524.3v-5.1h1.22l1.47,4.84h.09v-4.84h.61v5.1h-1.22l-1.47-4.84h-.09v4.84h-.61Z"/>
            <path class="cls-2" d="m438.14,524.3v-.57h1.31v-3.96h-1.31v-.57h3.23v.57h-1.31v3.96h1.31v.57h-3.23Z"/>
            <path class="cls-2" d="m444.97,524.41c-.56,0-1-.18-1.31-.54-.32-.36-.48-.87-.48-1.55v-1.14c0-.66.16-1.17.48-1.53.32-.37.76-.55,1.31-.55.39,0,.72.08.98.25.27.16.47.39.6.67s.2.59.2.94v.09h-.61v-.09c0-.22-.05-.43-.13-.63-.08-.19-.21-.35-.38-.47-.17-.12-.4-.18-.67-.18-.39,0-.69.14-.89.43-.2.29-.3.66-.3,1.13v1.05c0,.5.1.88.3,1.15.2.27.49.41.89.41.28,0,.5-.06.68-.18.17-.12.3-.28.38-.47.08-.19.12-.4.12-.63v-.09h.61v.09c0,.34-.07.66-.2.94s-.34.5-.6.67-.59.25-.98.25Z"/>
            <path class="cls-2" d="m448.01,524.3l1.54-5.1h1.15l1.54,5.1h-.66l-.37-1.27h-2.18l-.37,1.27h-.66Zm1.19-1.84h1.85l-.88-3h-.09l-.88,3Z"/>
            <path class="cls-2" d="m453.72,524.3v-5.1h.61v4.53h2.67v.57h-3.28Z"/>
            <path class="cls-2" d="m464.14,524.3v-5.1h3.09v.57h-2.48v1.69h2.43v.57h-2.43v1.7h2.52v.57h-3.13Z"/>
            <path class="cls-2" d="m468.99,524.3l1.27-2.51v-.09l-1.27-2.5h.67l1.14,2.26h.13l1.14-2.26h.67l-1.27,2.5v.09l1.27,2.51h-.67l-1.14-2.27h-.13l-1.14,2.27h-.67Z"/>
            <path class="cls-2" d="m474.44,524.3v-5.1h1.82c.35,0,.64.06.87.19.23.13.4.3.52.51.11.21.17.44.17.68v.22c0,.25-.06.48-.17.69-.12.21-.29.38-.52.51-.23.13-.52.19-.86.19h-1.21v2.1h-.61Zm.61-2.67h1.14c.68,0,1.02-.29,1.02-.87v-.13c0-.26-.08-.46-.25-.62-.17-.16-.42-.24-.77-.24h-1.14v1.86Z"/>
            <path class="cls-2" d="m479.12,524.3l1.54-5.1h1.15l1.54,5.1h-.66l-.37-1.27h-2.18l-.37,1.27h-.66Zm1.19-1.84h1.85l-.88-3h-.09l-.88,3Z"/>
            <path class="cls-2" d="m484.73,524.3v-5.1h1.22l1.47,4.84h.09v-4.84h.61v5.1h-1.22l-1.47-4.84h-.09v4.84h-.61Z"/>
            <path class="cls-2" d="m491.71,524.41c-.44,0-.8-.08-1.1-.24s-.52-.38-.67-.67-.23-.6-.23-.95v-.22h.61v.17c0,.44.12.78.37,1,.25.23.59.34,1.02.34.38,0,.66-.08.86-.26.19-.17.29-.39.29-.66v-.04c0-.27-.1-.47-.3-.61-.2-.14-.52-.24-.96-.31-.51-.07-.92-.22-1.22-.43-.3-.22-.46-.54-.46-.98v-.09c0-.27.07-.5.21-.7s.34-.36.59-.48.54-.17.87-.17c.38,0,.71.07.98.21s.48.33.62.56c.14.23.21.48.21.76v.31h-.61v-.26c0-.22-.06-.41-.17-.56-.11-.15-.26-.26-.44-.33s-.38-.11-.6-.11c-.18,0-.36.03-.52.09s-.29.15-.39.27c-.1.12-.15.27-.15.44v.04c0,.28.11.49.34.62.23.13.57.23,1.03.3.53.08.93.23,1.18.47.25.23.38.54.38.93v.09c0,.44-.15.8-.45,1.07-.3.27-.73.41-1.31.41Z"/>
            <path class="cls-2" d="m495.18,524.3v-.57h1.31v-3.96h-1.31v-.57h3.23v.57h-1.31v3.96h1.31v.57h-3.23Z"/>
            <path class="cls-2" d="m501.98,524.41c-.56,0-1-.18-1.31-.54-.32-.36-.48-.87-.48-1.55v-1.14c0-.66.16-1.17.48-1.53.32-.37.76-.55,1.31-.55s1,.18,1.32.55.47.88.47,1.53v1.14c0,.67-.16,1.19-.47,1.55s-.75.54-1.32.54Zm0-.57c.39,0,.69-.14.88-.41.2-.27.3-.66.3-1.15v-1.05c0-.47-.1-.84-.3-1.13-.2-.29-.49-.43-.88-.43s-.69.14-.89.43c-.2.29-.3.66-.3,1.13v1.05c0,.5.1.88.3,1.15.2.27.49.41.89.41Z"/>
            <path class="cls-2" d="m505.47,524.3v-5.1h1.22l1.47,4.84h.09v-4.84h.61v5.1h-1.22l-1.47-4.84h-.09v4.84h-.61Z"/>
          </g>
          <g>
            <path class="cls-5" d="m8.5,11.65v-5.43h2.24c.05,0,.12,0,.2,0,.08,0,.16.01.23.02.31.05.57.15.78.31.2.16.36.36.46.61s.15.52.15.82c0,.44-.11.82-.34,1.14-.22.32-.57.51-1.03.59l-.39.03h-1.4v1.9h-.91Zm.91-2.74h1.3c.05,0,.11,0,.17,0,.06,0,.12-.02.17-.03.15-.04.27-.1.36-.2.09-.1.15-.2.18-.32s.05-.24.05-.35-.02-.23-.05-.36c-.04-.12-.1-.23-.18-.33-.09-.1-.21-.16-.36-.2-.05-.02-.11-.02-.17-.03-.06,0-.12,0-.17,0h-1.3v1.83Zm2.21,2.74l-1.07-2.21.92-.2,1.18,2.41h-1.03Z"/>
            <path class="cls-5" d="m16.78,11.76c-.3,0-.59-.04-.85-.13s-.49-.23-.67-.42c-.14-.16-.25-.33-.31-.52s-.1-.39-.11-.6c0-.21.03-.41.09-.61.06-.2.16-.37.28-.52.05-.06.1-.11.16-.16s.12-.09.18-.13c-.15-.17-.26-.33-.34-.48-.08-.16-.11-.34-.11-.55,0-.32.09-.6.26-.85.17-.25.4-.43.7-.54.13-.05.26-.08.39-.1.13-.02.26-.03.39-.03.24,0,.46.04.68.11.22.07.4.19.56.35.1.09.18.2.25.31.07.12.11.24.15.36l-.9.19c-.04-.11-.1-.21-.18-.29-.08-.07-.16-.12-.27-.15s-.2-.04-.31-.04c-.16,0-.3.03-.43.09-.12.06-.21.14-.27.23s-.09.22-.09.36c0,.13.02.23.07.3.05.08.1.15.17.23.05.05.1.11.17.17.07.06.13.12.2.19l1.36,1.26s0-.1,0-.16v-.83h.8v.98c0,.14,0,.27-.01.39,0,.13-.02.23-.05.31l.67.62-.58.62-.52-.5c-.13.12-.27.22-.42.29-.15.08-.31.13-.46.16-.11.03-.22.05-.32.05-.1,0-.21.01-.32.01Zm.04-.86c.08,0,.15,0,.22-.01s.14-.02.2-.05c.09-.03.17-.06.24-.1.07-.04.12-.08.18-.12l-1.44-1.32c-.07.03-.13.06-.18.1-.05.04-.1.08-.14.13-.05.06-.08.14-.11.22-.03.08-.04.18-.04.28,0,.12.02.22.06.31.04.09.08.17.14.24.09.12.22.2.39.25.17.05.33.07.49.07Z"/>
            <path class="cls-5" d="m21.53,11.65v-5.43h1.73s.14,0,.27,0c.13,0,.26.01.39.03.43.06.79.21,1.09.46s.52.57.68.96c.15.39.23.81.23,1.27s-.08.88-.23,1.27c-.15.39-.38.71-.68.96-.3.25-.66.4-1.09.46-.12.02-.25.02-.39.03s-.23,0-.27,0h-1.73Zm.92-.86h.81c.08,0,.17,0,.29,0,.12,0,.22-.02.31-.03.26-.05.46-.16.63-.34s.28-.4.36-.66c.08-.26.11-.53.11-.81s-.04-.57-.12-.83c-.08-.26-.2-.48-.36-.65s-.37-.29-.62-.34c-.09-.02-.19-.03-.31-.04-.12,0-.21,0-.29,0h-.81v3.72Z"/>
            <path class="cls-5" d="m33.34,11.76c-.4,0-.75-.07-1.07-.21-.32-.14-.58-.34-.78-.59s-.33-.56-.39-.92l.94-.14c.08.32.25.57.5.75.25.18.54.26.86.26.19,0,.38-.03.55-.09.17-.06.31-.15.42-.26.11-.12.16-.26.16-.43,0-.08-.01-.15-.04-.21-.03-.06-.06-.12-.11-.17-.05-.05-.11-.1-.19-.14-.08-.04-.17-.08-.27-.11l-1.4-.41c-.12-.03-.25-.08-.39-.14s-.27-.14-.4-.25c-.12-.1-.23-.24-.31-.4-.08-.16-.12-.36-.12-.6,0-.35.09-.64.27-.88.18-.24.42-.42.72-.53.3-.12.63-.18,1-.17.37,0,.7.07.99.19s.54.3.73.54c.2.24.33.52.41.86l-.98.17c-.04-.19-.12-.35-.23-.49-.11-.13-.25-.24-.42-.31-.16-.07-.34-.11-.53-.11-.18,0-.35.02-.5.08-.15.06-.28.14-.37.24-.09.11-.14.23-.14.37,0,.13.04.24.12.33s.18.15.3.2c.12.05.24.09.36.12l.97.27c.13.04.28.08.45.14.17.06.33.14.48.25.15.11.28.25.38.43.1.18.15.4.15.67s-.06.53-.18.74-.27.39-.47.53c-.2.14-.43.25-.68.32s-.52.11-.8.11Z"/>
            <path class="cls-5" d="m39.09,11.65v-4.57h-1.76v-.85h4.42v.85h-1.76v4.57h-.91Z"/>
            <path class="cls-5" d="m43.87,11.65v-5.43h2.24c.05,0,.12,0,.2,0,.08,0,.16.01.23.02.31.05.57.15.78.31.2.16.36.36.46.61s.15.52.15.82c0,.44-.11.82-.34,1.14-.22.32-.57.51-1.03.59l-.39.03h-1.4v1.9h-.91Zm.91-2.74h1.3c.05,0,.11,0,.17,0,.06,0,.12-.02.17-.03.15-.04.27-.1.36-.2.09-.1.15-.2.18-.32s.05-.24.05-.35-.02-.23-.05-.36c-.04-.12-.1-.23-.18-.33-.09-.1-.21-.16-.36-.2-.05-.02-.11-.02-.17-.03-.06,0-.12,0-.17,0h-1.3v1.83Zm2.21,2.74l-1.07-2.21.92-.2,1.18,2.41h-1.03Z"/>
            <path class="cls-5" d="m52.54,11.76c-.43,0-.81-.09-1.14-.26s-.58-.42-.77-.74c-.18-.32-.28-.69-.28-1.12v-3.4h.92s0,3.38,0,3.38c0,.2.03.39.1.55.07.16.16.3.28.41.12.11.25.2.41.25.15.06.31.09.47.09s.33-.03.48-.09.29-.14.41-.26c.12-.11.21-.25.28-.41s.1-.34.1-.54v-3.39h.92v3.41c0,.43-.09.8-.28,1.12-.18.32-.44.57-.77.74-.33.18-.71.26-1.14.26Z"/>
            <path class="cls-5" d="m59.58,11.76c-.54,0-1.01-.12-1.39-.36s-.68-.57-.89-.99-.31-.92-.31-1.48.1-1.05.31-1.48c.21-.42.5-.76.89-.99s.85-.36,1.39-.36c.63,0,1.15.16,1.56.47.42.31.71.73.88,1.26l-.92.25c-.11-.35-.29-.63-.54-.83-.25-.2-.58-.3-.99-.3-.36,0-.67.08-.91.24-.24.16-.42.39-.55.69-.12.3-.18.64-.19,1.04,0,.4.06.74.18,1.04.12.3.3.52.55.69.24.16.55.25.91.25.4,0,.73-.1.99-.3.25-.2.43-.48.54-.83l.92.25c-.17.53-.46.95-.88,1.26-.42.31-.94.47-1.56.47Z"/>
            <path class="cls-5" d="m65.66,11.65v-4.57h-1.76v-.85h4.42v.85h-1.76v4.57h-.91Z"/>
            <path class="cls-5" d="m72.62,11.76c-.43,0-.81-.09-1.14-.26s-.58-.42-.77-.74c-.18-.32-.28-.69-.28-1.12v-3.4h.92s0,3.38,0,3.38c0,.2.03.39.1.55.07.16.16.3.28.41.12.11.25.2.41.25.15.06.31.09.47.09s.33-.03.48-.09.29-.14.41-.26c.12-.11.21-.25.28-.41s.1-.34.1-.54v-3.39h.92v3.41c0,.43-.09.8-.28,1.12-.18.32-.44.57-.77.74-.33.18-.71.26-1.14.26Z"/>
            <path class="cls-5" d="m77.37,11.65v-5.43h2.24c.05,0,.12,0,.2,0,.08,0,.16.01.23.02.31.05.57.15.78.31.2.16.36.36.46.61s.15.52.15.82c0,.44-.11.82-.34,1.14-.22.32-.57.51-1.03.59l-.39.03h-1.4v1.9h-.91Zm.91-2.74h1.3c.05,0,.11,0,.17,0,.06,0,.12-.02.17-.03.15-.04.27-.1.36-.2.09-.1.15-.2.18-.32s.05-.24.05-.35-.02-.23-.05-.36c-.04-.12-.1-.23-.18-.33-.09-.1-.21-.16-.36-.2-.05-.02-.11-.02-.17-.03-.06,0-.12,0-.17,0h-1.3v1.83Zm2.21,2.74l-1.07-2.21.92-.2,1.18,2.41h-1.03Z"/>
            <path class="cls-5" d="m83.47,11.65l1.71-5.43h1.33l1.71,5.43h-.93l-1.55-4.87h.2l-1.53,4.87h-.93Zm.95-1.18v-.85h2.85v.85h-2.85Z"/>
            <path class="cls-5" d="m90.49,11.65v-5.43h.91v4.57h2.4v.85h-3.3Z"/>
          </g>
        </g>
      </g>
      <g>
        <g>
          <g>
            <path class="cls-2" d="m158.04,381.94v-.42h12.4v.42l-8.59,10.89h2.6c1.8,0,3.31.63,4.57,1.89,1.3,1.26,1.93,2.81,1.93,4.61v9.3c0,1.8-.63,3.35-1.93,4.61-1.26,1.26-2.77,1.89-4.57,1.89s-3.31-.63-4.61-1.89c-1.26-1.26-1.89-2.81-1.89-4.61v-1.55h.42v1.55c0,1.68.59,3.1,1.76,4.32,1.21,1.17,2.64,1.76,4.32,1.76s3.1-.59,4.27-1.76c1.22-1.21,1.8-2.64,1.8-4.32v-9.3c0-1.68-.59-3.1-1.8-4.27-1.17-1.21-2.6-1.8-4.27-1.8h-3.14v-.42l8.59-10.89h-11.86Z"/>
            <path class="cls-2" d="m191.48,399.32c0-1.68-.59-3.1-1.8-4.27-1.17-1.21-2.6-1.8-4.27-1.8h-6.41v-11.73h12.4v.42h-11.98v10.89h5.99c1.8,0,3.31.63,4.57,1.89,1.3,1.26,1.93,2.81,1.93,4.61v9.3c0,1.8-.63,3.35-1.93,4.61-1.26,1.26-2.77,1.89-4.57,1.89s-3.31-.63-4.61-1.89c-1.26-1.26-1.89-2.81-1.89-4.61v-1.55h.42v1.55c0,1.68.59,3.1,1.76,4.32,1.21,1.17,2.64,1.76,4.32,1.76s3.1-.59,4.27-1.76c1.22-1.21,1.8-2.64,1.8-4.32v-9.3Z"/>
            <path class="cls-2" d="m199.86,390.02c0-1.21.42-2.22,1.26-3.1.88-.88,1.93-1.3,3.14-1.3s2.26.42,3.1,1.3c.88.88,1.3,1.89,1.3,3.1v6.03c0,1.21-.42,2.22-1.3,3.1-.84.88-1.89,1.3-3.1,1.3s-2.26-.42-3.14-1.3c-.84-.88-1.26-1.89-1.26-3.1v-6.03Zm.42,6.03c0,2.18,1.8,3.98,3.98,3.98s3.98-1.8,3.98-3.98v-6.03c0-2.18-1.8-3.98-3.98-3.98s-3.98,1.8-3.98,3.98v6.03Zm4.73,16.97l-.34-.17,13.62-27.23.34.17-13.62,27.23Zm9.93-10.43c0-1.21.42-2.22,1.26-3.1.88-.88,1.93-1.3,3.14-1.3s2.26.42,3.1,1.3c.88.88,1.3,1.89,1.3,3.1v6.03c0,1.21-.42,2.22-1.3,3.1-.84.88-1.89,1.3-3.1,1.3s-2.26-.42-3.14-1.3c-.84-.88-1.26-1.89-1.26-3.1v-6.03Zm.42,6.03c0,2.18,1.8,3.98,3.98,3.98s3.98-1.8,3.98-3.98v-6.03c0-2.18-1.8-3.98-3.98-3.98s-3.98,1.8-3.98,3.98v6.03Z"/>
          </g>
          <g>
            <path class="cls-4" d="m359.73,381.77h-118.36v-11.91h118.36v11.91Zm-118.17-.19h117.97v-11.53h-117.97v11.53Z"/>
            <g>
              <path class="cls-2" d="m247.72,377.78v-5.1h1.22l1.47,4.84h.09v-4.84h.61v5.1h-1.22l-1.47-4.84h-.09v4.84h-.61Z"/>
              <path class="cls-2" d="m252.48,377.78l1.54-5.1h1.15l1.54,5.1h-.66l-.37-1.27h-2.18l-.37,1.27h-.66Zm1.19-1.84h1.85l-.88-3h-.09l-.88,3Z"/>
              <path class="cls-2" d="m258.09,377.78v-.58h.44v-3.95h-.44v-.57h1.68c.63,0,1.09.15,1.38.46.29.3.44.78.44,1.44v1.31c0,.66-.15,1.13-.44,1.44-.29.3-.75.46-1.38.46h-1.68Zm1.05-.57h.54c.3,0,.54-.04.73-.12.19-.08.33-.22.43-.42.09-.2.14-.48.14-.83v-1.22c0-.35-.05-.63-.14-.83s-.23-.34-.43-.42c-.19-.08-.44-.12-.73-.12h-.54v3.96Z"/>
              <path class="cls-2" d="m264.71,376.76v-1.26h-1.26v-.52h1.26v-1.26h.52v1.26h1.26v.52h-1.26v1.26h-.52Z"/>
            </g>
            <g>
              <path class="cls-2" d="m332.24,377.89c-.34,0-.63-.06-.88-.19-.25-.13-.45-.31-.6-.55s-.21-.52-.21-.85h.61c0,.31.1.56.3.76.2.19.46.29.8.29s.6-.11.81-.34.32-.52.32-.89v-.76h-.09c-.11.21-.27.38-.48.5-.21.12-.46.19-.73.19-.32,0-.6-.07-.84-.2s-.44-.32-.58-.56c-.14-.25-.21-.54-.21-.89v-.09c0-.34.08-.63.23-.89s.36-.46.63-.61c.27-.15.57-.22.91-.22s.65.07.91.22c.26.15.47.35.63.6s.23.55.23.88v1.84c0,.36-.08.67-.23.94s-.37.47-.63.61-.56.21-.89.21Zm-.01-2.37c.22,0,.42-.05.59-.15s.31-.23.42-.39c.1-.16.15-.35.15-.56v-.14c0-.22-.05-.41-.14-.59-.09-.17-.23-.31-.4-.41-.17-.1-.38-.15-.62-.15-.35,0-.64.11-.84.33-.21.22-.31.5-.31.84v.09c0,.34.11.61.33.82s.5.31.83.31Z"/>
              <path class="cls-2" d="m337.42,377.89c-.34,0-.63-.06-.88-.19-.25-.13-.45-.31-.6-.55s-.21-.52-.21-.85h.61c0,.31.1.56.3.76.2.19.46.29.8.29s.6-.11.81-.34.32-.52.32-.89v-.76h-.09c-.11.21-.27.38-.48.5-.21.12-.46.19-.73.19-.32,0-.6-.07-.84-.2s-.44-.32-.58-.56c-.14-.25-.21-.54-.21-.89v-.09c0-.34.08-.63.23-.89s.36-.46.63-.61c.27-.15.57-.22.91-.22s.65.07.91.22c.26.15.47.35.63.6s.23.55.23.88v1.84c0,.36-.08.67-.23.94s-.37.47-.63.61-.56.21-.89.21Zm-.01-2.37c.22,0,.42-.05.59-.15s.31-.23.42-.39c.1-.16.15-.35.15-.56v-.14c0-.22-.05-.41-.14-.59-.09-.17-.23-.31-.4-.41-.17-.1-.38-.15-.62-.15-.35,0-.64.11-.84.33-.21.22-.31.5-.31.84v.09c0,.34.11.61.33.82s.5.31.83.31Z"/>
              <path class="cls-2" d="m342.59,377.89c-.14,0-.25-.05-.36-.15-.1-.1-.15-.22-.15-.36s.05-.26.15-.36c.1-.1.22-.15.36-.15s.26.05.36.15c.1.1.15.22.15.36s-.05.25-.15.36c-.1.1-.22.15-.36.15Z"/>
              <path class="cls-2" d="m347.79,377.89c-.34,0-.63-.06-.88-.19-.25-.13-.45-.31-.6-.55s-.21-.52-.21-.85h.61c0,.31.1.56.3.76.2.19.46.29.8.29s.6-.11.81-.34.32-.52.32-.89v-.76h-.09c-.11.21-.27.38-.48.5-.21.12-.46.19-.73.19-.32,0-.6-.07-.84-.2s-.44-.32-.58-.56c-.14-.25-.21-.54-.21-.89v-.09c0-.34.08-.63.23-.89s.36-.46.63-.61c.27-.15.57-.22.91-.22s.65.07.91.22c.26.15.47.35.63.6s.23.55.23.88v1.84c0,.36-.08.67-.23.94s-.37.47-.63.61-.56.21-.89.21Zm-.01-2.37c.22,0,.42-.05.59-.15s.31-.23.42-.39c.1-.16.15-.35.15-.56v-.14c0-.22-.05-.41-.14-.59-.09-.17-.23-.31-.4-.41-.17-.1-.38-.15-.62-.15-.35,0-.64.11-.84.33-.21.22-.31.5-.31.84v.09c0,.34.11.61.33.82s.5.31.83.31Z"/>
              <path class="cls-2" d="m352.18,374.83c-.18,0-.36-.04-.52-.13-.17-.08-.3-.21-.4-.38-.1-.16-.15-.36-.15-.59s.05-.43.15-.59c.1-.16.23-.29.4-.37.16-.08.34-.13.52-.13s.37.04.53.13.29.21.39.37.15.36.15.59-.05.42-.15.59c-.1.17-.23.29-.39.38s-.34.13-.53.13Zm-.85,1.45l-.17-.33,3.44-1.76.17.34-3.44,1.75Zm.85-1.84c.19,0,.34-.06.46-.19.12-.13.17-.3.17-.51s-.06-.38-.17-.51-.27-.19-.46-.19-.34.06-.46.19c-.12.13-.17.3-.17.51,0,.23.06.4.17.52.12.12.27.18.46.18Zm1.57,3.39c-.18,0-.36-.04-.52-.13-.17-.08-.3-.21-.4-.38-.1-.16-.15-.36-.15-.59s.05-.43.15-.59c.1-.16.23-.29.4-.37.16-.08.34-.13.52-.13s.37.04.53.13c.16.09.29.21.39.37.1.16.15.36.15.59s-.05.43-.15.59c-.1.16-.23.29-.39.38-.16.08-.34.13-.53.13Zm0-.39c.19,0,.34-.06.46-.19.12-.13.17-.3.17-.51s-.06-.38-.17-.51c-.12-.13-.27-.19-.46-.19s-.34.06-.46.19c-.12.13-.17.3-.17.51,0,.23.06.4.17.52.12.12.27.18.46.18Z"/>
            </g>
          </g>
          <g>
            <path class="cls-4" d="m359.73,396.53h-118.36v-11.91h118.36v11.91Zm-118.17-.19h117.97v-11.53h-117.97v11.53Z"/>
            <g>
              <path class="cls-2" d="m247.72,392.54v-5.1h1.22l1.47,4.84h.09v-4.84h.61v5.1h-1.22l-1.47-4.84h-.09v4.84h-.61Z"/>
              <path class="cls-2" d="m252.99,392.54v-5.1h1.82c.35,0,.64.06.87.19s.4.3.52.51c.11.21.17.44.17.68v.22c0,.19-.05.38-.16.57-.1.19-.27.34-.48.44v.09c.15.02.26.08.34.17.08.09.12.23.12.4v1.84h-.61v-1.7c0-.13-.03-.22-.09-.29-.06-.07-.16-.1-.31-.1h-1.59v2.1h-.61Zm.61-2.67h1.14c.68,0,1.02-.29,1.02-.87v-.13c0-.26-.08-.46-.25-.62-.17-.16-.42-.24-.77-.24h-1.14v1.86Z"/>
              <path class="cls-2" d="m258.69,390.91v-.52h2.18v.52h-2.18Z"/>
              <path class="cls-2" d="m263.25,392.54v-.87c0-.31.07-.57.2-.77.14-.2.33-.37.58-.5.25-.13.54-.23.88-.3.43-.1.74-.24.94-.42s.29-.4.29-.66v-.04c0-.17-.04-.34-.12-.51-.08-.16-.2-.3-.37-.4-.17-.1-.39-.16-.65-.16-.37,0-.66.11-.87.34s-.31.53-.31.91v.32h-.61v-.36c0-.31.07-.6.2-.87.14-.27.34-.49.6-.66s.59-.25.98-.25.72.08.98.23c.26.15.45.35.58.59.13.24.19.49.19.75v.13c0,.38-.12.71-.36.99s-.63.47-1.17.59c-.46.1-.8.24-1.02.4-.22.17-.33.41-.33.73v.22h2.84v.57h-3.45Z"/>
            </g>
            <g>
              <path class="cls-2" d="m327.7,392.64c-.44,0-.8-.08-1.1-.24s-.52-.38-.67-.67-.23-.6-.23-.95v-.22h.61v.17c0,.44.12.78.37,1,.25.23.59.34,1.02.34.38,0,.66-.08.86-.26.19-.17.29-.39.29-.66v-.04c0-.27-.1-.47-.3-.61-.2-.14-.52-.24-.96-.31-.51-.07-.92-.22-1.22-.43-.3-.22-.46-.54-.46-.98v-.09c0-.27.07-.5.21-.7s.34-.36.59-.48.54-.17.87-.17c.38,0,.71.07.98.21s.48.33.62.56c.14.23.21.48.21.76v.31h-.61v-.26c0-.22-.06-.41-.17-.56-.11-.15-.26-.26-.44-.33s-.38-.11-.6-.11c-.18,0-.36.03-.52.09s-.29.15-.39.27c-.1.12-.15.27-.15.44v.04c0,.28.11.49.34.62.23.13.57.23,1.03.3.53.08.93.23,1.18.47.25.23.38.54.38.93v.09c0,.44-.15.8-.45,1.07-.3.27-.73.41-1.31.41Z"/>
              <path class="cls-2" d="m332.48,392.54v-4.53h-1.49v-.57h3.58v.57h-1.49v4.53h-.61Z"/>
              <path class="cls-2" d="m335.85,392.54l1.54-5.1h1.15l1.54,5.1h-.66l-.37-1.27h-2.18l-.37,1.27h-.66Zm1.19-1.84h1.85l-.88-3h-.09l-.88,3Z"/>
              <path class="cls-2" d="m341.35,392.54v-.57h.44v-3.96h-.44v-.57h2.06c.49,0,.86.13,1.12.38.26.25.39.57.39.95v.09c0,.28-.08.51-.25.7-.17.19-.37.32-.61.39v.09c.24.06.45.19.61.39.16.2.25.43.25.7v.09c0,.38-.13.7-.39.95-.26.25-.63.38-1.12.38h-2.06Zm1.05-2.84h.99c.29,0,.52-.08.69-.23.17-.15.25-.36.25-.62v-.04c0-.25-.09-.44-.27-.59-.18-.14-.41-.21-.7-.21h-.97v1.69Zm0,2.27h.97c.29,0,.52-.07.7-.21s.27-.34.27-.59v-.04c0-.26-.08-.46-.25-.62-.17-.16-.4-.23-.69-.23h-.99v1.7Z"/>
              <path class="cls-2" d="m346.75,392.54v-5.1h.61v4.53h2.67v.57h-3.28Z"/>
              <path class="cls-2" d="m351.99,392.54v-5.1h3.09v.57h-2.48v1.69h2.43v.57h-2.43v1.7h2.52v.57h-3.13Z"/>
            </g>
          </g>
          <g>
            <path class="cls-4" d="m359.73,412.07h-118.36v-11.91h118.36v11.91Zm-118.17-.19h117.97v-11.53h-117.97v11.53Z"/>
            <g>
              <path class="cls-2" d="m247.29,408.09l1.54-5.1h1.15l1.54,5.1h-.66l-.37-1.27h-2.18l-.37,1.27h-.66Zm1.19-1.84h1.85l-.88-3h-.09l-.88,3Z"/>
              <path class="cls-2" d="m254.29,408.09v-4.53h-1.49v-.57h3.58v.57h-1.49v4.53h-.61Z"/>
              <path class="cls-2" d="m258.17,408.09v-5.1h1.82c.35,0,.64.06.87.19.23.13.4.3.52.51.11.21.17.44.17.68v.22c0,.25-.06.48-.17.69-.12.21-.29.38-.52.51-.23.13-.52.19-.86.19h-1.21v2.1h-.61Zm.61-2.67h1.14c.68,0,1.02-.29,1.02-.87v-.13c0-.26-.08-.46-.25-.62-.17-.16-.42-.24-.77-.24h-1.14v1.86Z"/>
            </g>
            <g>
              <path class="cls-2" d="m336.38,408.09v-5.1h1.82c.35,0,.64.06.87.19.23.13.4.3.52.51.11.21.17.44.17.68v.22c0,.25-.06.48-.17.69-.12.21-.29.38-.52.51-.23.13-.52.19-.86.19h-1.21v2.1h-.61Zm.61-2.67h1.14c.68,0,1.02-.29,1.02-.87v-.13c0-.26-.08-.46-.25-.62-.17-.16-.42-.24-.77-.24h-1.14v1.86Z"/>
              <path class="cls-2" d="m341.63,408.09v-5.1h3.09v.57h-2.48v1.69h2.43v.57h-2.43v1.7h2.52v.57h-3.13Z"/>
              <path class="cls-2" d="m346.24,408.09l1.54-5.1h1.15l1.54,5.1h-.66l-.37-1.27h-2.18l-.37,1.27h-.66Zm1.19-1.84h1.85l-.88-3h-.09l-.88,3Z"/>
              <path class="cls-2" d="m351.97,408.09v-5.1h.61v2.26h.17l1.96-2.26h.76v.04l-2.11,2.46v.09l2.2,2.46v.04h-.77l-2.03-2.27h-.17v2.27h-.61Z"/>
            </g>
          </g>
          <g>
            <polygon class="cls-2" points="146.34 377.78 145.96 377.78 145.96 369.76 153.98 369.76 153.98 370.15 146.34 370.15 146.34 377.78"/>
            <polygon class="cls-2" points="231.05 377.78 230.67 377.78 230.67 370.15 223.03 370.15 223.03 369.76 231.05 369.76 231.05 377.78"/>
          </g>
          <g>
            <path class="cls-4" d="m359.73,426.87h-118.36v-11.91h118.36v11.91Zm-118.17-.19h117.97v-11.53h-117.97v11.53Z"/>
            <g>
              <path class="cls-2" d="m249.41,422.99c-.56,0-1-.18-1.31-.54-.32-.36-.48-.87-.48-1.55v-1.14c0-.66.16-1.17.48-1.53.32-.37.76-.55,1.31-.55s1,.18,1.32.55.47.88.47,1.53v1.14c0,.67-.16,1.19-.47,1.55s-.75.54-1.32.54Zm0-.57c.39,0,.69-.14.88-.41.2-.27.3-.66.3-1.15v-1.05c0-.47-.1-.84-.3-1.13-.2-.29-.49-.43-.88-.43s-.69.14-.89.43c-.2.29-.3.66-.3,1.13v1.05c0,.5.1.88.3,1.15.2.27.49.41.89.41Z"/>
              <path class="cls-2" d="m252.72,422.89l1.27-2.51v-.09l-1.27-2.5h.67l1.14,2.26h.13l1.14-2.26h.67l-1.27,2.5v.09l1.27,2.51h-.67l-1.14-2.27h-.13l-1.14,2.27h-.67Z"/>
              <path class="cls-2" d="m259.48,422.89v-1.79h-.13l-1.59-3.31h.68l1.3,2.78h.09l1.3-2.78h.68l-1.6,3.31h-.13v1.79h-.61Z"/>
            </g>
            <g>
              <path class="cls-2" d="m336.3,422.89v-5.1h1.22l1.47,4.84h.09v-4.84h.61v5.1h-1.22l-1.47-4.84h-.09v4.84h-.61Z"/>
              <path class="cls-2" d="m343.18,422.99c-.56,0-1-.18-1.31-.54-.32-.36-.48-.87-.48-1.55v-1.14c0-.66.16-1.17.48-1.53.32-.37.76-.55,1.31-.55s1,.18,1.32.55.47.88.47,1.53v1.14c0,.67-.16,1.19-.47,1.55s-.75.54-1.32.54Zm0-.57c.39,0,.69-.14.88-.41.2-.27.3-.66.3-1.15v-1.05c0-.47-.1-.84-.3-1.13-.2-.29-.49-.43-.88-.43s-.69.14-.89.43c-.2.29-.3.66-.3,1.13v1.05c0,.5.1.88.3,1.15.2.27.49.41.89.41Z"/>
              <path class="cls-2" d="m346.75,422.89v-5.1h1.82c.35,0,.64.06.87.19.23.13.4.3.52.51.11.21.17.44.17.68v.22c0,.19-.05.38-.16.57-.1.19-.27.34-.48.44v.09c.15.02.26.08.34.17.08.09.12.23.12.4v1.84h-.61v-1.7c0-.13-.03-.22-.09-.29s-.16-.1-.31-.1h-1.59v2.1h-.61Zm.61-2.67h1.14c.68,0,1.02-.29,1.02-.87v-.13c0-.26-.08-.46-.25-.62-.17-.16-.42-.24-.77-.24h-1.14v1.86Z"/>
              <path class="cls-2" d="m351.66,422.89v-5.1h1.17l.68,4.84h.09l.68-4.84h1.17v5.1h-.57v-4.84h-.09l-.68,4.84h-1.11l-.68-4.84h-.09v4.84h-.57Z"/>
            </g>
          </g>
          <g>
            <polygon class="cls-2" points="231.05 426.97 223.03 426.97 223.03 426.59 230.67 426.59 230.67 418.95 231.05 418.95 231.05 426.97"/>
            <polygon class="cls-2" points="153.98 426.97 145.96 426.97 145.96 418.95 146.34 418.95 146.34 426.59 153.98 426.59 153.98 426.97"/>
          </g>
        </g>
        <g>
          <g>
            <path class="cls-4" d="m295.45,200.41l-3.49-3.49,1.28-4.77,4.77-1.28,3.49,3.49-1.28,4.77-4.77,1.28Zm-3.27-3.55l3.33,3.33,4.55-1.22,1.22-4.55-3.33-3.33-4.55,1.22-1.22,4.55Z"/>
            <path class="cls-4" d="m345.18,197.42l-3.49-3.49,1.28-4.77,4.77-1.28,3.49,3.49-1.28,4.77-4.77,1.28Zm-3.27-3.55l3.33,3.33,4.55-1.22,1.22-4.55-3.33-3.33-4.55,1.22-1.22,4.55Z"/>
            <path class="cls-4" d="m274.5,141.51l-3.49-3.49,1.28-4.77,4.77-1.28,3.49,3.49-1.28,4.77-4.77,1.28Zm-3.27-3.55l3.33,3.33,4.55-1.22,1.22-4.55-3.33-3.33-4.55,1.22-1.22,4.55Z"/>
            <path class="cls-4" d="m341.32,293.08l-3.49-3.49,1.28-4.77,4.77-1.28,3.49,3.49-1.28,4.77-4.77,1.28Zm-3.27-3.55l3.33,3.33,4.55-1.22,1.22-4.55-3.33-3.33-4.55,1.22-1.22,4.55Z"/>
            <path class="cls-4" d="m174.91,288.55l-3.49-3.49,1.28-4.77,4.77-1.28,3.49,3.49-1.28,4.77-4.77,1.28Zm-3.27-3.55l3.33,3.33,4.55-1.22,1.22-4.55-3.33-3.33-4.55,1.22-1.22,4.55Z"/>
            <path class="cls-4" d="m249.9,314.68l-3.49-3.49,1.28-4.77,4.77-1.28,3.49,3.49-1.28,4.77-4.77,1.28Zm-3.27-3.55l3.33,3.33,4.55-1.22,1.22-4.55-3.33-3.33-4.55,1.22-1.22,4.55Z"/>
            <path class="cls-4" d="m177,183.53l-3.49-3.49,1.28-4.77,4.77-1.28,3.49,3.49-1.28,4.77-4.77,1.28Zm-3.27-3.55l3.33,3.33,4.55-1.22,1.22-4.55-3.33-3.33-4.55,1.22-1.22,4.55Z"/>
            <path class="cls-4" d="m241.85,173.05l-2.38-2.38.87-3.25,3.25-.87,2.38,2.38-.87,3.25-3.25.87Zm-2.17-2.44l2.22,2.22,3.04-.81.81-3.04-2.22-2.22-3.04.81-.81,3.04Z"/>
            <path class="cls-4" d="m197.62,235.02l-2.38-2.38.87-3.25,3.25-.87,2.38,2.38-.87,3.25-3.25.87Zm-2.17-2.44l2.22,2.22,3.04-.81.81-3.04-2.22-2.22-3.04.81-.81,3.04Z"/>
            <path class="cls-4" d="m303.71,257.54l-2.38-2.38.87-3.25,3.25-.87,2.38,2.38-.87,3.25-3.25.87Zm-2.17-2.44l2.22,2.22,3.04-.81.81-3.04-2.22-2.22-3.04.81-.81,3.04Z"/>
            <path class="cls-4" d="m245.65,263.31l-2.79-2.79,1.02-3.81,3.81-1.02,2.79,2.79-1.02,3.81-3.81,1.02Zm-2.57-2.84l2.63,2.63,3.59-.96.96-3.59-2.63-2.63-3.59.96-.96,3.59Z"/>
            <rect class="cls-3" x="168.7" y="241.16" width="136.63" height=".1" transform="translate(-96.92 187.84) rotate(-36.42)"/>
            <polygon class="cls-4" points="178.64 277.31 178.46 277.23 196.64 236.91 196.82 236.99 178.64 277.31"/>
            <polygon class="cls-4" points="173.04 278.46 172.85 278.46 172.96 181.51 173.15 181.51 173.04 278.46"/>
            <rect class="cls-3" x="236.54" y="135.73" width=".1" height="108.62" transform="translate(18.27 400.82) rotate(-82.77)"/>
            <polygon class="cls-4" points="184.23 177.68 184.2 177.49 238.57 168.06 238.6 168.25 184.23 177.68"/>
            <rect class="cls-4" x="238.89" y="152.53" width="36.64" height=".19" transform="translate(-30.44 234.55) rotate(-46.58)"/>
            <polygon class="cls-4" points="296.96 189.61 279.71 142.2 279.89 142.13 297.14 189.54 296.96 189.61"/>
            <polygon class="cls-4" points="337.91 283.29 300.69 200.79 300.87 200.71 338.09 283.21 337.91 283.29"/>
            <polygon class="cls-4" points="344 282 343.81 282 346.81 199.01 347.01 199.02 344 282"/>
            <rect class="cls-4" x="311.86" y="123.43" width=".19" height="78.31" transform="translate(-14.06 294.75) rotate(-49.59)"/>
            <rect class="cls-4" x="303.34" y="194.05" width="36.49" height=".19" transform="translate(-1.51 2.52) rotate(-.45)"/>
            <rect class="cls-4" x="268.91" y="157.59" width=".19" height="49.3" transform="translate(-1.83 361.76) rotate(-67.65)"/>
            <polygon class="cls-3" points="304.51 249.72 295.56 202.6 295.65 202.58 304.6 249.7 304.51 249.72"/>
            <polygon class="cls-3" points="257.51 307 257.44 306.94 302.44 258.88 302.51 258.94 257.51 307"/>
            <rect class="cls-4" x="255.48" y="303.43" width="84.66" height=".19" transform="translate(-61.74 76.5) rotate(-13.28)"/>
            <rect class="cls-4" x="251.04" y="264.04" width=".19" height="39.43" transform="translate(-22.4 21.53) rotate(-4.7)"/>
            <rect class="cls-4" x="294.29" y="230.04" width=".19" height="88.72" transform="translate(-62.39 460.62) rotate(-70.55)"/>
            <polygon class="cls-4" points="247.14 253.53 241.99 174.61 242.18 174.6 247.33 253.52 247.14 253.53"/>
            <polygon class="cls-4" points="200.38 227.35 200.23 227.24 238.35 171.91 238.51 172.02 200.38 227.35"/>
            <polygon class="cls-3" points="246.35 305.07 201.71 235.72 201.79 235.67 246.43 305.02 246.35 305.07"/>
            <rect class="cls-4" x="210.5" y="265.02" width=".19" height="71.02" transform="translate(-138.4 414.01) rotate(-72.99)"/>
            <rect class="cls-4" x="178.32" y="274.28" width="65.74" height=".19" transform="translate(-91.48 106.23) rotate(-23.36)"/>
            <polygon class="cls-3" points="299.85 255.28 202.84 231.61 202.86 231.51 299.87 255.19 299.85 255.28"/>
            <rect class="cls-4" x="186.46" y="183.02" width=".19" height="46.55" transform="translate(-65.36 88.4) rotate(-22.8)"/>
            <rect class="cls-4" x="176.94" y="154.04" width="97.52" height=".19" transform="translate(-42.8 103.09) rotate(-23.57)"/>
          </g>
          <g>
            <g>
              <path class="cls-2" d="m123.81,84.88h2.14c1.5,0,2.52.98,2.52,2.68v1.23c0,1.7-1.05,2.71-2.55,2.71h-1.45v4.82h-.65v-11.44Zm.65,6.05h1.47c1.14,0,1.88-.74,1.88-2.12v-1.23c0-1.39-.74-2.12-1.88-2.12h-1.47v5.47Z"/>
              <path class="cls-2" d="m131.9,96.32v-11.44h3.76v.57h-3.1v4.59h2.61v.54h-2.61v5.16h3.19v.57h-3.84Z"/>
              <path class="cls-2" d="m139,84.88h2.14c1.5,0,2.52.98,2.52,2.68v1.23c0,1.7-1.05,2.71-2.55,2.71h-1.45v4.82h-.65v-11.44Zm.65,6.05h1.47c1.14,0,1.88-.74,1.88-2.12v-1.23c0-1.39-.74-2.12-1.88-2.12h-1.47v5.47Z"/>
              <path class="cls-2" d="m149.06,85.46v10.87h-.65v-10.87h-2.12v-.57h4.9v.57h-2.12Z"/>
              <path class="cls-2" d="m154.37,84.88h.69v11.44h-.69v-11.44Z"/>
              <path class="cls-2" d="m159.06,84.88h2.14c1.5,0,2.52.98,2.52,2.68v6.05c0,1.7-1.05,2.71-2.55,2.71h-2.11v-11.44Zm.65,10.87h1.47c1.14,0,1.88-.74,1.88-2.12v-6.05c0-1.39-.74-2.12-1.88-2.12h-1.47v10.3Z"/>
              <path class="cls-2" d="m167.47,96.32v-11.44h3.76v.57h-3.1v4.59h2.61v.54h-2.61v5.16h3.19v.57h-3.84Z"/>
              <path class="cls-2" d="m181.2,90.03c1.32,1.23,2.21,2.4,2.21,3.99,0,1.5-1.03,2.47-2.39,2.47s-2.32-.96-2.32-2.52v-.67h.62v.62c0,1.24.72,1.96,1.72,1.96s1.72-.69,1.72-1.88c0-1.32-.74-2.32-2.03-3.5-1.08-1-1.9-2.09-1.9-3.4,0-1.45,1-2.39,2.3-2.39s2.24.93,2.24,2.43v.51h-.62v-.46c0-1.19-.69-1.88-1.63-1.88s-1.63.65-1.63,1.8.69,1.96,1.72,2.91Z"/>
              <path class="cls-2" d="m188.1,91.53l-2.24-6.65h.7l1.88,5.95,1.9-5.95h.67l-2.26,6.7v4.74h-.65v-4.79Z"/>
              <path class="cls-2" d="m194.57,86.47v9.85h-.62v-11.44h.65l3.55,9.77v-9.77h.62v11.44h-.62l-3.58-9.85Z"/>
              <path class="cls-2" d="m204.65,85.46v10.87h-.65v-10.87h-2.12v-.57h4.9v.57h-2.12Z"/>
              <path class="cls-2" d="m213.88,90.52h-3.35v5.8h-.65v-11.44h.65v5.07h3.35v-5.07h.65v11.44h-.65v-5.8Z"/>
              <path class="cls-2" d="m218.46,96.32v-11.44h3.76v.57h-3.1v4.59h2.61v.54h-2.61v5.16h3.19v.57h-3.84Z"/>
              <path class="cls-2" d="m227.58,90.03c1.32,1.23,2.21,2.4,2.21,3.99,0,1.5-1.03,2.47-2.39,2.47s-2.32-.96-2.32-2.52v-.67h.62v.62c0,1.24.72,1.96,1.72,1.96s1.72-.69,1.72-1.88c0-1.32-.74-2.32-2.03-3.5-1.08-1-1.9-2.09-1.9-3.4,0-1.45,1-2.39,2.3-2.39s2.24.93,2.24,2.43v.51h-.62v-.46c0-1.19-.69-1.88-1.63-1.88s-1.63.65-1.63,1.8.69,1.96,1.72,2.91Z"/>
              <path class="cls-2" d="m233.3,84.88h.69v11.44h-.69v-11.44Z"/>
              <path class="cls-2" d="m240,90.03c1.32,1.23,2.21,2.4,2.21,3.99,0,1.5-1.03,2.47-2.39,2.47s-2.32-.96-2.32-2.52v-.67h.62v.62c0,1.24.72,1.96,1.72,1.96s1.72-.69,1.72-1.88c0-1.32-.74-2.32-2.03-3.5-1.08-1-1.9-2.09-1.9-3.4,0-1.45,1-2.39,2.3-2.39s2.24.93,2.24,2.43v.51h-.62v-.46c0-1.19-.69-1.88-1.63-1.88s-1.63.65-1.63,1.8.69,1.96,1.72,2.91Z"/>
            </g>
            <g>
              <polygon class="cls-3" points="406.07 81.72 405.97 81.72 405.97 77.92 113.99 77.92 113.99 81.72 113.9 81.72 113.9 77.83 406.07 77.83 406.07 81.72"/>
              <polygon class="cls-3" points="406.07 104.52 113.9 104.52 113.9 100.63 113.99 100.63 113.99 104.43 405.97 104.43 405.97 100.63 406.07 100.63 406.07 104.52"/>
            </g>
          </g>
          <g>
            <polygon class="cls-3" points="117.79 335.03 113.9 335.03 113.9 118.95 117.79 118.95 117.79 119.04 113.99 119.04 113.99 334.94 117.79 334.94 117.79 335.03"/>
            <polygon class="cls-3" points="406.07 335.03 402.17 335.03 402.17 334.94 405.97 334.94 405.97 119.04 402.17 119.04 402.17 118.95 406.07 118.95 406.07 335.03"/>
          </g>
        </g>
        <path class="cls-3" d="m404.14,450.53H113.9v-102.03h290.25v102.03Zm-290.15-.1h290.05v-101.83H113.99v101.83Z"/>
      </g>
    </g>
  </g>
</svg>