<?xml version="1.0" encoding="UTF-8"?>
<svg id="Layer_2" data-name="Layer 2" xmlns="http://www.w3.org/2000/svg" viewBox="0 0 693.72 431.81">
  <defs>
    <style>
      .cls-1 {
        fill: #1a1a1a;
        font-family: SpaceMono-Regular, 'Space Mono';
        font-size: 11.67px;
        letter-spacing: .05em;
      }

      .cls-2 {
        stroke: #1a1a1a;
      }

      .cls-2, .cls-3, .cls-4 {
        fill: none;
        stroke-miterlimit: 10;
      }

      .cls-3 {
        stroke: #5b5b5b;
        stroke-width: .5px;
      }

      .cls-4 {
        stroke: #2b2b2b;
        stroke-width: .25px;
      }
    </style>
  </defs>
  <g id="PROJECT-PART1">
    <g id="slide5-_typographic_syntax" data-name="slide5- typographic syntax">
      <g>
        <g>
          <g>
            <path class="cls-2" d="m147.16,54.16L46.96,371.97h54.73l21.69-68.86h125.19l21.96,68.86h54.73L225.07,54.16h-77.91Zm-8.13,199.29l46.57-147.83,47.14,147.83h-93.71Z"/>
            <path class="cls-2" d="m537.5,200.48c-.87-8.58-3.39-16.99-7.57-25.21-7.65-15.43-19.37-26.54-35.16-33.32-15.8-6.78-34.08-10.17-54.86-10.17-27.56,0-49.45,5.99-65.67,17.96-16.23,11.98-27.23,27.84-33,47.61l47.61,14.93c3.9-11.97,10.74-20.41,20.56-25.32,9.81-4.9,19.98-7.36,30.51-7.36,17.45,0,29.86,3.82,37.22,11.47,6.12,6.36,9.63,15.68,10.56,27.93-9.43,1.4-18.62,2.73-27.55,3.99-14.79,2.09-28.49,4.37-41.11,6.82-12.63,2.45-23.62,5.19-33,8.22-12.41,4.19-22.5,9.56-30.29,16.12-7.79,6.57-13.56,14.36-17.31,23.37-3.75,9.02-5.63,19.15-5.63,30.4,0,12.84,2.99,24.6,8.98,35.27,5.98,10.68,14.82,19.22,26.51,25.64,11.69,6.42,25.97,9.63,42.85,9.63,21.06,0,38.63-3.93,52.69-11.79,10.82-6.05,20.59-14.78,29.32-26.16v31.46h45.66v-143.47c0-10.1-.43-19.44-1.3-28.02Zm-55.61,97.7c-1.73,5.34-5.09,11.04-10.06,17.1-4.98,6.06-11.65,11.18-20.02,15.36-8.37,4.19-18.47,6.28-30.29,6.28-8.22,0-15.11-1.3-20.67-3.9-5.56-2.6-9.78-6.09-12.66-10.49-2.89-4.4-4.33-9.48-4.33-15.26,0-5.05,1.12-9.45,3.35-13.2,2.23-3.75,5.44-7.07,9.63-9.95,4.18-2.88,9.31-5.41,15.36-7.57,6.2-2.02,13.34-3.86,21.42-5.52,8.08-1.66,17.74-3.42,29-5.3,7.2-1.2,15.33-2.52,24.36-3.95-.09,3.96-.24,8.48-.45,13.58-.36,8.58-1.91,16.2-4.65,22.83Z"/>
          </g>
          <g>
            <polyline class="cls-3" points="545.3 53.34 577.48 53.34 577.49 373.34 545.3 373.34"/>
            <text class="cls-1" transform="translate(591.71 225.68)"><tspan x="0" y="0">H:320 px</tspan></text>
          </g>
        </g>
        <rect class="cls-4" x=".13" y=".12" width="693.47" height="431.56"/>
      </g>
    </g>
  </g>
</svg>