<?xml version="1.0" encoding="UTF-8"?>
<svg id="Layer_2" data-name="Layer 2" xmlns="http://www.w3.org/2000/svg" xmlns:xlink="http://www.w3.org/1999/xlink" viewBox="0 0 522.09 588.85">
  <defs>
    <style>
      .cls-1 {
        fill: #c6ac93;
      }

      .cls-1, .cls-2, .cls-3, .cls-4, .cls-5 {
        stroke-width: 0px;
      }

      .cls-2 {
        fill: #c2c4c4;
      }

      .cls-3 {
        fill: none;
      }

      .cls-4 {
        fill: #fff;
      }

      .cls-6 {
        clip-path: url(#clippath);
      }

      .cls-5 {
        fill: #acacac;
      }
    </style>
    <clipPath id="clippath">
      <circle class="cls-3" cx="267.64" cy="292.32" r="208.07"/>
    </clipPath>
  </defs>
  <g id="PROJECT-PART3">
    <g>
      <g>
        <g>
          <path class="cls-1" d="m190.19,296.31c-1.04,0-1.89-.85-1.89-1.89s.85-1.89,1.89-1.89,1.89.85,1.89,1.89-.85,1.89-1.89,1.89Zm0-3.67c-.99,0-1.79.8-1.79,1.79s.8,1.79,1.79,1.79,1.79-.8,1.79-1.79-.8-1.79-1.79-1.79Z"/>
          <circle class="cls-1" cx="190.19" cy="294.42" r=".27"/>
        </g>
        <g class="cls-6">
          <g>
            <g>
              <path class="cls-4" d="m269.82,366.36c-9.71,0-19.13-1.9-28-5.65-8.57-3.62-16.26-8.81-22.86-15.42-6.61-6.61-11.79-14.3-15.42-22.86-3.75-8.87-5.65-18.29-5.65-28s1.9-19.13,5.65-28c3.62-8.57,8.81-16.26,15.42-22.86,6.61-6.61,14.3-11.79,22.86-15.42,8.87-3.75,18.29-5.65,28-5.65s19.13,1.9,28,5.65c8.57,3.62,16.26,8.81,22.86,15.42,6.61,6.61,11.79,14.3,15.42,22.86,3.75,8.87,5.65,18.29,5.65,28s-1.9,19.13-5.65,28c-3.62,8.57-8.81,16.26-15.42,22.86-6.61,6.61-14.3,11.79-22.86,15.42-8.87,3.75-18.29,5.65-28,5.65Zm0-143.77c-9.7,0-19.11,1.9-27.96,5.65-8.55,3.62-16.24,8.8-22.83,15.4-6.6,6.6-11.78,14.28-15.4,22.83-3.75,8.86-5.65,18.26-5.65,27.96s1.9,19.11,5.65,27.96c3.62,8.55,8.8,16.24,15.4,22.83,6.6,6.6,14.28,11.78,22.83,15.4,8.86,3.75,18.26,5.65,27.96,5.65s19.11-1.9,27.96-5.65c8.55-3.62,16.24-8.8,22.83-15.4,6.6-6.6,11.78-14.28,15.4-22.83,3.75-8.86,5.65-18.26,5.65-27.96s-1.9-19.11-5.65-27.96c-3.62-8.55-8.8-16.24-15.4-22.83-6.6-6.6-14.28-11.78-22.83-15.4-8.86-3.75-18.26-5.65-27.96-5.65Z"/>
              <path class="cls-4" d="m213.48,350.77c-7.32-7.32-13.06-15.84-17.08-25.33-4.15-9.82-6.26-20.26-6.26-31.01s2.11-21.19,6.26-31.01c4.01-9.49,9.76-18.01,17.08-25.33l.07.07c-7.31,7.31-13.05,15.82-17.06,25.3-4.15,9.81-6.25,20.23-6.25,30.98s2.1,21.17,6.25,30.98c4.01,9.48,9.75,17.99,17.06,25.3l-.07.07Z"/>
              <path class="cls-4" d="m326.17,350.77l-.07-.07c7.31-7.31,13.05-15.82,17.06-25.3,4.15-9.81,6.25-20.23,6.25-30.98s-2.1-21.17-6.25-30.98c-4.01-9.48-9.75-17.99-17.06-25.3l.07-.07c7.32,7.32,13.06,15.84,17.08,25.33,4.15,9.82,6.26,20.26,6.26,31.01s-2.11,21.19-6.26,31.01c-4.01,9.49-9.76,18.01-17.08,25.33Z"/>
            </g>
            <path class="cls-1" d="m269.82,395.1c-13.59,0-26.78-2.66-39.19-7.91-11.99-5.07-22.76-12.33-32-21.58-9.25-9.25-16.51-20.01-21.58-32-5.25-12.41-7.91-25.6-7.91-39.19s2.66-26.78,7.91-39.19c5.07-11.99,12.33-22.75,21.58-32,9.25-9.25,20.01-16.51,32-21.58,12.41-5.25,25.6-7.91,39.19-7.91s26.78,2.66,39.19,7.91c11.99,5.07,22.76,12.33,32,21.58,9.25,9.25,16.51,20.01,21.58,32,5.25,12.41,7.91,25.6,7.91,39.19s-2.66,26.78-7.91,39.19c-5.07,11.99-12.33,22.75-21.58,32-9.25,9.25-20.01,16.51-32,21.58-12.41,5.25-25.6,7.91-39.19,7.91Zm0-201.26c-13.58,0-26.75,2.66-39.15,7.9-11.98,5.07-22.73,12.32-31.97,21.56-9.24,9.24-16.49,19.99-21.56,31.97-5.24,12.4-7.9,25.57-7.9,39.15s2.66,26.75,7.9,39.15c5.07,11.98,12.32,22.73,21.56,31.97,9.24,9.24,19.99,16.49,31.97,21.56,12.4,5.25,25.57,7.9,39.15,7.9s26.75-2.66,39.15-7.9c11.98-5.07,22.73-12.32,31.97-21.56,9.24-9.24,16.49-19.99,21.56-31.97,5.24-12.4,7.9-25.57,7.9-39.15s-2.66-26.75-7.9-39.15c-5.07-11.98-12.32-22.73-21.56-31.97-9.24-9.24-19.99-16.49-31.97-21.56-12.4-5.25-25.57-7.9-39.15-7.9Z"/>
            <path class="cls-1" d="m269.82,409.83c-15.58,0-30.69-3.05-44.92-9.07-13.74-5.81-26.08-14.13-36.68-24.73-10.6-10.6-18.92-22.94-24.73-36.68-6.02-14.23-9.07-29.34-9.07-44.92s3.05-30.69,9.07-44.92c5.81-13.74,14.13-26.08,24.73-36.68,10.6-10.6,22.94-18.92,36.68-24.73,14.23-6.02,29.34-9.07,44.92-9.07s30.69,3.05,44.92,9.07c13.74,5.81,26.08,14.13,36.68,24.73,10.6,10.6,18.92,22.94,24.73,36.68,6.02,14.23,9.07,29.34,9.07,44.92s-3.05,30.69-9.07,44.92c-5.81,13.74-14.13,26.08-24.73,36.68-10.6,10.6-22.94,18.92-36.68,24.73-14.23,6.02-29.34,9.07-44.92,9.07Zm0-230.71c-15.57,0-30.67,3.05-44.88,9.06-13.73,5.81-26.06,14.12-36.65,24.71-10.59,10.59-18.9,22.92-24.71,36.65-6.01,14.22-9.06,29.32-9.06,44.88s3.05,30.67,9.06,44.88c5.81,13.73,14.12,26.06,24.71,36.65,10.59,10.59,22.92,18.9,36.65,24.71,14.22,6.01,29.32,9.06,44.88,9.06s30.67-3.05,44.88-9.06c13.73-5.81,26.06-14.12,36.65-24.71,10.59-10.59,18.9-22.92,24.71-36.65,6.01-14.22,9.06-29.32,9.06-44.88s-3.05-30.67-9.06-44.88c-5.81-13.73-14.12-26.06-24.71-36.65-10.59-10.59-22.92-18.9-36.65-24.71-14.22-6.01-29.32-9.06-44.88-9.06Z"/>
            <g>
              <rect class="cls-1" x="17.56" y="294.38" width="504.53" height=".1"/>
              <g>
                <g>
                  <g>
                    <path class="cls-1" d="m269.85,195.75c-1.04,0-1.89-.85-1.89-1.89s.85-1.89,1.89-1.89,1.89.85,1.89,1.89-.85,1.89-1.89,1.89Zm0-3.67c-.99,0-1.79.8-1.79,1.79s.8,1.79,1.79,1.79,1.79-.8,1.79-1.79-.8-1.79-1.79-1.79Z"/>
                    <circle class="cls-1" cx="269.85" cy="193.87" r=".27"/>
                  </g>
                  <rect class="cls-1" x="269.8" width=".1" height="294.43"/>
                  <g>
                    <path class="cls-1" d="m269.85,181.03c-1.04,0-1.89-.85-1.89-1.89s.85-1.89,1.89-1.89,1.89.85,1.89,1.89-.85,1.89-1.89,1.89Zm0-3.67c-.99,0-1.79.8-1.79,1.79s.8,1.79,1.79,1.79,1.79-.8,1.79-1.79-.8-1.79-1.79-1.79Z"/>
                    <circle class="cls-1" cx="269.85" cy="179.14" r=".27"/>
                  </g>
                  <g>
                    <path class="cls-1" d="m269.85,153.52c-1.04,0-1.89-.85-1.89-1.89s.85-1.89,1.89-1.89,1.89.85,1.89,1.89-.85,1.89-1.89,1.89Zm0-3.67c-.99,0-1.79.8-1.79,1.79s.8,1.79,1.79,1.79,1.79-.8,1.79-1.79-.8-1.79-1.79-1.79Z"/>
                    <circle class="cls-1" cx="269.85" cy="151.63" r=".27"/>
                  </g>
                  <g>
                    <path class="cls-1" d="m269.85,141.49c-1.04,0-1.89-.85-1.89-1.89s.85-1.89,1.89-1.89,1.89.85,1.89,1.89-.85,1.89-1.89,1.89Zm0-3.67c-.99,0-1.79.8-1.79,1.79s.8,1.79,1.79,1.79,1.79-.8,1.79-1.79-.8-1.79-1.79-1.79Z"/>
                    <circle class="cls-1" cx="269.85" cy="139.61" r=".27"/>
                  </g>
                  <g>
                    <path class="cls-1" d="m269.85,127.3c-1.04,0-1.89-.85-1.89-1.89s.85-1.89,1.89-1.89,1.89.85,1.89,1.89-.85,1.89-1.89,1.89Zm0-3.67c-.99,0-1.79.8-1.79,1.79s.8,1.79,1.79,1.79,1.79-.8,1.79-1.79-.8-1.79-1.79-1.79Z"/>
                    <circle class="cls-1" cx="269.85" cy="125.42" r=".27"/>
                  </g>
                </g>
                <g>
                  <g>
                    <path class="cls-1" d="m269.8,396.87c-1.04,0-1.89-.85-1.89-1.89s.85-1.89,1.89-1.89,1.89.85,1.89,1.89-.85,1.89-1.89,1.89Zm0-3.67c-.99,0-1.79.8-1.79,1.79s.8,1.79,1.79,1.79,1.79-.8,1.79-1.79-.8-1.79-1.79-1.79Z"/>
                    <circle class="cls-1" cx="269.8" cy="394.99" r=".27"/>
                  </g>
                  <rect class="cls-1" x="269.75" y="294.43" width=".1" height="294.43"/>
                  <g>
                    <path class="cls-1" d="m269.8,411.6c-1.04,0-1.89-.85-1.89-1.89s.85-1.89,1.89-1.89,1.89.85,1.89,1.89-.85,1.89-1.89,1.89Zm0-3.67c-.99,0-1.79.8-1.79,1.79s.8,1.79,1.79,1.79,1.79-.8,1.79-1.79-.8-1.79-1.79-1.79Z"/>
                    <circle class="cls-1" cx="269.8" cy="409.71" r=".27"/>
                  </g>
                  <g>
                    <path class="cls-1" d="m269.8,439.1c-1.04,0-1.89-.85-1.89-1.89s.85-1.89,1.89-1.89,1.89.85,1.89,1.89-.85,1.89-1.89,1.89Zm0-3.67c-.99,0-1.79.8-1.79,1.79s.8,1.79,1.79,1.79,1.79-.8,1.79-1.79-.8-1.79-1.79-1.79Z"/>
                    <circle class="cls-1" cx="269.8" cy="437.22" r=".27"/>
                  </g>
                  <g>
                    <path class="cls-1" d="m269.8,451.13c-1.04,0-1.89-.85-1.89-1.89s.85-1.89,1.89-1.89,1.89.85,1.89,1.89-.85,1.89-1.89,1.89Zm0-3.67c-.99,0-1.79.8-1.79,1.79s.8,1.79,1.79,1.79,1.79-.8,1.79-1.79-.8-1.79-1.79-1.79Z"/>
                    <circle class="cls-1" cx="269.8" cy="449.25" r=".27"/>
                  </g>
                  <g>
                    <path class="cls-1" d="m269.8,465.32c-1.04,0-1.89-.85-1.89-1.89s.85-1.89,1.89-1.89,1.89.85,1.89,1.89-.85,1.89-1.89,1.89Zm0-3.67c-.99,0-1.79.8-1.79,1.79s.8,1.79,1.79,1.79,1.79-.8,1.79-1.79-.8-1.79-1.79-1.79Z"/>
                    <circle class="cls-1" cx="269.8" cy="463.43" r=".27"/>
                  </g>
                </g>
              </g>
            </g>
            <polygon class="cls-1" points="269.82 294.48 269.78 294.48 269.77 294.38 269.87 294.38 269.88 294.47 269.82 294.48"/>
            <path class="cls-4" d="m269.82,437.21c-19.28,0-37.97-3.78-55.58-11.22-8.46-3.58-16.62-8.01-24.25-13.16-7.56-5.11-14.67-10.97-21.13-17.44-6.46-6.46-12.33-13.57-17.43-21.13-5.16-7.63-9.59-15.79-13.16-24.25-7.45-17.6-11.22-36.3-11.22-55.58s3.78-37.97,11.22-55.58c3.58-8.46,8.01-16.62,13.16-24.25,5.11-7.56,10.97-14.67,17.43-21.13,6.46-6.46,13.57-12.33,21.13-17.44,7.63-5.16,15.79-9.59,24.25-13.16,17.6-7.45,36.3-11.22,55.58-11.22s37.97,3.78,55.58,11.22c8.46,3.58,16.62,8.01,24.25,13.16,7.56,5.11,14.67,10.97,21.13,17.44,6.46,6.46,12.33,13.57,17.43,21.13,5.16,7.63,9.59,15.79,13.16,24.25,7.45,17.6,11.22,36.3,11.22,55.58s-3.78,37.97-11.22,55.58c-3.58,8.46-8.01,16.62-13.16,24.25-5.11,7.56-10.97,14.67-17.43,21.13-6.46,6.46-13.57,12.33-21.13,17.44-7.63,5.16-15.79,9.59-24.25,13.16-17.6,7.45-36.3,11.22-55.58,11.22Zm0-285.47c-19.26,0-37.95,3.77-55.54,11.21-8.45,3.58-16.61,8-24.24,13.16-7.56,5.1-14.66,10.97-21.12,17.42-6.46,6.46-12.32,13.56-17.42,21.12-5.15,7.63-9.58,15.78-13.16,24.24-7.44,17.59-11.21,36.28-11.21,55.54s3.77,37.95,11.21,55.54c3.58,8.45,8,16.61,13.16,24.24,5.1,7.56,10.97,14.66,17.42,21.12,6.46,6.46,13.56,12.32,21.12,17.42,7.63,5.15,15.78,9.58,24.24,13.16,17.59,7.44,36.28,11.21,55.54,11.21s37.95-3.77,55.54-11.21c8.45-3.58,16.61-8,24.24-13.16,7.56-5.1,14.66-10.97,21.12-17.42,6.46-6.46,12.32-13.56,17.42-21.12,5.15-7.63,9.58-15.78,13.16-24.24,7.44-17.59,11.21-36.28,11.21-55.54s-3.77-37.95-11.21-55.54c-3.58-8.45-8-16.61-13.16-24.24-5.1-7.56-10.97-14.66-17.42-21.12-6.46-6.46-13.56-12.32-21.12-17.42-7.63-5.15-15.78-9.58-24.24-13.16-17.59-7.44-36.28-11.21-55.54-11.21Z"/>
            <path class="cls-4" d="m269.82,449.37c-20.92,0-41.21-4.1-60.31-12.18-9.18-3.88-18.04-8.69-26.32-14.29-8.2-5.54-15.92-11.91-22.93-18.92-7.01-7.01-13.38-14.73-18.92-22.93-5.6-8.28-10.4-17.14-14.29-26.32-8.08-19.1-12.18-39.39-12.18-60.31s4.1-41.21,12.18-60.31c3.88-9.18,8.69-18.04,14.29-26.32,5.54-8.2,11.91-15.92,18.92-22.93,7.01-7.01,14.73-13.38,22.93-18.92,8.28-5.6,17.14-10.4,26.32-14.29,19.1-8.08,39.39-12.18,60.31-12.18s41.21,4.1,60.31,12.18c9.18,3.88,18.04,8.69,26.32,14.29,8.2,5.54,15.92,11.91,22.93,18.92,7.01,7.01,13.38,14.73,18.92,22.93,5.6,8.28,10.4,17.14,14.29,26.32,8.08,19.1,12.18,39.39,12.18,60.31s-4.1,41.21-12.18,60.31c-3.88,9.18-8.69,18.04-14.29,26.32-5.54,8.2-11.91,15.92-18.92,22.93-7.01,7.01-14.73,13.38-22.93,18.92-8.28,5.6-17.14,10.4-26.32,14.29-19.1,8.08-39.39,12.18-60.31,12.18Zm0-309.79c-20.9,0-41.18,4.09-60.27,12.17-9.18,3.88-18.02,8.68-26.3,14.28-8.2,5.54-15.91,11.9-22.92,18.91-7.01,7.01-13.37,14.72-18.91,22.92-5.59,8.28-10.4,17.13-14.28,26.3-8.07,19.09-12.17,39.37-12.17,60.27s4.09,41.18,12.17,60.27c3.88,9.18,8.68,18.03,14.28,26.3,5.54,8.2,11.9,15.91,18.91,22.92,7.01,7.01,14.72,13.37,22.92,18.91,8.28,5.59,17.13,10.4,26.3,14.28,19.09,8.07,39.37,12.17,60.27,12.17s41.18-4.09,60.27-12.17c9.18-3.88,18.03-8.68,26.3-14.28,8.2-5.54,15.91-11.9,22.92-18.91,7.01-7.01,13.37-14.72,18.91-22.92,5.59-8.28,10.4-17.13,14.28-26.3,8.07-19.09,12.17-39.37,12.17-60.27s-4.09-41.18-12.17-60.27c-3.88-9.18-8.68-18.03-14.28-26.3-5.54-8.2-11.9-15.91-18.91-22.92-7.01-7.01-14.72-13.37-22.92-18.91-8.28-5.59-17.13-10.4-26.3-14.28-19.09-8.07-39.37-12.17-60.27-12.17Z"/>
            <path class="cls-4" d="m269.82,463.55c-22.83,0-44.98-4.47-65.83-13.29-10.02-4.24-19.69-9.48-28.73-15.59-8.96-6.05-17.38-13-25.03-20.65-7.65-7.65-14.6-16.07-20.65-25.03-6.11-9.04-11.35-18.71-15.59-28.73-8.82-20.85-13.29-43-13.29-65.83s4.47-44.98,13.29-65.83c4.24-10.02,9.48-19.69,15.59-28.73,6.05-8.96,13-17.38,20.65-25.03,7.65-7.65,16.07-14.6,25.03-20.65,9.04-6.11,18.71-11.35,28.73-15.59,20.85-8.82,43-13.29,65.83-13.29s44.98,4.47,65.83,13.29c10.02,4.24,19.69,9.48,28.73,15.59,8.96,6.05,17.38,13,25.03,20.65,7.65,7.65,14.6,16.07,20.65,25.03,6.11,9.04,11.35,18.71,15.59,28.73,8.82,20.85,13.29,43,13.29,65.83s-4.47,44.98-13.29,65.83c-4.24,10.02-9.49,19.69-15.59,28.73-6.05,8.96-13,17.38-20.65,25.03-7.65,7.65-16.07,14.6-25.03,20.65-9.04,6.11-18.71,11.35-28.73,15.59-20.85,8.82-43,13.29-65.83,13.29Zm0-338.15c-22.82,0-44.96,4.47-65.79,13.28-10.02,4.24-19.68,9.48-28.71,15.58-8.95,6.05-17.37,12.99-25.02,20.64-7.65,7.65-14.59,16.07-20.64,25.02-6.1,9.04-11.35,18.7-15.58,28.71-8.81,20.84-13.28,42.97-13.28,65.79s4.47,44.95,13.28,65.79c4.24,10.02,9.48,19.68,15.58,28.71,6.05,8.95,12.99,17.37,20.64,25.02,7.65,7.65,16.07,14.59,25.02,20.64,9.04,6.1,18.7,11.35,28.71,15.58,20.84,8.81,42.98,13.28,65.79,13.28s44.96-4.47,65.79-13.28c10.02-4.24,19.68-9.48,28.71-15.58,8.95-6.05,17.37-12.99,25.02-20.64,7.65-7.65,14.59-16.07,20.64-25.02,6.1-9.04,11.35-18.7,15.58-28.71,8.81-20.84,13.28-42.97,13.28-65.79s-4.47-44.95-13.28-65.79c-4.24-10.02-9.48-19.68-15.58-28.71-6.05-8.95-12.99-17.37-20.64-25.02-7.65-7.65-16.07-14.59-25.02-20.64-9.04-6.1-18.7-11.35-28.71-15.58-20.84-8.81-42.98-13.28-65.79-13.28Z"/>
            <path class="cls-1" d="m269.8,423.72h-.05v-5.86l-.04-1.84h.13s0,7.7,0,7.7v-3.85,3.85s-.05,0-.05,0Zm5.56-.12l-.27-7.69h.05s.36,7.69.36,7.69h-.14Zm-11.16,0h-.05s.27-7.69.27-7.69h.14s-.36,7.69-.36,7.69Zm-5.6-.36h-.14s.73-7.67.73-7.67h.05s-.63,7.67-.63,7.67Zm22.44,0l-.73-7.66h.14s.63,7.66.63,7.66h-.05Zm-28.07-.6h-.1s.99-7.64.99-7.64h.1s-.99,7.64-.99,7.64Zm33.64,0l-.99-7.63h.1s.99,7.62.99,7.62h-.1Zm5.55-.84l-1.27-7.59h.05s1.35,7.57,1.35,7.57l-.13.02Zm-44.78,0h-.05s1.27-7.6,1.27-7.6l.13.02-1.35,7.58Zm-5.51-1.09l-.13-.03,1.71-7.5h.06s-1.63,7.53-1.63,7.53Zm55.87-.01l-1.71-7.5.13-.03,1.63,7.52h-.06Zm-61.36-1.32l-.1-.03,1.99-7.43.09.02-1.98,7.44Zm66.82,0l-1.99-7.43.1-.03,1.98,7.44-.09.02Zm5.39-1.56l-2.26-7.36h.04s2.35,7.31,2.35,7.31l-.14.04Zm-77.64,0h-.04s2.24-7.38,2.24-7.38l.14.04-2.34,7.33Zm-5.33-1.81l-.14-.05,2.7-7.21.04.02-2.61,7.24Zm88.38-.02l-2.7-7.21.13-.05,2.62,7.24-.05.02Zm-93.67-2.04l-.05-.02,2.89-7.13.13.05-2.97,7.1Zm98.92,0l-3-7.09.14-.06,2.91,7.13-.04.02Zm5.14-2.26l-3.28-6.96.1-.04,3.26,6.97-.08.04Zm-109.21,0l-.09-.04,3.24-6.98.09.04-3.24,6.98Zm-5.06-2.5l-.05-.03,3.49-6.86.07.04-3.51,6.85Zm119.37-.01l-3.66-6.77.11-.06,3.56,6.82h-.02Zm4.91-2.7l-3.91-6.63.06-.03,3.91,6.63-.06.03Zm-129.26-.02l-.06-.03,3.82-6.68.11.06-3.87,6.65Zm134-2.86l-4.08-6.53.04-.02,4.16,6.47-.12.08Zm-138.82-.07l-.08-.05,4.14-6.49.08.05-4.14,6.49Zm143.5-3.06l-4.35-6.35.04-.03,4.43,6.29-.12.08Zm-148.19-.08l-.09-.06,4.43-6.29.07.05-4.41,6.31Zm152.74-3.25l-4.64-6.14.05-.04,4.7,6.1-.1.08Zm-157.3-.09l-.07-.05,4.68-6.11.09.07-4.7,6.1Zm161.69-3.43l-4.9-5.94.04-.03,4.97,5.88-.11.09Zm-166.08-.1l-.02-.02,4.87-5.96.09.07-4.93,5.91Zm170.37-3.65l-5.24-5.64.11-.1,5.16,5.71-.03.03Zm-174.61-.07l-.06-.05,5.19-5.69.08.08-5.21,5.66Zm178.72-3.85l-5.51-5.37.08-.08,5.46,5.43-.02.02Zm-182.79-.04l-.08-.08,5.46-5.42.06.06-5.44,5.44Zm186.63-3.97l-5.64-5.23.04-.05,5.68,5.19-.09.09Zm-190.54-.11l-.04-.05,5.64-5.23.09.09-5.68,5.19Zm194.3-4.16l-5.93-4.9.09-.11,5.88,4.97-.03.04Zm-198.01-.07l-.05-.06,5.88-4.97.07.09-5.9,4.94Zm201.52-4.29l-6.08-4.72.04-.05,6.11,4.67-.08.1Zm-205.04-.09l-.09-.11,6.14-4.65.03.04-6.08,4.72Zm208.38-4.45l-6.28-4.46.04-.06,6.31,4.41-.07.1Zm-211.73-.11l-.05-.07,6.3-4.43.06.08-6.31,4.41Zm214.89-4.6l-6.49-4.14.05-.08,6.49,4.14-.05.08Zm-218.03-.1l-.03-.04,6.46-4.18.07.12-6.51,4.11Zm220.98-4.74l-6.67-3.83.06-.1,6.65,3.87-.04.07Zm-223.89-.05l-.06-.1,6.67-3.83.04.06-6.65,3.87Zm226.6-4.87l-6.81-3.59.03-.07,6.83,3.55-.05.1Zm-229.32-.05l-.06-.12,6.85-3.51.03.05-6.81,3.59Zm231.83-5.02l-6.97-3.26.04-.09,6.97,3.26-.04.09Zm-234.33-.04l-.03-.07,6.96-3.3.05.1-6.97,3.26Zm-2.27-5.14l-.04-.1,7.12-2.93.03.07-7.1,2.96Zm238.9-.04l-7.13-2.89.02-.05,7.13,2.89-.02.05Zm-240.96-5.23l-.03-.07,7.22-2.66.04.11-7.24,2.62Zm243-.01l-7.25-2.59.05-.12,7.22,2.66-.02.06Zm1.81-5.32l-7.33-2.35.02-.06,7.35,2.29-.04.13Zm-246.62,0l-.03-.08,7.34-2.33.03.1-7.34,2.31Zm-1.58-5.41l-.03-.1,7.44-1.97.02.08-7.43,1.99Zm249.79-.02l-7.44-1.97.03-.1,7.43,1.99-.02.08Zm-251.13-5.45l-.02-.1,7.52-1.66.02.08-7.51,1.67Zm252.47-.04l-7.53-1.61.03-.12,7.51,1.67v.06Zm-253.57-5.48v-.06s7.56-1.39,7.56-1.39v.06s-7.56,1.39-7.56,1.39Zm254.66-.01l-7.58-1.35v-.07s7.6,1.31,7.6,1.31l-.02.12Zm-255.52-5.57v-.1s7.62-.99,7.62-.99v.09s-7.62,1-7.62,1Zm256.38-.02l-7.63-.99v-.1s7.64,1,7.64,1v.09Zm-256.99-5.58v-.12s7.66-.63,7.66-.63v.07s-7.66.68-7.66.68Zm257.6-.04l-7.67-.63v-.12s7.68.68,7.68.68v.07Zm.37-5.59l-7.69-.36v-.07s7.69.32,7.69.32v.12Zm-258.33,0v-.07s7.68-.37,7.68-.37v.12s-7.68.32-7.68.32Zm7.57-5.63h-7.7v-.1h7.7v.1Zm250.89-.01h-7.7v-.1h7.7v.1Zm-7.7-.22v-.12s7.7,0,7.7,0v.07s-7.7.05-7.7.05Zm-243.08-5.08l-7.69-.32v-.1s7.69.32,7.69.32v.1Zm242.96-.26v-.07s7.68-.36,7.68-.36v.12s-7.68.32-7.68.32Zm-242.63-5.02l-7.67-.68v-.07s7.68.63,7.68.63v.12Zm242.28-.25v-.1s7.66-.68,7.66-.68v.09s-7.66.68-7.66.68Zm-241.71-5.02l-7.63-1v-.09s7.64.99,7.64.99v.1Zm241.14-.24v-.1s7.62-1.01,7.62-1.01v.07s-7.62,1.04-7.62,1.04Zm-240.34-5.02l-7.58-1.31.02-.12,7.58,1.35v.07Zm239.53-.25v-.07s7.56-1.35,7.56-1.35l.02.12-7.58,1.31Zm-238.51-4.93l-7.51-1.67v-.06s7.54,1.61,7.54,1.61l-.03.12Zm237.48-.25l-.02-.09,7.51-1.67.02.09-7.51,1.67Zm-236.23-4.9l-7.43-1.99.02-.08,7.44,1.97-.03.1Zm234.97-.24l-.03-.1,7.43-1.99.02.08-7.43,2.01Zm-233.48-4.87l-7.35-2.29.04-.13,7.33,2.35-.02.06Zm232-.23l-.03-.1,7.34-2.31.03.08-7.34,2.33Zm-230.29-4.8l-7.24-2.62.03-.1,7.23,2.63-.03.09Zm228.58-.23l-.03-.07,7.22-2.66.04.11-7.24,2.62Zm-226.65-4.73l-7.12-2.93.04-.11,7.1,2.97-.03.07Zm224.74-.18l-.04-.09,7.1-2.96.04.08-7.1,2.97Zm-222.6-4.67l-6.97-3.26.04-.09,6.97,3.26-.04.09Zm220.47-.16l-.05-.1,6.97-3.26.03.07-6.96,3.3Zm-218.12-4.62l-6.83-3.55.05-.1,6.81,3.59-.03.07Zm215.75-.17l-.03-.05,6.81-3.59.06.12-6.85,3.51Zm-213.19-4.49l-6.67-3.83.06-.1,6.65,3.87-.04.07Zm210.65-.11l-.05-.08,6.65-3.87.05.09-6.65,3.87Zm-207.9-4.41l-6.49-4.14.04-.07,6.51,4.11-.06.1Zm205.15-.11l-.05-.09,6.49-4.14.05.08-6.48,4.15Zm-202.19-4.31l-6.31-4.41.06-.08,6.31,4.41-.06.08Zm199.24-.1l-.06-.08,6.31-4.41.05.07-6.3,4.43Zm-196.1-4.19l-6.11-4.67.06-.08,6.1,4.69-.05.07Zm192.94-.11l-.03-.04,6.08-4.72.09.11-6.14,4.65Zm-189.63-4.01l-5.88-4.97.03-.04,5.93,4.9-.09.11Zm186.32-.1l-.05-.06,5.88-4.97.07.09-5.9,4.94Zm-182.81-3.91l-5.68-5.19.09-.09,5.64,5.23-.04.05Zm179.34-.05l-.1-.11,5.68-5.19.03.04-5.62,5.26Zm-175.68-3.78l-5.44-5.44.06-.06,5.46,5.42-.08.08Zm171.99-.06l-.07-.07,5.42-5.46.07.07-5.42,5.46Zm-168.15-3.62l-5.24-5.64.11-.1,5.16,5.71-.03.03Zm164.31-.05l-.06-.05,5.16-5.71.06.06-5.17,5.7Zm-160.33-3.44l-4.97-5.88.11-.09,4.9,5.94-.04.03Zm156.35-.05l-.09-.07,4.95-5.89.06.05-4.92,5.92Zm-152.23-3.27l-4.7-6.1.07-.05,4.72,6.08-.09.07Zm148.08-.06l-.09-.07,4.7-6.1.07.05-4.68,6.11Zm-143.81-3.08l-4.43-6.29.08-.06,4.43,6.29-.08.06Zm139.51-.07l-.07-.05,4.41-6.31.09.06-4.43,6.29Zm-135.11-2.88l-4.16-6.47.11-.07,4.1,6.51-.05.03Zm130.73-.05l-.11-.07,4.14-6.49.05.03-4.08,6.53Zm-126.21-2.71l-3.89-6.64.12-.07,3.82,6.68-.05.03Zm121.66-.05l-.12-.07,3.87-6.65.05.03-3.8,6.69Zm-117.05-2.49l-3.55-6.83.06-.03,3.6,6.8-.11.06Zm112.35-.09l-.05-.03,3.51-6.85.12.06-3.58,6.81Zm-107.6-2.26l-3.26-6.97.08-.04,3.28,6.96-.1.04Zm102.86-.08l-.09-.04,3.24-6.98.09.04-3.24,6.98Zm-98-2.07l-2.98-7.1.12-.05,2.92,7.12-.06.02Zm93.16-.06l-.13-.05,2.97-7.1.05.02-2.89,7.13Zm-88.26-1.85l-2.62-7.24.05-.02,2.7,7.21-.13.05Zm83.29-.08l-.09-.03,2.61-7.24.09.03-2.61,7.24Zm-78.24-1.64l-2.35-7.33.14-.04,2.26,7.36h-.04Zm73.23-.06l-.14-.04,2.34-7.33h.04s-2.24,7.38-2.24,7.38Zm-68.15-1.42l-1.99-7.43.1-.03,1.98,7.44-.09.02Zm63.02-.07l-.09-.02,1.98-7.44.1.03-1.99,7.43Zm-57.89-1.19l-1.63-7.52h.06s1.71,7.49,1.71,7.49l-.13.03Zm52.72-.06h-.06s1.63-7.53,1.63-7.53l.13.03-1.71,7.5Zm-47.49-.98l-1.35-7.58.13-.02,1.27,7.59h-.05Zm42.34-.04l-.14-.02,1.35-7.58h.05s-1.27,7.6-1.27,7.6Zm-37.12-.77l-.99-7.63h.1s.99,7.62.99,7.62h-.1Zm31.84-.03h-.1s.99-7.64.99-7.64h.1s-.99,7.64-.99,7.64Zm-26.58-.54l-.63-7.67h.05s.73,7.66.73,7.66h-.14Zm21.28-.03h-.05s.63-7.67.63-7.67h.14s-.73,7.67-.73,7.67Zm-15.95-.32l-.36-7.69h.14s.27,7.69.27,7.69h-.05Zm10.72,0h-.14s.36-7.69.36-7.69h.05s-.27,7.69-.27,7.69Zm-5.34-.11h-.1v-7.7h.1v7.7Z"/>
            <g>
              <g>
                <g>
                  <g>
                    <path class="cls-1" d="m340.98,367.55c-.5,0-.98-.2-1.33-.55h0c-.36-.36-.55-.83-.55-1.33s.2-.98.55-1.33c.74-.73,1.93-.73,2.67,0,.36.36.55.83.55,1.33s-.2.98-.55,1.33c-.36.36-.83.55-1.33.55Zm0-3.67c-.46,0-.92.17-1.27.52-.34.34-.52.79-.52,1.26s.19.93.52,1.26h0c.34.34.79.52,1.26.52s.93-.19,1.27-.52c.34-.34.52-.79.52-1.27s-.19-.93-.52-1.27c-.35-.35-.81-.52-1.26-.52Z"/>
                    <circle class="cls-1" cx="340.98" cy="365.67" r=".27"/>
                  </g>
                  <polygon class="cls-1" points="441.43 466.19 320.62 345.38 320.69 345.31 441.5 466.12 441.43 466.19"/>
                  <g>
                    <path class="cls-1" d="m351.39,377.96c-.48,0-.97-.18-1.33-.55h0c-.36-.36-.55-.83-.55-1.33s.2-.98.55-1.33c.74-.73,1.93-.73,2.67,0,.36.36.55.83.55,1.33s-.2.98-.55,1.33c-.37.37-.85.55-1.33.55Zm0-3.67c-.46,0-.92.17-1.26.52-.34.34-.52.79-.52,1.26s.19.93.52,1.26h0c.7.7,1.83.7,2.53,0,.34-.34.52-.79.52-1.26s-.19-.93-.52-1.26c-.35-.35-.81-.52-1.27-.52Z"/>
                    <circle class="cls-1" cx="351.39" cy="376.08" r=".27"/>
                  </g>
                  <g>
                    <path class="cls-1" d="m370.84,397.41c-.48,0-.97-.18-1.33-.55h0c-.36-.36-.55-.83-.55-1.33s.2-.98.55-1.33c.74-.73,1.93-.73,2.67,0,.36.36.55.83.55,1.33s-.2.98-.55,1.33c-.37.37-.85.55-1.33.55Zm0-3.67c-.46,0-.92.17-1.26.52-.34.34-.52.79-.52,1.26s.19.93.52,1.26h0c.7.7,1.83.7,2.53,0,.34-.34.52-.79.52-1.26s-.19-.93-.52-1.26c-.35-.35-.81-.52-1.27-.52Z"/>
                    <circle class="cls-1" cx="370.84" cy="395.53" r=".27"/>
                  </g>
                  <g>
                    <path class="cls-1" d="m379.35,405.92c-.48,0-.97-.18-1.33-.55h0c-.73-.74-.73-1.93,0-2.67.36-.36.83-.55,1.33-.55s.98.2,1.33.55c.73.74.73,1.93,0,2.67-.37.37-.85.55-1.33.55Zm-1.27-.62c.7.7,1.83.7,2.53,0s.7-1.83,0-2.53c-.34-.34-.79-.52-1.27-.52s-.93.19-1.27.52c-.7.7-.7,1.83,0,2.53h0Z"/>
                    <circle class="cls-1" cx="379.35" cy="404.03" r=".27"/>
                  </g>
                  <g>
                    <path class="cls-1" d="m389.38,415.95c-.5,0-.98-.2-1.33-.55h0c-.74-.73-.74-1.93,0-2.67.36-.36.83-.55,1.33-.55s.98.2,1.33.55c.74.74.74,1.93,0,2.67-.36.36-.83.55-1.33.55Zm0-3.67c-.48,0-.93.19-1.27.52-.7.7-.7,1.83,0,2.53h0c.34.34.79.52,1.27.52s.93-.19,1.27-.52c.7-.7.7-1.83,0-2.53-.34-.34-.79-.52-1.27-.52Z"/>
                    <circle class="cls-1" cx="389.38" cy="414.07" r=".27"/>
                  </g>
                </g>
                <g>
                  <g>
                    <path class="cls-1" d="m198.71,225.28c-.48,0-.97-.18-1.33-.55-.74-.74-.74-1.93,0-2.67.74-.73,1.93-.73,2.67,0h0c.74.74.74,1.93,0,2.67-.37.37-.85.55-1.33.55Zm0-3.67c-.46,0-.92.17-1.27.52-.7.7-.7,1.83,0,2.53.7.7,1.83.7,2.53,0,.7-.7.7-1.83,0-2.53-.35-.35-.81-.52-1.27-.52Z"/>
                    <circle class="cls-1" cx="198.71" cy="223.4" r=".27"/>
                  </g>
                  <polygon class="cls-1" points="218.92 243.67 148.98 173.73 149.05 173.66 218.99 243.6 218.92 243.67"/>
                  <g>
                    <path class="cls-1" d="m188.3,214.87c-.48,0-.97-.18-1.33-.55-.73-.74-.73-1.93,0-2.67.74-.73,1.93-.74,2.67,0,.73.74.73,1.93,0,2.67-.37.37-.85.55-1.33.55Zm0-3.67c-.46,0-.92.17-1.27.52-.7.7-.7,1.83,0,2.53.7.7,1.83.7,2.53,0,.7-.7.7-1.83,0-2.53-.35-.35-.81-.52-1.27-.52Z"/>
                    <circle class="cls-1" cx="188.3" cy="212.99" r=".27"/>
                  </g>
                  <g>
                    <path class="cls-1" d="m168.85,195.42c-.48,0-.97-.18-1.33-.55-.73-.74-.73-1.93,0-2.67.74-.73,1.93-.74,2.67,0s.73,1.93,0,2.67c-.37.37-.85.55-1.33.55Zm0-3.67c-.46,0-.92.17-1.27.52-.7.7-.7,1.83,0,2.53.7.7,1.83.7,2.53,0,.7-.7.7-1.83,0-2.53-.35-.35-.81-.52-1.27-.52Z"/>
                    <circle class="cls-1" cx="168.85" cy="193.53" r=".27"/>
                  </g>
                  <g>
                    <path class="cls-1" d="m160.34,186.91c-.48,0-.97-.18-1.33-.55-.36-.36-.55-.83-.55-1.33s.2-.98.55-1.33c.74-.73,1.93-.73,2.67,0h0c.36.36.55.83.55,1.33s-.2.98-.55,1.33c-.37.37-.85.55-1.33.55Zm0-3.67c-.46,0-.92.17-1.26.52-.34.34-.52.79-.52,1.26s.19.93.52,1.26c.7.7,1.83.7,2.53,0,.34-.34.52-.79.52-1.26s-.19-.93-.52-1.26h0c-.35-.35-.81-.52-1.27-.52Z"/>
                    <circle class="cls-1" cx="160.34" cy="185.03" r=".27"/>
                  </g>
                  <g>
                    <path class="cls-1" d="m150.31,176.88c-.48,0-.97-.18-1.33-.55-.36-.36-.55-.83-.55-1.33s.2-.98.55-1.33c.74-.73,1.93-.73,2.67,0h0c.74.74.74,1.93,0,2.67-.37.37-.85.55-1.33.55Zm0-3.67c-.46,0-.92.17-1.27.52-.34.34-.52.79-.52,1.26s.19.93.52,1.26c.7.7,1.83.7,2.53,0,.7-.7.7-1.83,0-2.53-.35-.35-.81-.52-1.27-.52Z"/>
                    <circle class="cls-1" cx="150.31" cy="175" r=".27"/>
                  </g>
                </g>
              </g>
              <g>
                <g>
                  <g>
                    <path class="cls-1" d="m340.98,225.23c-.48,0-.97-.18-1.33-.55-.36-.36-.55-.83-.55-1.33s.2-.98.55-1.33c.74-.73,1.93-.73,2.67,0,.36.36.55.83.55,1.33s-.2.98-.55,1.33h0c-.37.37-.85.55-1.33.55Zm0-3.67c-.46,0-.92.17-1.26.52-.34.34-.52.79-.52,1.26s.19.93.52,1.26c.7.7,1.83.7,2.53,0h0c.34-.34.52-.79.52-1.26s-.19-.93-.52-1.26c-.35-.35-.81-.52-1.27-.52Z"/>
                    <circle class="cls-1" cx="340.98" cy="223.34" r=".27"/>
                  </g>
                  <polygon class="cls-1" points="320.61 243.77 320.55 243.71 390.64 173.61 390.71 173.68 320.61 243.77"/>
                  <g>
                    <path class="cls-1" d="m351.39,214.81c-.48,0-.97-.18-1.33-.55-.36-.36-.55-.83-.55-1.33s.2-.98.55-1.33c.74-.73,1.93-.73,2.67,0,.36.36.55.83.55,1.33s-.2.98-.55,1.33h0c-.37.37-.85.55-1.33.55Zm0-3.67c-.46,0-.92.17-1.26.52-.34.34-.52.79-.52,1.26s.19.93.52,1.26c.7.7,1.83.7,2.53,0h0c.34-.34.52-.79.52-1.26s-.19-.93-.52-1.26c-.35-.35-.81-.52-1.27-.52Z"/>
                    <circle class="cls-1" cx="351.39" cy="212.93" r=".27"/>
                  </g>
                  <g>
                    <path class="cls-1" d="m370.84,195.36c-.48,0-.97-.18-1.33-.55-.36-.36-.55-.83-.55-1.33s.2-.98.55-1.33c.74-.73,1.93-.73,2.67,0,.36.36.55.83.55,1.33s-.2.98-.55,1.33h0c-.37.37-.85.55-1.33.55Zm0-3.67c-.46,0-.92.17-1.26.52-.34.34-.52.79-.52,1.26s.19.93.52,1.26c.7.7,1.83.7,2.53,0h0c.34-.34.52-.79.52-1.26s-.19-.93-.52-1.26c-.35-.35-.81-.52-1.27-.52Z"/>
                    <circle class="cls-1" cx="370.84" cy="193.48" r=".27"/>
                  </g>
                  <g>
                    <path class="cls-1" d="m379.35,186.86c-.48,0-.97-.18-1.33-.55-.74-.74-.74-1.93,0-2.67.74-.73,1.93-.73,2.67,0,.74.74.74,1.93,0,2.67h0c-.37.37-.85.55-1.33.55Zm0-3.67c-.46,0-.92.17-1.27.52-.7.7-.7,1.83,0,2.53s1.83.7,2.53,0,.7-1.83,0-2.53c-.35-.35-.81-.52-1.27-.52Z"/>
                    <circle class="cls-1" cx="379.35" cy="184.97" r=".27"/>
                  </g>
                  <g>
                    <path class="cls-1" d="m389.38,176.83c-.48,0-.97-.18-1.33-.55-.74-.74-.74-1.93,0-2.67.74-.73,1.93-.73,2.67,0,.74.74.74,1.93,0,2.67h0c-.37.37-.85.55-1.33.55Zm0-3.67c-.46,0-.92.17-1.27.52-.7.7-.7,1.83,0,2.53.7.7,1.83.7,2.53,0,.7-.7.7-1.83,0-2.53-.35-.35-.81-.52-1.27-.52Z"/>
                    <circle class="cls-1" cx="389.38" cy="174.94" r=".27"/>
                  </g>
                </g>
                <g>
                  <g>
                    <path class="cls-1" d="m198.73,367.4c-.48,0-.97-.18-1.33-.55-.36-.36-.55-.83-.55-1.33s.2-.98.55-1.33h0c.74-.73,1.93-.73,2.67,0,.36.36.55.83.55,1.33s-.2.98-.55,1.33c-.37.37-.85.55-1.33.55Zm0-3.67c-.46,0-.92.17-1.26.52h0c-.34.34-.52.79-.52,1.26s.19.93.52,1.26c.7.7,1.83.7,2.53,0,.34-.34.52-.79.52-1.26s-.19-.93-.52-1.26c-.35-.35-.81-.52-1.27-.52Z"/>
                    <circle class="cls-1" cx="198.73" cy="365.51" r=".27"/>
                  </g>
                  <polygon class="cls-1" points="149.06 415.25 148.99 415.18 219.05 345.12 219.12 345.19 149.06 415.25"/>
                  <g>
                    <path class="cls-1" d="m188.31,377.81c-.5,0-.98-.2-1.33-.55-.74-.73-.74-1.93,0-2.67h0c.36-.36.83-.55,1.33-.55s.98.2,1.33.55c.74.74.74,1.93,0,2.67-.36.36-.83.55-1.33.55Zm0-3.67c-.48,0-.93.19-1.27.52h0c-.7.7-.7,1.83,0,2.53.34.34.79.52,1.27.52s.93-.19,1.27-.52c.7-.7.7-1.83,0-2.53-.34-.34-.79-.52-1.27-.52Z"/>
                    <circle class="cls-1" cx="188.31" cy="375.93" r=".27"/>
                  </g>
                  <g>
                    <path class="cls-1" d="m168.86,397.26c-.5,0-.98-.2-1.33-.55-.36-.36-.55-.83-.55-1.33s.2-.98.55-1.33h0c.36-.36.83-.55,1.33-.55s.98.2,1.33.55c.74.74.74,1.93,0,2.67-.36.36-.83.55-1.33.55Zm0-3.67c-.48,0-.93.19-1.27.52h0c-.34.34-.52.79-.52,1.27s.19.93.52,1.26c.34.34.79.52,1.27.52s.93-.19,1.27-.52c.7-.7.7-1.83,0-2.53-.34-.34-.79-.52-1.27-.52Z"/>
                    <circle class="cls-1" cx="168.86" cy="395.38" r=".27"/>
                  </g>
                  <g>
                    <path class="cls-1" d="m160.36,405.77c-.5,0-.98-.2-1.33-.55-.73-.73-.73-1.93,0-2.67h0c.74-.73,1.93-.74,2.67,0,.73.74.73,1.93,0,2.67-.36.36-.83.55-1.33.55Zm-1.27-3.15c-.7.7-.7,1.83,0,2.53.34.34.79.52,1.27.52s.93-.19,1.27-.52c.7-.7.7-1.83,0-2.53-.7-.7-1.83-.7-2.53,0h0Z"/>
                    <circle class="cls-1" cx="160.36" cy="403.88" r=".27"/>
                  </g>
                  <g>
                    <path class="cls-1" d="m150.33,415.8c-.48,0-.97-.18-1.33-.55-.73-.74-.73-1.93,0-2.67h0c.74-.73,1.93-.74,2.67,0,.36.36.55.83.55,1.33s-.2.98-.55,1.33c-.37.37-.85.55-1.33.55Zm-1.27-3.15c-.7.7-.7,1.83,0,2.53.7.7,1.83.7,2.53,0,.34-.34.52-.79.52-1.26s-.19-.93-.52-1.27c-.7-.7-1.83-.7-2.53,0h0Z"/>
                    <circle class="cls-1" cx="150.33" cy="413.91" r=".27"/>
                  </g>
                </g>
              </g>
            </g>
          </g>
          <g>
            <path class="cls-1" d="m349.45,296.04c-1.04,0-1.89-.85-1.89-1.89s.85-1.89,1.89-1.89,1.89.85,1.89,1.89-.85,1.89-1.89,1.89Zm0-3.67c-.99,0-1.79.8-1.79,1.79s.8,1.79,1.79,1.79,1.79-.8,1.79-1.79-.8-1.79-1.79-1.79Z"/>
            <circle class="cls-1" cx="349.45" cy="294.16" r=".27"/>
          </g>
        </g>
        <g>
          <path class="cls-2" d="m234.66,300.93v-.53l15.91-27.57h.53v42.42h-.53v-14.32h-15.91Zm.64-.53h15.27v-26.57l-15.27,26.57Z"/>
          <path class="cls-2" d="m261.17,280.93c0-2.28.8-4.24,2.39-5.83,1.64-1.59,3.55-2.39,5.83-2.39s4.19.8,5.78,2.39c1.64,1.59,2.44,3.55,2.44,5.83v26.2c0,2.28-.8,4.24-2.44,5.83-1.59,1.59-3.5,2.39-5.78,2.39s-4.19-.8-5.83-2.39c-1.59-1.59-2.39-3.55-2.39-5.83v-26.2Zm.53,26.2c0,2.12.74,3.92,2.23,5.46,1.54,1.48,3.34,2.23,5.46,2.23s3.92-.74,5.41-2.23c1.54-1.54,2.28-3.34,2.28-5.46v-26.2c0-2.12-.74-3.92-2.28-5.41-1.48-1.54-3.29-2.28-5.41-2.28s-3.92.74-5.46,2.28c-1.48,1.48-2.23,3.29-2.23,5.41v26.2Z"/>
          <path class="cls-2" d="m287.69,283.59c0-1.54.53-2.81,1.59-3.92,1.11-1.11,2.44-1.64,3.98-1.64s2.86.53,3.92,1.64c1.11,1.11,1.64,2.39,1.64,3.92v7.64c0,1.54-.53,2.81-1.64,3.92-1.06,1.11-2.39,1.64-3.92,1.64s-2.86-.53-3.98-1.64c-1.06-1.11-1.59-2.39-1.59-3.92v-7.64Zm.53,7.64c0,2.76,2.28,5.04,5.04,5.04s5.04-2.28,5.04-5.04v-7.64c0-2.76-2.28-5.04-5.04-5.04s-5.04,2.28-5.04,5.04v7.64Zm5.99,21.48l-.42-.21,17.23-34.47.42.21-17.23,34.47Zm12.57-13.2c0-1.54.53-2.81,1.59-3.92,1.11-1.11,2.44-1.64,3.98-1.64s2.86.53,3.92,1.64c1.11,1.11,1.64,2.39,1.64,3.92v7.64c0,1.54-.53,2.81-1.64,3.92-1.06,1.11-2.39,1.64-3.92,1.64s-2.86-.53-3.98-1.64c-1.06-1.11-1.59-2.39-1.59-3.92v-7.64Zm.53,7.64c0,2.76,2.28,5.04,5.04,5.04s5.04-2.28,5.04-5.04v-7.64c0-2.76-2.28-5.04-5.04-5.04s-5.04,2.28-5.04,5.04v7.64Z"/>
        </g>
      </g>
      <rect class="cls-1" x="269.32" y="494.33" width=".94" height="6.24"/>
      <rect class="cls-1" x="269.45" y="84.25" width=".94" height="6.24"/>
      <rect class="cls-1" x="62.21" y="291.33" width=".94" height="6.24" transform="translate(357.14 231.77) rotate(90)"/>
      <rect class="cls-1" x="472.12" y="291.33" width=".94" height="6.24" transform="translate(767.04 -178.13) rotate(90)"/>
      <path class="cls-1" d="m519.96,561.94H0V31.29h519.96v530.65Zm-519.77-.19h519.58V31.48H.19v530.27Z"/>
      <g>
        <path class="cls-1" d="m521.26,561.94h-109.02v-17.5h109.02v17.5Zm-108.82-.19h108.63v-17.11h-108.63v17.11Z"/>
        <rect class="cls-1" x="1.39" y="48.39" width="519.77" height=".19"/>
        <g>
          <rect class="cls-1" x="503.64" y="31.38" width=".19" height="17.1"/>
          <rect class="cls-1" x="486.21" y="31.38" width=".19" height="17.1"/>
          <rect class="cls-1" x="468.78" y="31.38" width=".19" height="17.1"/>
        </g>
        <g>
          <polygon class="cls-4" points="509.34 43.41 509.27 43.34 516.15 36.46 516.22 36.53 509.34 43.41"/>
          <polygon class="cls-4" points="516.15 43.41 509.27 36.53 509.34 36.46 516.22 43.34 516.15 43.41"/>
        </g>
        <rect class="cls-1" x="473.92" y="39.77" width="6.99" height=".19"/>
        <rect class="cls-1" x="473.99" y="39.91" width="6.99" height=".19"/>
        <rect class="cls-1" x="495.69" y="36.37" width=".19" height="6.99"/>
        <g>
          <path class="cls-2" d="m420.34,555.69c-.56,0-1-.18-1.31-.54-.32-.36-.48-.87-.48-1.55v-1.14c0-.66.16-1.17.48-1.53.32-.37.76-.55,1.31-.55.39,0,.72.08.98.25.27.16.47.39.6.67s.2.59.2.94v.09h-.61v-.09c0-.22-.05-.43-.13-.63-.08-.19-.21-.35-.38-.47-.17-.12-.4-.18-.67-.18-.39,0-.69.14-.89.43-.2.29-.3.66-.3,1.13v1.05c0,.5.1.88.3,1.15.2.27.49.41.89.41.28,0,.5-.06.68-.18.17-.12.3-.28.38-.47.08-.19.12-.4.12-.63v-.09h.61v.09c0,.34-.07.66-.2.94s-.34.5-.6.67-.59.25-.98.25Z"/>
          <path class="cls-2" d="m423.9,555.59v-5.1h.61v4.53h2.67v.57h-3.28Z"/>
          <path class="cls-2" d="m429.06,555.59v-.57h1.31v-3.96h-1.31v-.57h3.23v.57h-1.31v3.96h1.31v.57h-3.23Z"/>
          <path class="cls-2" d="m434.17,555.59v-5.1h1.22l1.47,4.84h.09v-4.84h.61v5.1h-1.22l-1.47-4.84h-.09v4.84h-.61Z"/>
          <path class="cls-2" d="m439.44,555.59v-.57h1.31v-3.96h-1.31v-.57h3.23v.57h-1.31v3.96h1.31v.57h-3.23Z"/>
          <path class="cls-2" d="m446.27,555.69c-.56,0-1-.18-1.31-.54-.32-.36-.48-.87-.48-1.55v-1.14c0-.66.16-1.17.48-1.53.32-.37.76-.55,1.31-.55.39,0,.72.08.98.25.27.16.47.39.6.67s.2.59.2.94v.09h-.61v-.09c0-.22-.05-.43-.13-.63-.08-.19-.21-.35-.38-.47-.17-.12-.4-.18-.67-.18-.39,0-.69.14-.89.43-.2.29-.3.66-.3,1.13v1.05c0,.5.1.88.3,1.15.2.27.49.41.89.41.28,0,.5-.06.68-.18.17-.12.3-.28.38-.47.08-.19.12-.4.12-.63v-.09h.61v.09c0,.34-.07.66-.2.94s-.34.5-.6.67-.59.25-.98.25Z"/>
          <path class="cls-2" d="m449.3,555.59l1.54-5.1h1.15l1.54,5.1h-.66l-.37-1.27h-2.18l-.37,1.27h-.66Zm1.19-1.84h1.85l-.88-3h-.09l-.88,3Z"/>
          <path class="cls-2" d="m455.01,555.59v-5.1h.61v4.53h2.67v.57h-3.28Z"/>
          <path class="cls-2" d="m465.44,555.59v-5.1h3.09v.57h-2.48v1.69h2.43v.57h-2.43v1.7h2.52v.57h-3.13Z"/>
          <path class="cls-2" d="m470.29,555.59l1.27-2.51v-.09l-1.27-2.5h.67l1.14,2.26h.13l1.14-2.26h.67l-1.27,2.5v.09l1.27,2.51h-.67l-1.14-2.27h-.13l-1.14,2.27h-.67Z"/>
          <path class="cls-2" d="m475.74,555.59v-5.1h1.82c.35,0,.64.06.87.19.23.13.4.3.52.51.11.21.17.44.17.68v.22c0,.25-.06.48-.17.69-.12.21-.29.38-.52.51-.23.13-.52.19-.86.19h-1.21v2.1h-.61Zm.61-2.67h1.14c.68,0,1.02-.29,1.02-.87v-.13c0-.26-.08-.46-.25-.62-.17-.16-.42-.24-.77-.24h-1.14v1.86Z"/>
          <path class="cls-2" d="m480.42,555.59l1.54-5.1h1.15l1.54,5.1h-.66l-.37-1.27h-2.18l-.37,1.27h-.66Zm1.19-1.84h1.85l-.88-3h-.09l-.88,3Z"/>
          <path class="cls-2" d="m486.02,555.59v-5.1h1.22l1.47,4.84h.09v-4.84h.61v5.1h-1.22l-1.47-4.84h-.09v4.84h-.61Z"/>
          <path class="cls-2" d="m493.01,555.69c-.44,0-.8-.08-1.1-.24s-.52-.38-.67-.67-.23-.6-.23-.95v-.22h.61v.17c0,.44.12.78.37,1,.25.23.59.34,1.02.34.38,0,.66-.08.86-.26.19-.17.29-.39.29-.66v-.04c0-.27-.1-.47-.3-.61-.2-.14-.52-.24-.96-.31-.51-.07-.92-.22-1.22-.43-.3-.22-.46-.54-.46-.98v-.09c0-.27.07-.5.21-.7s.34-.36.59-.48.54-.17.87-.17c.38,0,.71.07.98.21s.48.33.62.56c.14.23.21.48.21.76v.31h-.61v-.26c0-.22-.06-.41-.17-.56-.11-.15-.26-.26-.44-.33s-.38-.11-.6-.11c-.18,0-.36.03-.52.09s-.29.15-.39.27c-.1.12-.15.27-.15.44v.04c0,.28.11.49.34.62.23.13.57.23,1.03.3.53.08.93.23,1.18.47.25.23.38.54.38.93v.09c0,.44-.15.8-.45,1.07-.3.27-.73.41-1.31.41Z"/>
          <path class="cls-2" d="m496.48,555.59v-.57h1.31v-3.96h-1.31v-.57h3.23v.57h-1.31v3.96h1.31v.57h-3.23Z"/>
          <path class="cls-2" d="m503.28,555.69c-.56,0-1-.18-1.31-.54-.32-.36-.48-.87-.48-1.55v-1.14c0-.66.16-1.17.48-1.53.32-.37.76-.55,1.31-.55s1,.18,1.32.55.47.88.47,1.53v1.14c0,.67-.16,1.19-.47,1.55s-.75.54-1.32.54Zm0-.57c.39,0,.69-.14.88-.41.2-.27.3-.66.3-1.15v-1.05c0-.47-.1-.84-.3-1.13-.2-.29-.49-.43-.88-.43s-.69.14-.89.43c-.2.29-.3.66-.3,1.13v1.05c0,.5.1.88.3,1.15.2.27.49.41.89.41Z"/>
          <path class="cls-2" d="m506.77,555.59v-5.1h1.22l1.47,4.84h.09v-4.84h.61v5.1h-1.22l-1.47-4.84h-.09v4.84h-.61Z"/>
        </g>
        <g>
          <path class="cls-5" d="m12.03,43.05c-.35,0-.68-.06-.99-.19-.31-.12-.58-.31-.81-.55-.23-.24-.41-.54-.54-.89-.13-.35-.2-.75-.2-1.2,0-.59.11-1.1.33-1.52.22-.42.52-.74.91-.97.38-.22.82-.34,1.3-.34.67,0,1.2.16,1.59.47.39.31.66.75.79,1.31l-.93.15c-.1-.32-.27-.58-.5-.77-.23-.19-.53-.29-.89-.29-.36,0-.67.07-.91.24-.24.16-.42.39-.54.69-.12.3-.18.64-.18,1.04s.06.74.18,1.03.3.52.54.68c.24.16.55.25.91.25.27,0,.51-.05.72-.15.21-.1.37-.26.5-.46.13-.21.22-.47.26-.78h-.96v-.71h1.92s0,.1.01.18c0,.08,0,.12,0,.14,0,.51-.1.97-.3,1.37-.2.4-.49.71-.87.94-.38.23-.83.34-1.35.34Z"/>
          <path class="cls-5" d="m16.89,42.93v-5.43h.91v4.57h2.4v.85h-3.3Z"/>
          <path class="cls-5" d="m24.49,43.05c-.54,0-1.01-.12-1.39-.36s-.68-.57-.89-.99-.31-.92-.31-1.48.1-1.05.31-1.48c.21-.42.5-.76.89-.99s.85-.36,1.39-.36,1.01.12,1.4.36.69.57.89.99c.21.42.31.92.31,1.48s-.1,1.05-.31,1.48-.5.76-.89.99-.85.36-1.4.36Zm0-.86c.36,0,.67-.08.91-.24.24-.16.42-.39.55-.69.12-.3.18-.64.18-1.04s-.06-.74-.18-1.03c-.12-.29-.3-.52-.55-.68-.24-.16-.55-.25-.91-.25-.36,0-.67.08-.91.24-.24.16-.42.39-.54.69-.12.3-.18.64-.18,1.04s.06.74.18,1.03.3.52.54.68c.24.16.55.25.91.25Z"/>
          <path class="cls-5" d="m29.35,42.93v-5.43h2.15c.37,0,.67.07.9.22.23.15.41.33.52.56.11.23.17.46.17.71,0,.3-.07.55-.21.76-.14.21-.33.35-.58.42v-.19c.34.08.6.24.78.49.18.25.27.53.27.84s-.06.6-.18.84c-.12.24-.31.43-.55.57-.24.14-.54.2-.9.2h-2.37Zm.92-3.26h1.22c.13,0,.25-.03.35-.08.1-.05.18-.12.25-.22s.09-.22.09-.36c0-.19-.06-.35-.18-.47-.12-.13-.29-.19-.51-.19h-1.22v1.32Zm0,2.4h1.34c.16,0,.3-.03.43-.1s.22-.15.3-.27c.07-.12.11-.26.11-.42,0-.15-.03-.28-.09-.39-.06-.12-.15-.21-.28-.28-.12-.07-.27-.1-.43-.1h-1.36v1.56Z"/>
          <path class="cls-5" d="m35.24,42.93l1.71-5.43h1.33l1.71,5.43h-.93l-1.55-4.87h.2l-1.53,4.87h-.93Zm.95-1.18v-.85h2.85v.85h-2.85Z"/>
          <path class="cls-5" d="m42.25,42.93v-5.43h.91v4.57h2.4v.85h-3.3Z"/>
          <path class="cls-5" d="m50.34,42.93v-5.43h2.24c.05,0,.12,0,.2,0,.08,0,.16.01.23.02.31.05.57.15.78.31.2.16.36.36.46.61s.15.52.15.82c0,.44-.11.82-.34,1.14-.22.32-.57.51-1.03.59l-.39.03h-1.4v1.9h-.91Zm.91-2.74h1.3c.05,0,.11,0,.17,0,.06,0,.12-.02.17-.03.15-.04.27-.1.36-.2.09-.1.15-.2.18-.32s.05-.24.05-.35-.02-.23-.05-.36c-.04-.12-.1-.23-.18-.33-.09-.1-.21-.16-.36-.2-.05-.02-.11-.02-.17-.03-.06,0-.12,0-.17,0h-1.3v1.83Zm2.21,2.74l-1.07-2.21.92-.2,1.18,2.41h-1.03Z"/>
          <path class="cls-5" d="m56.82,42.93v-5.43h3.5v.85h-2.6v1.34h2.14v.85h-2.14v1.53h2.6v.85h-3.5Z"/>
          <path class="cls-5" d="m62.36,42.93l1.71-5.43h1.33l1.71,5.43h-.93l-1.55-4.87h.2l-1.53,4.87h-.93Zm.95-1.18v-.85h2.85v.85h-2.85Z"/>
          <path class="cls-5" d="m71.45,43.05c-.54,0-1.01-.12-1.39-.36s-.68-.57-.89-.99-.31-.92-.31-1.48.1-1.05.31-1.48c.21-.42.5-.76.89-.99s.85-.36,1.39-.36c.63,0,1.15.16,1.56.47.42.31.71.73.88,1.26l-.92.25c-.11-.35-.29-.63-.54-.83-.25-.2-.58-.3-.99-.3-.36,0-.67.08-.91.24-.24.16-.42.39-.55.69-.12.3-.18.64-.19,1.04,0,.4.06.74.18,1.04.12.3.3.52.55.69.24.16.55.25.91.25.4,0,.73-.1.99-.3.25-.2.43-.48.54-.83l.92.25c-.17.53-.46.95-.88,1.26-.42.31-.94.47-1.56.47Z"/>
          <path class="cls-5" d="m76.22,42.93v-5.43h.91v2.28h2.57v-2.28h.9v5.43h-.9v-2.29h-2.57v2.29h-.91Z"/>
        </g>
      </g>
      <g>
        <path class="cls-2" d="m45.88,285.94v-8.23h.79v7.48h1.92v.75h-2.7Z"/>
        <path class="cls-2" d="m54.52,285.94h-.83l-.4-2.09h-1.75l-.4,2.09h-.79l1.7-8.23h.76l1.7,8.23Zm-2.88-2.74h1.54l-.76-4.01-.78,4.01Z"/>
        <path class="cls-2" d="m57.69,278.47v7.48h-.8v-7.48h-1.43v-.75h3.67v.75h-1.43Z"/>
        <path class="cls-2" d="m64.24,285.94h-.83l-.4-2.09h-1.75l-.4,2.09h-.79l1.7-8.23h.76l1.7,8.23Zm-2.88-2.74h1.54l-.76-4.01-.78,4.01Z"/>
        <path class="cls-2" d="m66.99,279.7v6.24h-.75v-8.23h.81l1.68,5.44,1.68-5.44h.76v8.23h-.75v-6.24l-1.53,4.89h-.39l-1.52-4.89Z"/>
      </g>
      <g>
        <path class="cls-2" d="m245.9,70.32v6.42h-.72v-8.23h.76l2.22,6.28v-6.28h.72v8.23h-.72l-2.27-6.42Z"/>
        <path class="cls-2" d="m251.12,72.89v-.69h2.82v.69h-2.82Z"/>
        <path class="cls-2" d="m259.65,76.74h-.83l-.4-2.09h-1.75l-.4,2.09h-.79l1.7-8.23h.76l1.7,8.23Zm-2.88-2.74h1.54l-.76-4.01-.78,4.01Z"/>
        <path class="cls-2" d="m262.4,70.49v6.24h-.75v-8.23h.81l1.68,5.44,1.68-5.44h.76v8.23h-.75v-6.24l-1.53,4.89h-.39l-1.52-4.89Z"/>
        <path class="cls-2" d="m269.17,76.74v-8.23h2.88v.75h-2.09v2.83h1.74v.7h-1.74v3.19h2.15v.75h-2.94Z"/>
        <path class="cls-2" d="m277.45,76.74l-1.21-3.46c-.08.01-.22.01-.31.01h-.8v3.44h-.79v-8.23h1.66c1.16,0,1.93.71,1.93,2v.8c0,.87-.39,1.47-.99,1.74l1.34,3.69h-.83Zm-2.32-4.1h.86c.71,0,1.14-.45,1.14-1.29v-.82c0-.85-.43-1.29-1.14-1.29h-.86v3.41Z"/>
        <path class="cls-2" d="m280.4,68.51h.82v8.23h-.82v-8.23Z"/>
        <path class="cls-2" d="m286.48,73.86h.76v1.16c0,1.12-.75,1.83-1.74,1.83s-1.75-.69-1.75-1.82v-4.78c0-1.13.78-1.86,1.78-1.86s1.72.69,1.72,1.81v1.07h-.76v-1.02c0-.7-.4-1.12-.96-1.12s-.98.41-.98,1.12v4.75c0,.72.41,1.12.98,1.12s.96-.4.96-1.12v-1.14Z"/>
        <path class="cls-2" d="m293.31,76.74h-.83l-.4-2.09h-1.75l-.4,2.09h-.79l1.7-8.23h.76l1.7,8.23Zm-2.88-2.74h1.54l-.76-4.01-.78,4.01Z"/>
      </g>
      <g>
        <path class="cls-2" d="m451.09,283.48h-.83l-.4-2.09h-1.75l-.4,2.09h-.79l1.7-8.23h.76l1.7,8.23Zm-2.88-2.74h1.54l-.76-4.01-.78,4.01Z"/>
        <path class="cls-2" d="m453.56,281.68c0,.75.42,1.2,1.02,1.2s1.03-.42,1.03-1.14c0-.82-.43-1.43-1.38-2.32-.82-.76-1.36-1.55-1.36-2.48,0-1.11.79-1.81,1.78-1.81s1.72.69,1.72,1.81v.42h-.75v-.38c0-.72-.41-1.13-.98-1.13s-.96.39-.96,1.07.4,1.23,1.2,1.98c.95.89,1.53,1.73,1.53,2.82s-.8,1.87-1.83,1.87-1.78-.71-1.78-1.87v-.54h.76v.49Z"/>
        <path class="cls-2" d="m458.75,275.25h.82v8.23h-.82v-8.23Z"/>
        <path class="cls-2" d="m465.81,283.48h-.83l-.4-2.09h-1.75l-.4,2.09h-.79l1.7-8.23h.76l1.7,8.23Zm-2.88-2.74h1.54l-.76-4.01-.78,4.01Z"/>
        <path class="cls-2" d="m467.33,279.63v-.69h2.82v.69h-2.82Z"/>
        <path class="cls-2" d="m472.39,275.25h1.66c1.16,0,1.93.71,1.93,2v.92c0,1.29-.79,2.02-1.95,2.02h-.85v3.29h-.79v-8.23Zm.79,4.23h.86c.71,0,1.14-.45,1.14-1.29v-.93c0-.85-.43-1.29-1.14-1.29h-.86v3.51Z"/>
        <path class="cls-2" d="m481.5,283.48h-.83l-.4-2.09h-1.75l-.4,2.09h-.79l1.7-8.23h.76l1.7,8.23Zm-2.88-2.74h1.54l-.76-4.01-.78,4.01Z"/>
        <path class="cls-2" d="m486.11,280.6h.76v1.16c0,1.12-.75,1.83-1.74,1.83s-1.75-.69-1.75-1.82v-4.78c0-1.13.78-1.86,1.78-1.86s1.72.69,1.72,1.81v1.07h-.76v-1.02c0-.71-.4-1.12-.96-1.12s-.98.41-.98,1.12v4.75c0,.72.41,1.12.98,1.12s.96-.4.96-1.12v-1.14Z"/>
        <path class="cls-2" d="m489.42,275.25h.82v8.23h-.82v-8.23Z"/>
        <path class="cls-2" d="m493.67,279.96v3.51h-.79v-8.23h2.82v.75h-2.03v3.22h1.68v.74h-1.68Z"/>
        <path class="cls-2" d="m497.88,275.25h.82v8.23h-.82v-8.23Z"/>
        <path class="cls-2" d="m503.96,280.6h.76v1.16c0,1.12-.75,1.83-1.74,1.83s-1.75-.69-1.75-1.82v-4.78c0-1.13.78-1.86,1.78-1.86s1.72.69,1.72,1.81v1.07h-.76v-1.02c0-.71-.4-1.12-.96-1.12s-.98.41-.98,1.12v4.75c0,.72.41,1.12.98,1.12s.96-.4.96-1.12v-1.14Z"/>
      </g>
      <g>
        <path class="cls-2" d="m242.72,522.49v-8.23h2.88v.75h-2.09v2.83h1.74v.71h-1.74v3.19h2.15v.75h-2.94Z"/>
        <path class="cls-2" d="m248.64,516.25v6.24h-.75v-8.23h.81l1.68,5.44,1.68-5.44h.76v8.23h-.75v-6.24l-1.53,4.89h-.39l-1.52-4.89Z"/>
        <path class="cls-2" d="m255.42,522.49v-8.23h2.88v.75h-2.09v2.83h1.74v.71h-1.74v3.19h2.15v.75h-2.94Z"/>
        <path class="cls-2" d="m264.29,522.49h-.83l-.4-2.09h-1.75l-.4,2.09h-.79l1.7-8.23h.76l1.7,8.23Zm-2.88-2.74h1.54l-.76-4.01-.78,4.01Z"/>
        <path class="cls-2" d="m272.77,522.49l-1.21-3.46c-.08.01-.22.01-.31.01h-.8v3.44h-.79v-8.23h1.66c1.16,0,1.93.71,1.93,2v.8c0,.87-.39,1.47-.99,1.74l1.34,3.69h-.83Zm-2.32-4.1h.86c.71,0,1.14-.45,1.14-1.29v-.82c0-.85-.43-1.29-1.14-1.29h-.86v3.41Z"/>
        <path class="cls-2" d="m275.66,522.49v-8.23h2.88v.75h-2.09v2.83h1.74v.71h-1.74v3.19h2.15v.75h-2.94Z"/>
        <path class="cls-2" d="m282.62,518.31h1.74v2.39c0,1.16-.81,1.9-1.83,1.9s-1.81-.72-1.81-1.88v-4.67c0-1.16.8-1.92,1.83-1.92s1.81.72,1.81,1.88v.88h-.8v-.85c0-.74-.42-1.18-1.02-1.18s-1.03.43-1.03,1.18v4.64c0,.75.43,1.19,1.03,1.19s1.05-.44,1.05-1.19v-1.74h-.96v-.65Z"/>
        <path class="cls-2" d="m286.89,514.26h.82v8.23h-.82v-8.23Z"/>
        <path class="cls-2" d="m290.24,516.06c0-1.16.8-1.92,1.83-1.92s1.81.72,1.81,1.88v4.68c0,1.16-.81,1.9-1.83,1.9s-1.81-.72-1.81-1.88v-4.67Zm.79,4.63c0,.75.43,1.18,1.03,1.18s1.02-.42,1.02-1.18v-4.63c0-.74-.42-1.18-1.02-1.18s-1.03.43-1.03,1.18v4.63Z"/>
        <path class="cls-2" d="m297.07,516.07v6.42h-.72v-8.23h.76l2.22,6.28v-6.28h.72v8.23h-.72l-2.27-6.42Z"/>
      </g>
    </g>
  </g>
</svg>