<?xml version="1.0" encoding="UTF-8"?>
<svg id="Layer_2" data-name="Layer 2" xmlns="http://www.w3.org/2000/svg" viewBox="0 0 820.85 307.28">
  <defs>
    <style>
      .cls-1 {
        stroke-dasharray: 0 0 0 0 5 3 0 0;
      }

      .cls-1, .cls-2 {
        fill: none;
        stroke: #232323;
        stroke-miterlimit: 10;
        stroke-width: .5px;
      }

      .cls-3 {
        fill: #1a1a1a;
        stroke-width: 0px;
      }
    </style>
  </defs>
  <g id="PROJECT-PART1">
    <g id="slide3-identity_grid" data-name="slide3-identity grid">
      <g>
        <path class="cls-3" d="m740.82,202.06c0-57.85-46.9-104.75-104.75-104.75-2.24,0-4.48.07-6.72.21-14.38.91-28.47,4.82-41.28,11.41-12.62,6.49-22.64,16.32-32.61,26.23-34.15,33.94-81.2,54.92-133.15,54.92-.5,0-.99-.01-1.49-.02-.5,0-.99.02-1.49.02-51.95,0-99-20.98-133.15-54.92-9.97-9.91-19.99-19.74-32.61-26.23-12.81-6.58-26.9-10.5-41.28-11.41-2.24-.14-4.48-.21-6.72-.21-57.85,0-104.75,46.9-104.75,104.75,0,.03,0,.06,0,.09s0,.06,0,.09c0,57.85,46.9,104.75,104.75,104.75,2.24,0,4.48-.07,6.72-.21,14.38-.91,28.47-4.82,41.28-11.41,12.62-6.49,22.64-16.32,32.61-26.23,34.15-33.94,81.2-54.92,133.15-54.92.5,0,.99.01,1.49.02.5,0,.99-.02,1.49-.02,51.95,0,99,20.98,133.15,54.92,9.97,9.91,19.99,19.74,32.61,26.23,12.81,6.58,26.9,10.5,41.28,11.41,2.24.14,4.48.21,6.72.21,57.85,0,104.75-46.9,104.75-104.75,0-.03,0-.06,0-.09s0-.06,0-.09Zm-96.49.18c0,14.29-10.15,26.21-23.63,28.94-19.01,4.6-51.52-6.1-51.52-6.1-12.38-3.91-24.87-7.12-37.05-9.77-59.13-12.83-111.3-12.22-111.3-12.22,0,0-52.18-.61-111.3,12.22-12.19,2.64-24.67,5.86-37.05,9.77,0,0-32.5,10.7-51.52,6.1-13.48-2.73-23.63-14.65-23.63-28.94,0-.03,0-.06,0-.09s0-.06,0-.09c0-14.29,10.15-26.21,23.63-28.94,19.01-4.6,51.52,6.1,51.52,6.1,12.38,3.91,24.87,7.12,37.05,9.77,59.13,12.83,111.3,12.22,111.3,12.22,0,0,52.18.61,111.3-12.22,12.19-2.64,24.67-5.86,37.05-9.77,0,0,32.5-10.7,51.52-6.1,13.48,2.73,23.63,14.65,23.63,28.94,0,.03,0,.06,0,.09s0,.06,0,.09Z"/>
        <g>
          <polyline class="cls-2" points="100.82 111.44 100.82 97.28 114.98 97.28"/>
          <g>
            <line class="cls-1" y1="202.15" x2="820.85" y2="202.15"/>
            <line class="cls-1" x1="420.85" y1="97.31" x2="420.85" y2="307"/>
            <circle class="cls-1" cx="205.69" cy="202.15" r="104.87"/>
            <circle class="cls-1" cx="635.95" cy="202.15" r="104.87"/>
            <g>
              <circle class="cls-1" cx="614.15" cy="202.15" r="30.18"/>
              <g>
                <line class="cls-2" x1="615.9" y1="200.4" x2="612.39" y2="203.91"/>
                <line class="cls-2" x1="615.9" y1="203.91" x2="612.39" y2="200.4"/>
              </g>
            </g>
            <g>
              <circle class="cls-1" cx="227.5" cy="202.15" r="30.18"/>
              <g>
                <line class="cls-2" x1="229.25" y1="200.4" x2="225.74" y2="203.91"/>
                <line class="cls-2" x1="229.25" y1="203.91" x2="225.74" y2="200.4"/>
              </g>
            </g>
            <polyline class="cls-2" points="114.98 307 100.82 307 100.82 292.84"/>
            <polyline class="cls-2" points="740.82 292.84 740.82 307 726.66 307"/>
            <polyline class="cls-2" points="726.66 97.28 740.82 97.28 740.82 111.44"/>
            <path class="cls-1" d="m610.49,0c0,104.93-85.07,190-190,190S230.49,104.93,230.49,0"/>
          </g>
        </g>
      </g>
    </g>
  </g>
</svg>