<?xml version="1.0" encoding="UTF-8"?>
<svg id="Layer_2" data-name="Layer 2" xmlns="http://www.w3.org/2000/svg" viewBox="0 0 519.96 530.65">
  <defs>
    <style>
      .cls-1, .cls-2 {
        fill: #c6ac93;
      }

      .cls-1, .cls-2, .cls-3, .cls-4, .cls-5, .cls-6 {
        stroke-width: 0px;
      }

      .cls-7 {
        opacity: .5;
      }

      .cls-2 {
        opacity: .15;
      }

      .cls-3 {
        fill: #c2c4c4;
      }

      .cls-4 {
        fill: #fff;
      }

      .cls-5 {
        fill: #c08d65;
      }

      .cls-6 {
        fill: #acacac;
      }
    </style>
  </defs>
  <g id="PROJECT-PART3">
    <g>
      <g>
        <g>
          <g>
            <g>
              <g>
                <rect class="cls-4" x="39.07" y="387.8" width=".1" height="43.98"/>
                <rect class="cls-4" x="69.5" y="387.8" width=".1" height="43.98"/>
              </g>
              <g>
                <rect class="cls-4" x="101.16" y="387.8" width=".1" height="43.98"/>
                <rect class="cls-4" x="131.59" y="387.8" width=".1" height="43.98"/>
              </g>
              <g>
                <rect class="cls-4" x="163.25" y="387.8" width=".1" height="43.98"/>
                <rect class="cls-4" x="193.68" y="387.8" width=".1" height="43.98"/>
              </g>
              <g>
                <rect class="cls-4" x="225.34" y="387.8" width=".1" height="43.98"/>
                <rect class="cls-4" x="255.77" y="387.8" width=".1" height="43.98"/>
              </g>
              <g>
                <rect class="cls-4" x="287.44" y="387.8" width=".1" height="43.98"/>
                <rect class="cls-4" x="317.87" y="387.8" width=".1" height="43.98"/>
              </g>
            </g>
            <rect class="cls-4" x="39.11" y="431.73" width="278.8" height=".1"/>
            <g>
              <path class="cls-1" d="m69.54,419.48c-1.04,0-1.89-.85-1.89-1.89s.85-1.89,1.89-1.89,1.89.85,1.89,1.89-.85,1.89-1.89,1.89Zm0-3.67c-.99,0-1.79.8-1.79,1.79s.8,1.79,1.79,1.79,1.79-.8,1.79-1.79-.8-1.79-1.79-1.79Z"/>
              <circle class="cls-1" cx="69.54" cy="417.6" r=".27"/>
            </g>
            <g>
              <path class="cls-1" d="m101.21,418.16c-1.04,0-1.89-.85-1.89-1.89s.85-1.89,1.89-1.89,1.89.85,1.89,1.89-.85,1.89-1.89,1.89Zm0-3.67c-.99,0-1.79.8-1.79,1.79s.8,1.79,1.79,1.79,1.79-.8,1.79-1.79-.8-1.79-1.79-1.79Z"/>
              <circle class="cls-1" cx="101.21" cy="416.27" r=".27"/>
            </g>
            <g>
              <path class="cls-1" d="m131.64,413.32c-1.04,0-1.89-.85-1.89-1.89s.85-1.89,1.89-1.89,1.89.85,1.89,1.89-.85,1.89-1.89,1.89Zm0-3.67c-.99,0-1.79.8-1.79,1.79s.8,1.79,1.79,1.79,1.79-.8,1.79-1.79-.8-1.79-1.79-1.79Z"/>
              <circle class="cls-1" cx="131.64" cy="411.44" r=".27"/>
            </g>
            <g>
              <path class="cls-1" d="m163.3,419.01c-1.04,0-1.89-.85-1.89-1.89s.85-1.89,1.89-1.89,1.89.85,1.89,1.89-.85,1.89-1.89,1.89Zm0-3.67c-.99,0-1.79.8-1.79,1.79s.8,1.79,1.79,1.79,1.79-.8,1.79-1.79-.8-1.79-1.79-1.79Z"/>
              <circle class="cls-1" cx="163.3" cy="417.12" r=".27"/>
            </g>
            <g>
              <path class="cls-1" d="m193.73,403.28c-1.04,0-1.89-.85-1.89-1.89s.85-1.89,1.89-1.89,1.89.85,1.89,1.89-.85,1.89-1.89,1.89Zm0-3.67c-.99,0-1.79.8-1.79,1.79s.8,1.79,1.79,1.79,1.79-.8,1.79-1.79-.8-1.79-1.79-1.79Z"/>
              <circle class="cls-1" cx="193.73" cy="401.39" r=".27"/>
            </g>
            <g>
              <path class="cls-1" d="m225.39,400.95c-1.04,0-1.89-.85-1.89-1.89s.85-1.89,1.89-1.89,1.89.85,1.89,1.89-.85,1.89-1.89,1.89Zm0-3.67c-.99,0-1.79.8-1.79,1.79s.8,1.79,1.79,1.79,1.79-.8,1.79-1.79-.8-1.79-1.79-1.79Z"/>
              <circle class="cls-1" cx="225.39" cy="399.07" r=".27"/>
            </g>
            <g>
              <path class="cls-1" d="m255.82,403.81c-1.04,0-1.89-.85-1.89-1.89s.85-1.89,1.89-1.89,1.89.85,1.89,1.89-.85,1.89-1.89,1.89Zm0-3.67c-.99,0-1.79.8-1.79,1.79s.8,1.79,1.79,1.79,1.79-.8,1.79-1.79-.8-1.79-1.79-1.79Z"/>
              <circle class="cls-1" cx="255.82" cy="401.93" r=".27"/>
            </g>
            <g>
              <path class="cls-1" d="m287.48,399.87c-1.04,0-1.89-.85-1.89-1.89s.85-1.89,1.89-1.89,1.89.85,1.89,1.89-.85,1.89-1.89,1.89Zm0-3.67c-.99,0-1.79.8-1.79,1.79s.8,1.79,1.79,1.79,1.79-.8,1.79-1.79-.8-1.79-1.79-1.79Z"/>
              <circle class="cls-1" cx="287.48" cy="397.98" r=".27"/>
            </g>
            <g>
              <path class="cls-1" d="m317.91,418.87c-1.04,0-1.89-.85-1.89-1.89s.85-1.89,1.89-1.89,1.89.85,1.89,1.89-.85,1.89-1.89,1.89Zm0-3.67c-.99,0-1.79.8-1.79,1.79s.8,1.79,1.79,1.79,1.79-.8,1.79-1.79-.8-1.79-1.79-1.79Z"/>
              <circle class="cls-1" cx="317.91" cy="416.99" r=".27"/>
            </g>
            <g>
              <path class="cls-1" d="m39.11,421.01c-1.04,0-1.89-.85-1.89-1.89s.85-1.89,1.89-1.89,1.89.85,1.89,1.89-.85,1.89-1.89,1.89Zm0-3.67c-.99,0-1.79.8-1.79,1.79s.8,1.79,1.79,1.79,1.79-.8,1.79-1.79-.8-1.79-1.79-1.79Z"/>
              <circle class="cls-1" cx="39.11" cy="419.12" r=".27"/>
            </g>
            <polygon class="cls-5" points="39.12 419.22 39.11 419.03 69.54 417.5 101.2 416.18 131.64 411.34 131.65 411.34 163.28 417.02 193.7 401.3 193.72 401.3 225.38 398.97 255.83 401.83 287.51 397.88 287.54 397.9 317.97 416.9 317.86 417.07 287.46 398.08 255.83 402.02 225.38 399.16 193.76 401.49 163.31 417.22 163.28 417.22 131.64 411.54 101.22 416.37 69.55 417.69 39.12 419.22"/>
            <rect class="cls-4" x="38.85" y="431.78" width="279.33" height=".19"/>
          </g>
          <g>
            <path class="cls-3" d="m51.12,445.91v7.64h-.48v-8.87h.51l2.75,7.57v-7.57h.48v8.87h-.48l-2.77-7.64Z"/>
            <path class="cls-3" d="m57.41,453.54v-8.87h2.91v.44h-2.41v3.56h2.03v.42h-2.03v4h2.47v.44h-2.98Z"/>
            <path class="cls-3" d="m66.41,444.68v7.08c0,1.17-.77,1.91-1.79,1.91s-1.76-.72-1.76-1.89v-7.11h.52v7.07c0,.92.53,1.46,1.27,1.46s1.27-.53,1.27-1.46v-7.07h.49Z"/>
            <path class="cls-3" d="m71.33,449.64c-.1.01-.2.03-.32.03h-1.13v3.88h-.51v-8.87h1.66c1.17,0,1.95.76,1.95,2.08v.81c0,1-.47,1.68-1.19,1.96l1.57,4.02h-.54l-1.49-3.9Zm-1.44-.39h1.14c.89,0,1.46-.57,1.46-1.65v-.84c0-1.08-.57-1.65-1.46-1.65h-1.14v4.13Z"/>
            <path class="cls-3" d="m79.26,453.54h-.54l-.51-2.52h-2.17l-.51,2.52h-.52l1.87-8.87h.49l1.87,8.87Zm-3.13-2.94h1.99l-.99-4.91-1,4.91Z"/>
            <path class="cls-3" d="m81.54,453.54v-8.87h.51v8.42h2.22v.44h-2.72Z"/>
            <path class="cls-3" d="m90.25,444.68h1.66c1.17,0,1.95.76,1.95,2.08v.95c0,1.32-.81,2.1-1.98,2.1h-1.13v3.74h-.51v-8.87Zm.51,4.69h1.14c.89,0,1.46-.57,1.46-1.65v-.95c0-1.08-.57-1.65-1.46-1.65h-1.14v4.24Z"/>
            <path class="cls-3" d="m99.62,453.54h-.54l-.51-2.52h-2.17l-.51,2.52h-.52l1.87-8.87h.49l1.87,8.87Zm-3.13-2.94h1.99l-.99-4.91-1,4.91Z"/>
            <path class="cls-3" d="m102.79,445.12v8.42h-.51v-8.42h-1.65v-.44h3.8v.44h-1.65Z"/>
            <path class="cls-3" d="m109.94,449.05h-2.6v4.5h-.51v-8.87h.51v3.93h2.6v-3.93h.51v8.87h-.51v-4.5Z"/>
            <path class="cls-3" d="m112.73,444.68h.54l1.2,7.57,1.23-7.57h.41l1.22,7.56,1.22-7.56h.52l-1.49,8.87h-.48l-1.19-7.18-1.19,7.18h-.48l-1.49-8.87Z"/>
            <path class="cls-3" d="m124.64,453.54h-.54l-.51-2.52h-2.17l-.51,2.52h-.52l1.87-8.87h.49l1.87,8.87Zm-3.13-2.94h1.99l-.99-4.91-1,4.91Z"/>
            <path class="cls-3" d="m127.26,449.83l-1.74-5.15h.54l1.46,4.61,1.47-4.61h.52l-1.75,5.19v3.67h-.51v-3.71Z"/>
          </g>
          <rect class="cls-4" x="39.09" y="460.7" width="279.33" height=".1"/>
          <g>
            <path class="cls-3" d="m51.14,471.93v7.42h-.51v-8.87h.53l2.01,6.31,2.01-6.31h.51v8.87h-.51v-7.42l-1.89,5.9h-.28l-1.89-5.9Z"/>
            <path class="cls-3" d="m58.74,479.35v-8.87h2.91v.44h-2.41v3.56h2.03v.42h-2.03v4h2.47v.44h-2.98Z"/>
            <path class="cls-3" d="m65.77,470.92v8.42h-.51v-8.42h-1.65v-.44h3.8v.44h-1.65Z"/>
            <path class="cls-3" d="m72.68,479.35h-.54l-.51-2.52h-2.17l-.51,2.52h-.52l1.87-8.87h.49l1.87,8.87Zm-3.13-2.94h1.99l-.99-4.91-1,4.91Z"/>
            <path class="cls-3" d="m74.96,470.48h1.6c1.17,0,1.95.76,1.95,2.08v.19c0,.94-.41,1.61-1.06,1.91.73.27,1.19.95,1.19,1.95v.63c0,1.32-.81,2.1-1.98,2.1h-1.7v-8.87Zm.51,4h1.08c.89,0,1.46-.57,1.46-1.65v-.27c0-1.08-.57-1.65-1.46-1.65h-1.08v3.56Zm0,4.42h1.2c.89,0,1.46-.57,1.46-1.65v-.71c0-1.08-.57-1.65-1.46-1.65h-1.2v4Z"/>
            <path class="cls-3" d="m81.29,472.33c0-1.2.8-1.98,1.85-1.98s1.82.75,1.82,1.95v5.19c0,1.2-.8,1.98-1.85,1.98s-1.82-.75-1.82-1.95v-5.19Zm.51,5.16c0,.96.56,1.52,1.33,1.52s1.33-.56,1.33-1.52v-5.14c0-.96-.56-1.52-1.33-1.52s-1.33.56-1.33,1.52v5.14Z"/>
            <path class="cls-3" d="m87.88,479.35v-8.87h.51v8.42h2.22v.44h-2.72Z"/>
            <path class="cls-3" d="m93.07,470.48h.53v8.87h-.53v-8.87Z"/>
            <path class="cls-3" d="m99.62,476.37h.48v1.19c0,1.17-.75,1.91-1.76,1.91s-1.76-.72-1.76-1.89v-5.32c0-1.17.77-1.91,1.79-1.91s1.74.72,1.74,1.89v1.09h-.48v-1.05c0-.92-.53-1.46-1.27-1.46s-1.27.53-1.27,1.46v5.27c0,.92.53,1.46,1.27,1.46s1.27-.53,1.27-1.46v-1.18Z"/>
            <path class="cls-3" d="m108.54,475.45c-.1.01-.2.03-.32.03h-1.13v3.88h-.51v-8.87h1.66c1.17,0,1.95.76,1.95,2.08v.81c0,1-.47,1.68-1.19,1.96l1.57,4.02h-.54l-1.49-3.9Zm-1.44-.39h1.14c.89,0,1.46-.57,1.46-1.65v-.84c0-1.08-.57-1.65-1.46-1.65h-1.14v4.13Z"/>
            <path class="cls-3" d="m116.47,479.35h-.54l-.51-2.52h-2.17l-.51,2.52h-.52l1.87-8.87h.49l1.87,8.87Zm-3.13-2.94h1.99l-.99-4.91-1,4.91Z"/>
            <path class="cls-3" d="m119.63,470.92v8.42h-.51v-8.42h-1.65v-.44h3.8v.44h-1.65Z"/>
            <path class="cls-3" d="m123.69,479.35v-8.87h2.91v.44h-2.41v3.56h2.03v.42h-2.03v4h2.47v.44h-2.98Z"/>
          </g>
          <polygon class="cls-4" points="324.35 491.04 32.18 491.04 32.18 485.65 32.28 485.65 32.28 490.95 324.26 490.95 324.26 485.65 324.35 485.65 324.35 491.04"/>
          <path class="cls-4" d="m324.35,380.53H32.18v-28.48h292.17v28.48Zm-292.07-.1h291.98v-28.29H32.28v28.29Z"/>
          <g>
            <path class="cls-3" d="m42.75,362.13v9.58h-.65v-11.44h.69l2.6,8.14,2.6-8.14h.65v11.44h-.65v-9.58l-2.43,7.62h-.36l-2.43-7.62Z"/>
            <path class="cls-3" d="m52.39,362.65c0-1.55,1.03-2.55,2.39-2.55s2.35.96,2.35,2.52v6.7c0,1.55-1.03,2.55-2.39,2.55s-2.35-.96-2.35-2.52v-6.7Zm.65,6.65c0,1.24.72,1.96,1.72,1.96s1.72-.72,1.72-1.96v-6.63c0-1.24-.72-1.96-1.72-1.96s-1.72.72-1.72,1.96v6.63Z"/>
            <path class="cls-3" d="m60.89,371.71v-11.44h.65v10.87h2.86v.57h-3.51Z"/>
            <path class="cls-3" d="m67.51,371.71v-11.44h3.76v.57h-3.1v4.59h2.61v.54h-2.61v5.16h3.19v.57h-3.84Z"/>
            <path class="cls-3" d="m78.37,367.87h.62v1.54c0,1.5-.96,2.47-2.27,2.47s-2.27-.93-2.27-2.43v-6.86c0-1.5,1-2.47,2.3-2.47s2.24.93,2.24,2.43v1.41h-.62v-1.36c0-1.19-.69-1.88-1.63-1.88s-1.63.69-1.63,1.88v6.8c0,1.19.69,1.88,1.63,1.88s1.63-.69,1.63-1.88v-1.52Z"/>
            <path class="cls-3" d="m87.25,360.27v9.13c0,1.5-1,2.47-2.3,2.47s-2.27-.93-2.27-2.43v-9.17h.67v9.12c0,1.19.69,1.88,1.63,1.88s1.63-.69,1.63-1.88v-9.12h.64Z"/>
            <path class="cls-3" d="m91.09,371.71v-11.44h.65v10.87h2.86v.57h-3.51Z"/>
            <path class="cls-3" d="m102.53,371.71h-.7l-.65-3.25h-2.79l-.65,3.25h-.67l2.42-11.44h.64l2.42,11.44Zm-4.04-3.79h2.57l-1.27-6.34-1.29,6.34Z"/>
            <path class="cls-3" d="m107.99,366.67c-.13.02-.26.03-.41.03h-1.45v5h-.65v-11.44h2.14c1.5,0,2.52.98,2.52,2.68v1.05c0,1.29-.6,2.17-1.54,2.53l2.03,5.18h-.7l-1.93-5.03Zm-1.86-.51h1.47c1.14,0,1.88-.74,1.88-2.12v-1.08c0-1.39-.74-2.12-1.88-2.12h-1.47v5.33Z"/>
            <path class="cls-3" d="m122.82,371.71h-.7l-.65-3.25h-2.79l-.65,3.25h-.67l2.42-11.44h.64l2.42,11.44Zm-4.04-3.79h2.57l-1.27-6.34-1.29,6.34Z"/>
            <path class="cls-3" d="m126.39,361.85v9.85h-.62v-11.44h.65l3.55,9.77v-9.77h.62v11.44h-.62l-3.58-9.85Z"/>
            <path class="cls-3" d="m139,371.71h-.7l-.65-3.25h-2.79l-.65,3.25h-.67l2.42-11.44h.64l2.42,11.44Zm-4.04-3.79h2.57l-1.27-6.34-1.29,6.34Z"/>
            <path class="cls-3" d="m141.94,371.71v-11.44h.65v10.87h2.86v.57h-3.51Z"/>
            <path class="cls-3" d="m148.84,366.92l-2.24-6.65h.7l1.88,5.95,1.9-5.95h.67l-2.26,6.7v4.74h-.65v-4.79Z"/>
            <path class="cls-3" d="m156.7,365.42c1.32,1.23,2.21,2.4,2.21,3.99,0,1.5-1.03,2.47-2.39,2.47s-2.32-.96-2.32-2.52v-.67h.62v.62c0,1.24.72,1.96,1.72,1.96s1.72-.69,1.72-1.88c0-1.32-.74-2.32-2.03-3.5-1.08-1-1.9-2.09-1.9-3.4,0-1.45,1-2.39,2.3-2.39s2.24.93,2.24,2.43v.51h-.62v-.46c0-1.19-.69-1.88-1.63-1.88s-1.63.65-1.63,1.8.69,1.96,1.72,2.91Z"/>
            <path class="cls-3" d="m162.42,360.27h.69v11.44h-.69v-11.44Z"/>
            <path class="cls-3" d="m169.12,365.42c1.32,1.23,2.21,2.4,2.21,3.99,0,1.5-1.03,2.47-2.39,2.47s-2.32-.96-2.32-2.52v-.67h.62v.62c0,1.24.72,1.96,1.72,1.96s1.72-.69,1.72-1.88c0-1.32-.74-2.32-2.03-3.5-1.08-1-1.9-2.09-1.9-3.4,0-1.45,1-2.39,2.3-2.39s2.24.93,2.24,2.43v.51h-.62v-.46c0-1.19-.69-1.88-1.63-1.88s-1.63.65-1.63,1.8.69,1.96,1.72,2.91Z"/>
          </g>
          <g>
            <path class="cls-3" d="m276.61,446.53c0-1.2.8-1.98,1.85-1.98s1.82.75,1.82,1.95v5.19c0,1.2-.8,1.98-1.85,1.98s-1.82-.75-1.82-1.95v-5.19Zm.51,5.16c0,.96.56,1.52,1.33,1.52s1.33-.56,1.33-1.52v-5.14c0-.96-.56-1.52-1.33-1.52s-1.33.56-1.33,1.52v5.14Z"/>
            <path class="cls-3" d="m283.2,444.68h1.66c1.17,0,1.95.76,1.95,2.08v.95c0,1.32-.81,2.1-1.98,2.1h-1.13v3.74h-.51v-8.87Zm.51,4.69h1.14c.89,0,1.46-.57,1.46-1.65v-.95c0-1.08-.57-1.65-1.46-1.65h-1.14v4.24Z"/>
            <path class="cls-3" d="m290.99,445.12v8.42h-.51v-8.42h-1.65v-.44h3.8v.44h-1.65Z"/>
            <path class="cls-3" d="m295.11,444.68h.53v8.87h-.53v-8.87Z"/>
            <path class="cls-3" d="m299.25,446.12v7.42h-.51v-8.87h.53l2.01,6.31,2.01-6.31h.51v8.87h-.51v-7.42l-1.89,5.9h-.28l-1.89-5.9Z"/>
            <path class="cls-3" d="m310.33,453.54h-.54l-.51-2.52h-2.17l-.51,2.52h-.52l1.87-8.87h.49l1.87,8.87Zm-3.13-2.94h1.99l-.99-4.91-1,4.91Z"/>
            <path class="cls-3" d="m312.61,453.54v-8.87h.51v8.42h2.22v.44h-2.72Z"/>
          </g>
          <g>
            <path class="cls-3" d="m282.07,474.47c1.03.95,1.71,1.86,1.71,3.09,0,1.17-.8,1.91-1.85,1.91s-1.8-.75-1.8-1.95v-.52h.48v.48c0,.96.56,1.52,1.33,1.52s1.33-.53,1.33-1.46c0-1.03-.57-1.8-1.57-2.71-.84-.77-1.47-1.62-1.47-2.63,0-1.13.77-1.85,1.79-1.85s1.74.72,1.74,1.89v.39h-.48v-.35c0-.92-.53-1.46-1.27-1.46s-1.27.51-1.27,1.39.53,1.52,1.33,2.25Z"/>
            <path class="cls-3" d="m287.42,475.64l-1.74-5.15h.54l1.46,4.61,1.47-4.61h.52l-1.75,5.19v3.67h-.51v-3.71Z"/>
            <path class="cls-3" d="m292.43,471.71v7.64h-.48v-8.87h.51l2.75,7.57v-7.57h.48v8.87h-.48l-2.77-7.64Z"/>
            <path class="cls-3" d="m301.64,476.37h.48v1.19c0,1.17-.75,1.91-1.76,1.91s-1.76-.72-1.76-1.89v-5.32c0-1.17.77-1.91,1.79-1.91s1.74.72,1.74,1.89v1.09h-.48v-1.05c0-.92-.53-1.46-1.27-1.46s-1.27.53-1.27,1.46v5.27c0,.92.53,1.46,1.27,1.46s1.27-.53,1.27-1.46v-1.18Z"/>
            <path class="cls-3" d="m305.04,479.35v-8.87h2.91v.44h-2.41v3.56h2.03v.42h-2.03v4h2.47v.44h-2.98Z"/>
            <path class="cls-3" d="m310.55,470.48h1.66c1.17,0,1.95.76,1.95,2.08v4.69c0,1.32-.81,2.1-1.98,2.1h-1.63v-8.87Zm.51,8.42h1.14c.89,0,1.46-.57,1.46-1.65v-4.69c0-1.08-.57-1.65-1.46-1.65h-1.14v7.98Z"/>
          </g>
          <rect class="cls-4" x="324.5" y="380.49" width=".1" height="51.39"/>
          <rect class="cls-4" x="32.18" y="380.49" width=".1" height="51.39"/>
          <rect class="cls-4" x="32.18" y="453.88" width=".1" height="13.43"/>
          <rect class="cls-4" x="324.5" y="454.19" width=".1" height="13.43"/>
          <g>
            <g>
              <path class="cls-3" d="m45.85,226.25h.62v1.54c0,1.5-.96,2.47-2.27,2.47s-2.27-.93-2.27-2.43v-6.86c0-1.5,1-2.47,2.3-2.47s2.24.93,2.24,2.43v1.41h-.62v-1.36c0-1.19-.69-1.88-1.63-1.88s-1.63.69-1.63,1.88v6.8c0,1.19.69,1.88,1.63,1.88s1.63-.69,1.63-1.88v-1.52Z"/>
              <path class="cls-3" d="m50.32,218.65h.69v11.44h-.69v-11.44Z"/>
              <path class="cls-3" d="m57.52,225.06c-.13.02-.26.03-.41.03h-1.45v5h-.65v-11.44h2.14c1.5,0,2.52.98,2.52,2.68v1.05c0,1.29-.6,2.17-1.54,2.53l2.03,5.18h-.7l-1.93-5.03Zm-1.86-.51h1.47c1.14,0,1.88-.74,1.88-2.12v-1.08c0-1.39-.74-2.12-1.88-2.12h-1.47v5.33Z"/>
              <path class="cls-3" d="m67.02,226.25h.62v1.54c0,1.5-.96,2.47-2.27,2.47s-2.27-.93-2.27-2.43v-6.86c0-1.5,1-2.47,2.3-2.47s2.24.93,2.24,2.43v1.41h-.62v-1.36c0-1.19-.69-1.88-1.63-1.88s-1.63.69-1.63,1.88v6.8c0,1.19.69,1.88,1.63,1.88s1.63-.69,1.63-1.88v-1.52Z"/>
              <path class="cls-3" d="m75.89,230.09h-.7l-.65-3.25h-2.79l-.65,3.25h-.67l2.42-11.44h.64l2.42,11.44Zm-4.04-3.79h2.57l-1.27-6.34-1.29,6.34Z"/>
              <path class="cls-3" d="m78.83,218.65h2.14c1.5,0,2.52.98,2.52,2.68v6.05c0,1.7-1.05,2.71-2.55,2.71h-2.11v-11.44Zm.65,10.87h1.47c1.14,0,1.88-.74,1.88-2.12v-6.05c0-1.39-.74-2.12-1.88-2.12h-1.47v10.3Z"/>
              <path class="cls-3" d="m87.33,218.65h.69v11.44h-.69v-11.44Z"/>
              <path class="cls-3" d="m96.51,230.09h-.7l-.65-3.25h-2.79l-.65,3.25h-.67l2.42-11.44h.64l2.42,11.44Zm-4.04-3.79h2.57l-1.27-6.34-1.29,6.34Z"/>
              <path class="cls-3" d="m100.08,220.24v9.85h-.62v-11.44h.65l3.55,9.77v-9.77h.62v11.44h-.62l-3.58-9.85Z"/>
              <path class="cls-3" d="m117.3,230.09h-.7l-.65-3.25h-2.79l-.65,3.25h-.67l2.42-11.44h.64l2.42,11.44Zm-4.04-3.79h2.57l-1.27-6.34-1.29,6.34Z"/>
              <path class="cls-3" d="m120.24,218.65h2.14c1.5,0,2.52.98,2.52,2.68v6.05c0,1.7-1.05,2.71-2.55,2.71h-2.11v-11.44Zm.65,10.87h1.47c1.14,0,1.88-.74,1.88-2.12v-6.05c0-1.39-.74-2.12-1.88-2.12h-1.47v10.3Z"/>
              <path class="cls-3" d="m133.15,230.09h-.7l-.65-3.25h-2.79l-.65,3.25h-.67l2.42-11.44h.64l2.42,11.44Zm-4.04-3.79h2.57l-1.27-6.34-1.29,6.34Z"/>
              <path class="cls-3" d="m136.09,218.65h2.14c1.5,0,2.52.98,2.52,2.68v1.23c0,1.7-1.05,2.71-2.55,2.71h-1.45v4.82h-.65v-11.44Zm.65,6.05h1.47c1.14,0,1.88-.74,1.88-2.12v-1.23c0-1.39-.74-2.12-1.88-2.12h-1.47v5.47Z"/>
              <path class="cls-3" d="m146.14,219.22v10.87h-.65v-10.87h-2.12v-.57h4.9v.57h-2.12Z"/>
              <path class="cls-3" d="m155.05,230.09h-.7l-.65-3.25h-2.79l-.65,3.25h-.67l2.42-11.44h.64l2.42,11.44Zm-4.04-3.79h2.57l-1.27-6.34-1.29,6.34Z"/>
              <path class="cls-3" d="m159.14,219.22v10.87h-.65v-10.87h-2.12v-.57h4.9v.57h-2.12Z"/>
              <path class="cls-3" d="m164.45,218.65h.69v11.44h-.69v-11.44Z"/>
              <path class="cls-3" d="m168.97,221.04c0-1.55,1.03-2.55,2.39-2.55s2.35.96,2.35,2.52v6.7c0,1.55-1.03,2.55-2.39,2.55s-2.35-.96-2.35-2.52v-6.7Zm.65,6.65c0,1.24.72,1.96,1.72,1.96s1.72-.72,1.72-1.96v-6.63c0-1.24-.72-1.96-1.72-1.96s-1.72.72-1.72,1.96v6.63Z"/>
              <path class="cls-3" d="m178.09,220.24v9.85h-.62v-11.44h.65l3.55,9.77v-9.77h.62v11.44h-.62l-3.58-9.85Z"/>
            </g>
            <g>
              <polygon class="cls-4" points="324.35 215.49 324.26 215.49 324.26 211.69 32.28 211.69 32.28 215.49 32.18 215.49 32.18 211.59 324.35 211.59 324.35 215.49"/>
              <polygon class="cls-4" points="324.35 238.29 32.18 238.29 32.18 234.4 32.28 234.4 32.28 238.2 324.26 238.2 324.26 234.4 324.35 234.4 324.35 238.29"/>
            </g>
          </g>
          <path class="cls-4" d="m319.77,80.32H27.6v-28.48h292.17v28.48Zm-292.07-.1h291.98v-28.29H27.7v28.29Z"/>
          <g>
            <path class="cls-3" d="m42.01,71.5h-.7l-.65-3.25h-2.79l-.65,3.25h-.67l2.42-11.44h.64l2.42,11.44Zm-4.04-3.79h2.57l-1.27-6.34-1.29,6.34Z"/>
            <path class="cls-3" d="m48.71,67.66h.62v1.54c0,1.5-.96,2.47-2.27,2.47s-2.27-.93-2.27-2.43v-6.86c0-1.5,1-2.47,2.3-2.47s2.24.93,2.24,2.43v1.41h-.62v-1.36c0-1.19-.69-1.88-1.63-1.88s-1.63.69-1.63,1.88v6.8c0,1.19.69,1.88,1.63,1.88s1.63-.69,1.63-1.88v-1.52Z"/>
            <path class="cls-3" d="m54.89,60.63v10.87h-.65v-10.87h-2.12v-.57h4.9v.57h-2.12Z"/>
            <path class="cls-3" d="m60.2,60.06h.69v11.44h-.69v-11.44Z"/>
            <path class="cls-3" d="m63.91,60.06h.7l1.96,10.03,1.98-10.03h.67l-2.34,11.44h-.64l-2.34-11.44Z"/>
            <path class="cls-3" d="m72.16,71.5v-11.44h3.76v.57h-3.1v4.59h2.61v.54h-2.61v5.16h3.19v.57h-3.84Z"/>
            <path class="cls-3" d="m84.5,61.64v9.85h-.62v-11.44h.65l3.55,9.77v-9.77h.62v11.44h-.62l-3.58-9.85Z"/>
            <path class="cls-3" d="m92.46,62.44c0-1.55,1.03-2.55,2.39-2.55s2.35.96,2.35,2.52v6.7c0,1.55-1.03,2.55-2.39,2.55s-2.35-.96-2.35-2.52v-6.7Zm.65,6.65c0,1.24.72,1.96,1.72,1.96s1.72-.72,1.72-1.96v-6.63c0-1.24-.72-1.96-1.72-1.96s-1.72.72-1.72,1.96v6.63Z"/>
            <path class="cls-3" d="m100.95,60.06h2.14c1.5,0,2.52.98,2.52,2.68v6.05c0,1.7-1.05,2.71-2.55,2.71h-2.11v-11.44Zm.65,10.87h1.47c1.14,0,1.88-.74,1.88-2.12v-6.05c0-1.39-.74-2.12-1.88-2.12h-1.47v10.3Z"/>
            <path class="cls-3" d="m109.37,71.5v-11.44h3.76v.57h-3.1v4.59h2.61v.54h-2.61v5.16h3.19v.57h-3.84Z"/>
            <path class="cls-3" d="m118.49,65.2c1.32,1.23,2.21,2.4,2.21,3.99,0,1.5-1.03,2.47-2.39,2.47s-2.32-.96-2.32-2.52v-.67h.62v.62c0,1.24.72,1.96,1.72,1.96s1.72-.69,1.72-1.88c0-1.32-.74-2.32-2.03-3.5-1.08-1-1.9-2.09-1.9-3.4,0-1.45,1-2.39,2.3-2.39s2.24.93,2.24,2.43v.51h-.62v-.46c0-1.19-.69-1.88-1.63-1.88s-1.63.65-1.63,1.8.69,1.96,1.72,2.91Z"/>
            <path class="cls-3" d="m124.13,63.06c.31,0,.57.26.57.57s-.26.57-.57.57-.57-.26-.57-.57.26-.57.57-.57Zm0,7.45c.31,0,.57.26.57.57s-.26.57-.57.57-.57-.26-.57-.57.26-.57.57-.57Z"/>
            <path class="cls-3" d="m132.54,62.23c0-1.41.96-2.34,2.17-2.34s2.14.9,2.14,2.3v1.11c0,.96-.46,1.72-1.13,2.08.77.36,1.26,1.14,1.26,2.22v1.59c0,1.5-1,2.47-2.3,2.47s-2.27-.93-2.27-2.43v-1.59c0-1.06.51-1.85,1.26-2.22-.69-.36-1.13-1.1-1.13-2.08v-1.11Zm.52,6.95c0,1.19.69,1.88,1.63,1.88s1.63-.69,1.63-1.88v-1.6c0-1.19-.69-1.88-1.63-1.88s-1.63.69-1.63,1.88v1.6Zm.13-5.8c0,1.1.65,1.75,1.5,1.75s1.5-.65,1.5-1.75v-1.13c0-1.1-.65-1.75-1.5-1.75s-1.5.65-1.5,1.75v1.13Z"/>
            <path class="cls-3" d="m140.09,73.62l.08-3.43h.74l-.25,3.43h-.57Z"/>
            <path class="cls-3" d="m146.79,60.06h.65v7.6h.9v.57h-.9v3.27h-.65v-3.27h-3.35v-.57l3.35-7.6Zm0,7.6v-6.28l-2.76,6.28h2.76Z"/>
            <path class="cls-3" d="m151.86,60.06h3.91v.6h-3.3v4.04c.28-.39.72-.72,1.49-.72,1.16,0,2.06.87,2.06,2.27v3.07c0,1.41-.96,2.34-2.17,2.34s-2.14-.9-2.14-2.3v-.96h.65v.92c0,1.1.65,1.75,1.5,1.75s1.5-.65,1.5-1.75v-3.01c0-1.09-.65-1.72-1.5-1.72-.8,0-1.42.6-1.42,1.45v.15h-.57v-6.13Z"/>
            <path class="cls-3" d="m159.33,71.5v-.41l2.97-6.29c.39-.82.62-1.5.62-2.53,0-1.13-.64-1.76-1.52-1.76s-1.5.64-1.5,1.76v1.06h-.62v-1.08c0-1.44.9-2.35,2.14-2.35s2.16.93,2.16,2.43c0,1.01-.34,1.94-.75,2.79l-2.71,5.8h3.46v.57h-4.25Z"/>
          </g>
        </g>
        <g>
          <path class="cls-4" d="m74.02,328.01h-41.81v-77.6h41.81v77.6Zm-41.76-.06h41.7v-77.48h-41.7v77.48Z"/>
          <path class="cls-4" d="m115.74,328.01h-41.81v-77.6h41.81v77.6Zm-41.76-.06h41.7v-77.48h-41.7v77.48Z"/>
          <path class="cls-4" d="m157.46,328.01h-41.81v-77.6h41.81v77.6Zm-41.76-.06h41.7v-77.48h-41.7v77.48Z"/>
          <path class="cls-4" d="m199.18,328.01h-41.81v-77.6h41.81v77.6Zm-41.76-.06h41.7v-77.48h-41.7v77.48Z"/>
          <path class="cls-4" d="m240.9,328.01h-41.81v-77.6h41.81v77.6Zm-41.76-.06h41.7v-77.48h-41.7v77.48Z"/>
          <path class="cls-4" d="m282.62,328.01h-41.81v-77.6h41.81v77.6Zm-41.76-.06h41.7v-77.48h-41.7v77.48Z"/>
          <path class="cls-4" d="m324.34,328.01h-41.81v-77.6h41.81v77.6Zm-41.76-.06h41.7v-77.48h-41.7v77.48Z"/>
          <g>
            <path class="cls-4" d="m324.34,328.01H32.2v-19.54h292.13v19.54Zm-292.07-.06h292.02v-19.42H32.26v19.42Z"/>
            <path class="cls-4" d="m324.34,308.54H32.2v-19.54h292.13v19.54Zm-292.07-.06h292.02v-19.42H32.26v19.42Z"/>
            <path class="cls-4" d="m324.34,289.08H32.2v-19.54h292.13v19.54Zm-292.07-.06h292.02v-19.42H32.26v19.42Z"/>
            <path class="cls-4" d="m324.34,269.62H32.2v-19.54h292.13v19.54Zm-292.07-.06h292.02v-19.42H32.26v19.42Z"/>
          </g>
        </g>
        <polygon class="cls-4" points="32.29 328.06 32.18 327.9 69.76 301.94 87.77 283.87 102.42 275.61 102.47 275.65 122.22 290.02 122.23 290.03 129.42 301.96 160.36 323.29 188.63 268.65 188.68 268.64 233.17 258.77 233.18 258.77 282.81 260.42 282.83 260.43 324.93 285.93 324.83 286.09 282.75 260.61 233.19 258.96 188.76 268.82 160.43 323.57 129.26 302.08 122.08 290.15 102.4 275.84 87.87 284.03 69.88 302.08 32.29 328.06"/>
        <polygon class="cls-5" points="32.32 328.02 32.14 327.94 44.63 301.91 94.81 267.87 94.85 267.9 127.42 282.48 167.83 314.87 207.9 275.99 207.91 275.99 235.64 263 235.68 263.01 272.18 275.98 324.36 309.85 324.25 310.01 272.09 276.16 235.65 263.2 208.01 276.16 167.84 315.13 127.31 282.64 94.82 268.09 44.78 302.04 32.32 328.02"/>
        <polygon class="cls-4" points="324.35 193.6 32.17 193.6 32.17 189.71 32.27 189.71 32.27 193.51 324.25 193.51 324.25 189.71 324.35 189.71 324.35 193.6"/>
        <g>
          <g>
            <path class="cls-3" d="m40.18,104.85l-1.21-3.46c-.08.01-.22.01-.31.01h-.8v3.44h-.79v-8.23h1.66c1.16,0,1.93.71,1.93,2v.8c0,.87-.39,1.47-.99,1.74l1.34,3.69h-.83Zm-2.32-4.1h.86c.71,0,1.14-.45,1.14-1.29v-.82c0-.85-.43-1.29-1.14-1.29h-.86v3.41Z"/>
            <path class="cls-3" d="m43.07,104.85v-8.23h2.88v.75h-2.09v2.83h1.74v.71h-1.74v3.19h2.15v.75h-2.94Z"/>
            <path class="cls-3" d="m50.01,97.38v7.48h-.8v-7.48h-1.43v-.75h3.67v.75h-1.43Z"/>
            <path class="cls-3" d="m53.56,104.85v-8.23h2.88v.75h-2.09v2.83h1.74v.71h-1.74v3.19h2.15v.75h-2.94Z"/>
            <path class="cls-3" d="m59.45,98.44v6.42h-.72v-8.23h.76l2.22,6.28v-6.28h.72v8.23h-.72l-2.27-6.42Z"/>
            <path class="cls-3" d="m66.79,97.38v7.48h-.8v-7.48h-1.43v-.75h3.67v.75h-1.43Z"/>
            <path class="cls-3" d="m70.4,96.62h.82v8.23h-.82v-8.23Z"/>
            <path class="cls-3" d="m73.75,98.42c0-1.16.8-1.92,1.83-1.92s1.81.72,1.81,1.88v4.68c0,1.16-.81,1.9-1.83,1.9s-1.81-.72-1.81-1.88v-4.67Zm.79,4.63c0,.75.43,1.18,1.03,1.18s1.02-.42,1.02-1.18v-4.63c0-.74-.42-1.18-1.02-1.18s-1.03.43-1.03,1.18v4.63Z"/>
            <path class="cls-3" d="m80.58,98.44v6.42h-.72v-8.23h.76l2.22,6.28v-6.28h.72v8.23h-.72l-2.27-6.42Z"/>
          </g>
          <g>
            <g>
              <path class="cls-1" d="m46.49,126.11c0,1.23-.21,2.24-.72,3.41l-4,9.12h-1.23l3.77-8.49c-.45.39-1.11.72-2.12.72-2.3,0-3.95-1.64-3.95-4.39v-4.6c0-2.75,1.76-4.45,4.15-4.45s4.09,1.64,4.09,4.39v4.3Zm-1.2-4.21c0-2.18-1.2-3.38-2.93-3.38s-2.93,1.2-2.93,3.38v4.48c0,2.18,1.2,3.38,2.93,3.38s2.93-1.2,2.93-3.38v-4.48Z"/>
              <path class="cls-1" d="m53.06,121.69c0-2.57,1.76-4.27,3.98-4.27s3.92,1.64,3.92,4.21v2.03c0,1.76-.84,3.14-2.06,3.8,1.4.66,2.3,2.09,2.3,4.07v2.9c0,2.75-1.82,4.51-4.21,4.51s-4.15-1.7-4.15-4.45v-2.9c0-1.94.93-3.38,2.3-4.07-1.26-.66-2.06-2-2.06-3.8v-2.03Zm.96,12.7c0,2.18,1.26,3.44,2.99,3.44s2.99-1.26,2.99-3.44v-2.93c0-2.18-1.26-3.44-2.99-3.44s-2.99,1.26-2.99,3.44v2.93Zm.24-10.61c0,2,1.2,3.2,2.75,3.2s2.75-1.2,2.75-3.2v-2.06c0-2-1.2-3.2-2.75-3.2s-2.75,1.2-2.75,3.2v2.06Z"/>
              <path class="cls-1" d="m67.77,136.84c.57,0,1.05.48,1.05,1.05s-.48,1.05-1.05,1.05-1.05-.48-1.05-1.05.48-1.05,1.05-1.05Z"/>
              <path class="cls-1" d="m79.42,117.72h1.2v13.9h1.64v1.05h-1.64v5.98h-1.2v-5.98h-6.13v-1.05l6.13-13.9Zm0,13.9v-11.48l-5.05,11.48h5.05Z"/>
              <path class="cls-1" d="m91.02,120.41c1.97,0,3.47,1.46,3.47,3.44s-1.55,3.5-3.53,3.5-3.47-1.46-3.47-3.44,1.55-3.5,3.53-3.5Zm8.58.3h1.2l-11.06,17.93h-1.2l11.06-17.93Zm-8.61,5.59c1.32,0,2.36-1.05,2.36-2.42s-1.05-2.42-2.36-2.42-2.36,1.05-2.36,2.42,1.05,2.42,2.36,2.42Zm7.38,5.71c1.97,0,3.47,1.46,3.47,3.44s-1.55,3.5-3.53,3.5-3.47-1.46-3.47-3.44,1.55-3.5,3.53-3.5Zm-.03,5.89c1.31,0,2.36-1.05,2.36-2.42s-1.05-2.42-2.36-2.42-2.36,1.05-2.36,2.42,1.05,2.42,2.36,2.42Z"/>
            </g>
            <rect class="cls-4" x="36.54" y="153.5" width="61.19" height=".06"/>
            <rect class="cls-5" x="36.54" y="153.43" width="18.42" height=".19"/>
            <g class="cls-7">
              <g>
                <rect class="cls-2" x="36.54" y="156.96" width="18.42" height="2.88"/>
                <rect class="cls-1" x="54.81" y="156.96" width=".29" height="2.88"/>
              </g>
              <g>
                <rect class="cls-2" x="36.54" y="160.79" width="18.42" height="1.44"/>
                <rect class="cls-1" x="54.81" y="160.79" width=".29" height="1.44"/>
              </g>
              <g>
                <rect class="cls-2" x="36.54" y="162.7" width="18.42" height="1.44"/>
                <rect class="cls-1" x="54.81" y="162.7" width=".29" height="1.44"/>
              </g>
              <g>
                <rect class="cls-2" x="36.54" y="165.11" width="18.42" height="4.88"/>
                <rect class="cls-1" x="54.81" y="165.11" width=".29" height="4.88"/>
              </g>
              <g>
                <rect class="cls-2" x="36.54" y="170.51" width="18.42" height="4.42"/>
                <rect class="cls-1" x="54.81" y="170.51" width=".29" height="4.42"/>
              </g>
            </g>
            <path class="cls-1" d="m96.98,179.04h-.1v-1.54h.1v1.54Zm-1.64,0h-.1v-1.54h.1v1.54Zm-1.64,0h-.1v-1.54h.1v1.54Zm-3.27,0h-.1v-1.54h.1v1.54Zm-1.64,0h-.1v-1.54h.1v1.54Zm-1.64,0h-.1v-1.54h.1v1.54Zm-1.64,0h-.1v-1.54h.1v1.54Zm-3.27,0h-.1v-1.54h.1v1.54Zm-1.64,0h-.1v-1.54h.1v1.54Zm-1.64,0h-.1v-1.54h.1v1.54Zm-1.64,0h-.1v-1.54h.1v1.54Zm-3.27,0h-.1v-1.54h.1v1.54Zm-1.64,0h-.1v-1.54h.1v1.54Zm-1.64,0h-.1v-1.54h.1v1.54Zm-1.64,0h-.1v-1.54h.1v1.54Zm-3.27,0h-.1v-1.54h.1v1.54Zm-1.64,0h-.1v-1.54h.1v1.54Zm-1.64,0h-.1v-1.54h.1v1.54Zm-1.64,0h-.1v-1.54h.1v1.54Zm-3.27,0h-.1v-1.54h.1v1.54Zm-1.64,0h-.1v-1.54h.1v1.54Zm-1.64,0h-.1v-1.54h.1v1.54Zm-1.64,0h-.1v-1.54h.1v1.54Zm-3.27,0h-.1v-1.54h.1v1.54Zm-1.64,0h-.1v-1.54h.1v1.54Zm-1.64,0h-.1v-1.54h.1v1.54Zm-1.64,0h-.1v-1.54h.1v1.54Zm47.43,0h-.1v-3.13h.1v3.13Zm-8.18,0h-.1v-3.13h.1v3.13Zm-8.18,0h-.1v-3.13h.1v3.13Zm-8.18,0h-.1v-3.13h.1v3.13Zm-8.18,0h-.1v-3.13h.1v3.13Zm-8.18,0h-.1v-3.13h.1v3.13Zm-8.18,0h-.1v-3.13h.1v3.13Zm-1.64,0h-.1v-1.54h.1v1.54Zm-1.64,0h-.1v-1.54h.1v1.54Zm-1.64,0h-.1v-1.54h.1v1.54Zm-1.64,0h-.1v-1.54h.1v1.54Z"/>
            <rect class="cls-5" x="36.54" y="156.86" width="18.42" height=".19"/>
          </g>
        </g>
        <g>
          <g>
            <path class="cls-3" d="m152.41,104.85h-.83l-.4-2.09h-1.75l-.4,2.09h-.79l1.7-8.23h.76l1.7,8.23Zm-2.88-2.74h1.54l-.76-4.01-.78,4.01Z"/>
            <path class="cls-3" d="m153.53,96.62h.85l1.2,6.54,1.21-6.54h.8l-1.65,8.23h-.76l-1.65-8.23Z"/>
            <path class="cls-3" d="m161.37,100.68h1.74v2.39c0,1.16-.81,1.9-1.83,1.9s-1.81-.72-1.81-1.88v-4.67c0-1.16.8-1.92,1.83-1.92s1.81.72,1.81,1.88v.88h-.8v-.85c0-.74-.42-1.18-1.02-1.18s-1.03.43-1.03,1.18v4.64c0,.75.43,1.19,1.03,1.19s1.05-.44,1.05-1.19v-1.74h-.96v-.65Z"/>
            <path class="cls-3" d="m166.28,104.42c0,.31-.26.55-.56.55s-.55-.25-.55-.55.25-.56.55-.56.56.26.56.56Z"/>
            <path class="cls-3" d="m175.42,96.62v6.5c0,1.13-.79,1.85-1.78,1.85s-1.75-.69-1.75-1.82v-6.52h.8v6.49c0,.72.41,1.12.98,1.12s.96-.4.96-1.12v-6.49h.79Z"/>
            <path class="cls-3" d="m177.95,96.62h1.66c1.16,0,1.93.71,1.93,2v.92c0,1.29-.79,2.02-1.95,2.02h-.85v3.29h-.79v-8.23Zm.79,4.23h.86c.71,0,1.14-.45,1.14-1.29v-.93c0-.85-.43-1.29-1.14-1.29h-.86v3.51Z"/>
            <path class="cls-3" d="m185.59,97.38v7.48h-.8v-7.48h-1.43v-.75h3.67v.75h-1.43Z"/>
            <path class="cls-3" d="m192.14,104.85h-.83l-.4-2.09h-1.75l-.4,2.09h-.79l1.7-8.23h.76l1.7,8.23Zm-2.88-2.74h1.54l-.76-4.01-.78,4.01Z"/>
            <path class="cls-3" d="m194.13,96.62h.79v3.81l1.89-3.81h.91l-2.07,3.95,2.19,4.28h-.91l-2.01-4.04v4.04h-.79v-8.23Z"/>
            <path class="cls-3" d="m199.72,104.85v-8.23h2.88v.75h-2.09v2.83h1.74v.71h-1.74v3.19h2.15v.75h-2.94Z"/>
          </g>
          <g>
            <g>
              <path class="cls-1" d="m150.08,121.78c0-2.66,1.76-4.36,4.06-4.36s4.01,1.64,4.01,4.3v12.85c0,2.66-1.76,4.36-4.06,4.36s-4-1.64-4-4.3v-12.85Zm1.2,12.76c0,2.09,1.2,3.29,2.84,3.29s2.84-1.2,2.84-3.29v-12.73c0-2.09-1.2-3.29-2.84-3.29s-2.84,1.2-2.84,3.29v12.73Z"/>
              <path class="cls-1" d="m164.72,136.84c.57,0,1.05.48,1.05,1.05s-.48,1.05-1.05,1.05-1.05-.48-1.05-1.05.48-1.05,1.05-1.05Z"/>
              <path class="cls-1" d="m171.3,121.78c0-2.66,1.76-4.36,4.06-4.36s4.01,1.64,4.01,4.3v12.85c0,2.66-1.76,4.36-4.06,4.36s-4-1.64-4-4.3v-12.85Zm1.2,12.76c0,2.09,1.2,3.29,2.84,3.29s2.84-1.2,2.84-3.29v-12.73c0-2.09-1.2-3.29-2.84-3.29s-2.84,1.2-2.84,3.29v12.73Z"/>
              <path class="cls-1" d="m185.73,138.64v-.75l5.44-11.51c.72-1.49,1.14-2.75,1.14-4.63,0-2.06-1.17-3.23-2.78-3.23s-2.75,1.17-2.75,3.23v1.94h-1.14v-1.97c0-2.63,1.64-4.3,3.92-4.3s3.95,1.7,3.95,4.45c0,1.85-.63,3.56-1.37,5.11l-4.96,10.61h6.34v1.05h-7.77Z"/>
              <path class="cls-1" d="m202.65,131.2c-2.06-.99-3.23-2.33-3.23-4.3,0-2.12,1.7-3.68,3.83-3.68s3.71,1.49,3.71,3.62v.42h-1.14v-.33c0-1.55-1.14-2.6-2.6-2.6s-2.6,1.05-2.6,2.6c0,1.43.78,2.39,2.75,3.32,2.42,1.17,3.65,2.54,3.65,4.72,0,2.39-1.76,3.97-3.98,3.97s-3.86-1.52-3.86-3.92v-.42h1.14v.33c0,1.82,1.2,2.9,2.75,2.9s2.75-1.08,2.75-2.9c0-1.52-.84-2.63-3.17-3.74Z"/>
            </g>
            <rect class="cls-4" x="148.28" y="153.5" width="61.19" height=".06"/>
            <rect class="cls-5" x="148.28" y="153.43" width="55.55" height=".19"/>
            <g class="cls-7">
              <g>
                <rect class="cls-2" x="148.28" y="156.96" width="48.09" height="2.88"/>
                <rect class="cls-1" x="196.23" y="156.96" width=".29" height="2.88"/>
              </g>
              <g>
                <rect class="cls-2" x="148.28" y="160.79" width="48.09" height="1.44"/>
                <rect class="cls-1" x="196.23" y="160.79" width=".29" height="1.44"/>
              </g>
              <g>
                <rect class="cls-2" x="148.28" y="162.7" width="48.09" height="1.44"/>
                <rect class="cls-1" x="196.23" y="162.7" width=".29" height="1.44"/>
              </g>
              <g>
                <rect class="cls-2" x="148.28" y="165.11" width="48.09" height="4.88"/>
                <rect class="cls-1" x="196.23" y="165.11" width=".29" height="4.88"/>
              </g>
              <g>
                <rect class="cls-2" x="148.28" y="170.51" width="48.09" height="4.42"/>
                <rect class="cls-1" x="196.23" y="170.51" width=".29" height="4.42"/>
              </g>
            </g>
            <polygon class="cls-5" points="176.39 160.92 176.31 160.88 168.02 156.59 165.33 159.05 157.7 157.06 153.02 159.05 148.07 155.94 148.17 155.78 153.04 158.84 157.69 156.86 165.28 158.84 167.99 156.36 176.33 160.67 179.16 156.83 185.2 160.68 193.42 155.75 196.41 156.87 196.34 157.05 193.44 155.97 185.2 160.91 179.21 157.09 176.39 160.92"/>
          </g>
          <path class="cls-1" d="m208.79,178.88h-.1v-1.54h.1v1.54Zm-1.64,0h-.1v-1.54h.1v1.54Zm-1.64,0h-.1v-1.54h.1v1.54Zm-3.27,0h-.1v-1.54h.1v1.54Zm-1.64,0h-.1v-1.54h.1v1.54Zm-1.64,0h-.1v-1.54h.1v1.54Zm-1.64,0h-.1v-1.54h.1v1.54Zm-3.27,0h-.1v-1.54h.1v1.54Zm-1.64,0h-.1v-1.54h.1v1.54Zm-1.64,0h-.1v-1.54h.1v1.54Zm-1.64,0h-.1v-1.54h.1v1.54Zm-3.27,0h-.1v-1.54h.1v1.54Zm-1.64,0h-.1v-1.54h.1v1.54Zm-1.64,0h-.1v-1.54h.1v1.54Zm-1.64,0h-.1v-1.54h.1v1.54Zm-3.27,0h-.1v-1.54h.1v1.54Zm-1.64,0h-.1v-1.54h.1v1.54Zm-1.64,0h-.1v-1.54h.1v1.54Zm-1.64,0h-.1v-1.54h.1v1.54Zm-3.27,0h-.1v-1.54h.1v1.54Zm-1.64,0h-.1v-1.54h.1v1.54Zm-1.64,0h-.1v-1.54h.1v1.54Zm-1.64,0h-.1v-1.54h.1v1.54Zm-3.27,0h-.1v-1.54h.1v1.54Zm-1.64,0h-.1v-1.54h.1v1.54Zm-1.64,0h-.1v-1.54h.1v1.54Zm-1.64,0h-.1v-1.54h.1v1.54Zm47.43,0h-.1v-3.13h.1v3.13Zm-8.18,0h-.1v-3.13h.1v3.13Zm-8.18,0h-.1v-3.13h.1v3.13Zm-8.18,0h-.1v-3.13h.1v3.13Zm-8.18,0h-.1v-3.13h.1v3.13Zm-8.18,0h-.1v-3.13h.1v3.13Zm-8.18,0h-.1v-3.13h.1v3.13Zm-1.64,0h-.1v-1.54h.1v1.54Zm-1.64,0h-.1v-1.54h.1v1.54Zm-1.64,0h-.1v-1.54h.1v1.54Zm-1.64,0h-.1v-1.54h.1v1.54Z"/>
        </g>
        <g>
          <g>
            <path class="cls-3" d="m259.74,104.85v-8.23h.79v7.48h1.92v.75h-2.7Z"/>
            <path class="cls-3" d="m268.38,104.85h-.83l-.4-2.09h-1.75l-.4,2.09h-.79l1.7-8.23h.76l1.7,8.23Zm-2.88-2.74h1.54l-.76-4.01-.78,4.01Z"/>
            <path class="cls-3" d="m271.55,97.38v7.48h-.8v-7.48h-1.43v-.75h3.67v.75h-1.43Z"/>
            <path class="cls-3" d="m275.1,104.85v-8.23h2.88v.75h-2.09v2.83h1.74v.7h-1.74v3.19h2.15v.75h-2.94Z"/>
            <path class="cls-3" d="m280.99,98.44v6.42h-.72v-8.23h.76l2.22,6.28v-6.28h.72v8.23h-.72l-2.27-6.42Z"/>
            <path class="cls-3" d="m289.18,101.97h.76v1.16c0,1.12-.75,1.83-1.74,1.83s-1.75-.69-1.75-1.82v-4.78c0-1.13.78-1.86,1.78-1.86s1.72.69,1.72,1.81v1.07h-.76v-1.02c0-.7-.4-1.12-.96-1.12s-.98.41-.98,1.12v4.75c0,.72.41,1.12.98,1.12s.96-.4.96-1.12v-1.14Z"/>
            <path class="cls-3" d="m293.28,101.54l-1.56-4.91h.85l1.14,3.95,1.15-3.95h.8l-1.58,4.94v3.29h-.8v-3.32Z"/>
          </g>
          <g>
            <g>
              <path class="cls-1" d="m260.99,121.78c0-2.66,1.76-4.36,4.06-4.36s4.01,1.64,4.01,4.3v12.85c0,2.66-1.76,4.36-4.06,4.36s-4-1.64-4-4.3v-12.85Zm1.2,12.76c0,2.09,1.2,3.29,2.84,3.29s2.84-1.2,2.84-3.29v-12.73c0-2.09-1.2-3.29-2.84-3.29s-2.84,1.2-2.84,3.29v12.73Z"/>
              <path class="cls-1" d="m275.63,136.85c.57,0,1.05.48,1.05,1.05s-.48,1.05-1.05,1.05-1.05-.48-1.05-1.05.48-1.05,1.05-1.05Z"/>
              <path class="cls-1" d="m282.12,130.24c0-1.23.21-2.24.72-3.41l4-9.12h1.23l-3.8,8.52c.48-.42,1.14-.75,2.15-.75,2.3,0,3.95,1.64,3.95,4.39v4.6c0,2.75-1.76,4.45-4.15,4.45s-4.09-1.64-4.09-4.39v-4.3Zm1.2,4.21c0,2.18,1.2,3.38,2.93,3.38s2.93-1.2,2.93-3.38v-4.48c0-2.18-1.2-3.38-2.93-3.38s-2.93,1.2-2.93,3.38v4.48Z"/>
              <path class="cls-1" d="m302.2,118.76h-7.14v-1.05h8.37v.75l-5.83,20.17h-1.2l5.8-19.88Z"/>
              <path class="cls-1" d="m309.11,121.78c0-2.66,1.76-4.36,4.06-4.36s4.01,1.64,4.01,4.3v12.85c0,2.66-1.76,4.36-4.06,4.36s-4-1.64-4-4.3v-12.85Zm1.2,12.76c0,2.09,1.2,3.29,2.84,3.29s2.84-1.2,2.84-3.29v-12.73c0-2.09-1.2-3.29-2.84-3.29s-2.84,1.2-2.84,3.29v12.73Z"/>
            </g>
            <rect class="cls-4" x="259.2" y="153.5" width="61.19" height=".06"/>
            <rect class="cls-5" x="259.2" y="153.43" width="41.73" height=".19"/>
            <g class="cls-7">
              <g>
                <rect class="cls-2" x="259.2" y="160.42" width="41.73" height="2.32"/>
                <rect class="cls-1" x="300.78" y="160.42" width=".29" height="2.32"/>
              </g>
              <g>
                <rect class="cls-2" x="259.2" y="163.52" width="41.73" height="1.16"/>
                <rect class="cls-1" x="300.78" y="163.52" width=".29" height="1.16"/>
              </g>
              <g>
                <rect class="cls-2" x="259.2" y="165.05" width="41.73" height="1.16"/>
                <rect class="cls-1" x="300.78" y="165.05" width=".29" height="1.16"/>
              </g>
              <g>
                <rect class="cls-2" x="259.2" y="167" width="41.73" height="3.94"/>
                <rect class="cls-1" x="300.78" y="167" width=".29" height="3.94"/>
              </g>
              <g>
                <rect class="cls-2" x="259.2" y="171.36" width="41.73" height="3.57"/>
                <rect class="cls-1" x="300.78" y="171.36" width=".29" height="3.57"/>
              </g>
            </g>
            <polygon class="cls-5" points="291.79 160.54 289.78 158.5 287.46 160.54 285.92 159.49 282.06 159.48 278.84 158.47 277.21 159.97 273.88 159.42 272.24 160.53 269.79 159.43 268.28 160.53 268.23 160.51 265.63 159.42 259.21 160.51 259.18 160.33 265.65 159.22 265.67 159.23 268.25 160.31 269.76 159.21 272.22 160.31 273.84 159.22 273.88 159.23 277.15 159.77 278.79 158.26 278.85 158.27 282.1 159.3 285.98 159.3 286 159.31 287.45 160.3 289.79 158.23 291.82 160.3 293.43 159.22 296.68 160.31 298.33 158.23 300.99 160.34 300.87 160.5 298.36 158.5 296.74 160.53 293.45 159.43 291.79 160.54"/>
          </g>
          <path class="cls-1" d="m319.7,178.88h-.1v-1.54h.1v1.54Zm-1.64,0h-.1v-1.54h.1v1.54Zm-1.64,0h-.1v-1.54h.1v1.54Zm-3.27,0h-.1v-1.54h.1v1.54Zm-1.64,0h-.1v-1.54h.1v1.54Zm-1.64,0h-.1v-1.54h.1v1.54Zm-1.64,0h-.1v-1.54h.1v1.54Zm-3.27,0h-.1v-1.54h.1v1.54Zm-1.64,0h-.1v-1.54h.1v1.54Zm-1.64,0h-.1v-1.54h.1v1.54Zm-1.64,0h-.1v-1.54h.1v1.54Zm-3.27,0h-.1v-1.54h.1v1.54Zm-1.64,0h-.1v-1.54h.1v1.54Zm-1.64,0h-.1v-1.54h.1v1.54Zm-1.64,0h-.1v-1.54h.1v1.54Zm-3.27,0h-.1v-1.54h.1v1.54Zm-1.64,0h-.1v-1.54h.1v1.54Zm-1.64,0h-.1v-1.54h.1v1.54Zm-1.64,0h-.1v-1.54h.1v1.54Zm-3.27,0h-.1v-1.54h.1v1.54Zm-1.64,0h-.1v-1.54h.1v1.54Zm-1.64,0h-.1v-1.54h.1v1.54Zm-1.64,0h-.1v-1.54h.1v1.54Zm-3.27,0h-.1v-1.54h.1v1.54Zm-1.64,0h-.1v-1.54h.1v1.54Zm-1.64,0h-.1v-1.54h.1v1.54Zm-1.64,0h-.1v-1.54h.1v1.54Zm47.43,0h-.1v-3.13h.1v3.13Zm-8.18,0h-.1v-3.13h.1v3.13Zm-8.18,0h-.1v-3.13h.1v3.13Zm-8.18,0h-.1v-3.13h.1v3.13Zm-8.18,0h-.1v-3.13h.1v3.13Zm-8.18,0h-.1v-3.13h.1v3.13Zm-8.18,0h-.1v-3.13h.1v3.13Zm-1.64,0h-.1v-1.54h.1v1.54Zm-1.64,0h-.1v-1.54h.1v1.54Zm-1.64,0h-.1v-1.54h.1v1.54Zm-1.64,0h-.1v-1.54h.1v1.54Z"/>
        </g>
        <path class="cls-3" d="m32.95,335.44c-.3,0-.53-.09-.69-.28-.17-.19-.25-.46-.25-.82v-.6c0-.35.08-.62.25-.81.17-.19.4-.29.69-.29s.53.1.7.29c.17.19.25.46.25.81v.6c0,.36-.08.63-.25.82-.17.19-.4.28-.7.28Zm0-.29c.21,0,.36-.07.47-.22.1-.15.16-.35.16-.61v-.55c0-.25-.05-.45-.16-.6-.1-.15-.26-.23-.47-.23s-.36.08-.47.23c-.1.15-.16.35-.16.6v.55c0,.26.05.47.16.61.1.15.26.22.47.22Zm0-.86c-.06,0-.12-.02-.17-.07-.05-.05-.08-.11-.08-.17s.02-.12.08-.17c.05-.05.11-.07.17-.07s.12.02.17.07c.05.05.07.11.07.17s-.02.12-.07.17c-.05.05-.11.07-.17.07Z"/>
        <g>
          <path class="cls-3" d="m71.94,335.38v-.3h.76v-2.25h-.05l-.44,1.01h-.32v-.02l.5-1.13h.63v2.39h.76v.3h-1.85Z"/>
          <path class="cls-3" d="m75.59,335.44c-.3,0-.53-.09-.69-.28-.17-.19-.25-.46-.25-.82v-.6c0-.35.08-.62.25-.81s.4-.29.69-.29.53.1.7.29.25.46.25.81v.6c0,.36-.08.63-.25.82-.17.19-.4.28-.7.28Zm0-.29c.21,0,.36-.07.47-.22.1-.15.16-.35.16-.61v-.55c0-.25-.05-.45-.16-.6-.1-.15-.26-.23-.47-.23s-.36.08-.47.23c-.1.15-.16.35-.16.6v.55c0,.26.05.47.16.61.1.15.26.22.47.22Zm0-.86c-.06,0-.12-.02-.17-.08-.05-.05-.08-.11-.08-.17s.03-.12.08-.17.11-.07.17-.07.12.02.17.07c.05.05.07.11.07.17s-.02.12-.07.17c-.05.05-.11.08-.17.08Z"/>
        </g>
        <g>
          <path class="cls-3" d="m113.22,335.38v-.46c0-.16.04-.3.11-.41.07-.11.17-.2.3-.26.13-.07.29-.12.47-.16.23-.05.39-.12.49-.22.1-.1.15-.21.15-.35v-.02c0-.09-.02-.18-.06-.27-.04-.09-.11-.16-.19-.21-.09-.06-.2-.08-.34-.08-.2,0-.35.06-.46.18-.11.12-.17.28-.17.48v.17h-.32v-.19c0-.16.04-.32.11-.46.07-.14.18-.26.32-.35.14-.09.31-.13.52-.13s.38.04.52.12.24.18.31.31c.07.13.1.26.1.4v.07c0,.2-.06.38-.19.52s-.33.25-.62.31c-.24.05-.42.12-.54.21-.12.09-.18.22-.18.39v.12h1.5v.3h-1.82Z"/>
          <path class="cls-3" d="m116.87,335.44c-.3,0-.53-.09-.69-.28-.17-.19-.25-.46-.25-.82v-.6c0-.35.08-.62.25-.81.17-.19.4-.29.69-.29s.53.1.7.29c.17.19.25.46.25.81v.6c0,.36-.08.63-.25.82-.17.19-.4.28-.7.28Zm0-.29c.21,0,.36-.07.47-.22.1-.15.16-.35.16-.61v-.55c0-.25-.05-.45-.16-.6-.1-.15-.26-.23-.47-.23s-.36.08-.47.23c-.1.15-.16.35-.16.6v.55c0,.26.05.47.16.61.1.15.26.22.47.22Zm0-.86c-.06,0-.12-.02-.17-.07-.05-.05-.08-.11-.08-.17s.02-.12.08-.17c.05-.05.11-.07.17-.07s.12.02.17.07c.05.05.07.11.07.17s-.02.12-.07.17c-.05.05-.11.07-.17.07Z"/>
        </g>
        <g>
          <path class="cls-3" d="m155.5,335.44c-.2,0-.38-.04-.52-.12s-.26-.19-.34-.32c-.08-.13-.12-.28-.12-.45v-.21h.32v.18c0,.19.06.34.18.45.12.11.28.16.46.16.11,0,.21-.03.31-.08.09-.05.16-.12.22-.2.05-.08.08-.18.08-.28v-.02c0-.16-.05-.29-.15-.38s-.23-.14-.38-.14h-.36v-.45l.88-.56v-.05h-1.52v-.3h1.8v.49l-.88.56v.05h.15c.14,0,.26.03.38.09.12.06.22.14.29.26s.11.25.11.41v.07c0,.15-.04.29-.12.42-.08.12-.19.22-.33.29-.14.07-.3.11-.47.11Z"/>
          <path class="cls-3" d="m158.2,335.44c-.3,0-.53-.09-.69-.28-.17-.19-.25-.46-.25-.82v-.6c0-.35.08-.62.25-.81.17-.19.4-.29.69-.29s.53.1.7.29c.17.19.25.46.25.81v.6c0,.36-.08.63-.25.82-.17.19-.4.28-.7.28Zm0-.29c.21,0,.36-.07.47-.22.1-.15.16-.35.16-.61v-.55c0-.25-.05-.45-.16-.6-.1-.15-.26-.23-.47-.23s-.36.08-.47.23c-.1.15-.16.35-.16.6v.55c0,.26.05.47.16.61.1.15.26.22.47.22Zm0-.86c-.06,0-.12-.02-.17-.07-.05-.05-.08-.11-.08-.17s.02-.12.08-.17c.05-.05.11-.07.17-.07s.12.02.17.07c.05.05.07.11.07.17s-.02.12-.07.17c-.05.05-.11.07-.17.07Z"/>
        </g>
        <g>
          <path class="cls-3" d="m197.87,335.38v-.51h-1.25v-.45l.94-1.74h.63v1.89h.42v.3h-.42v.51h-.32Zm-.97-.81h.97v-1.75h-.05l-.92,1.7v.05Z"/>
          <path class="cls-3" d="m200.35,335.44c-.3,0-.53-.09-.69-.28-.17-.19-.25-.46-.25-.82v-.6c0-.35.08-.62.25-.81.17-.19.4-.29.69-.29s.53.1.7.29c.17.19.25.46.25.81v.6c0,.36-.08.63-.25.82-.17.19-.4.28-.7.28Zm0-.29c.21,0,.36-.07.47-.22.1-.15.16-.35.16-.61v-.55c0-.25-.05-.45-.16-.6-.1-.15-.26-.23-.47-.23s-.36.08-.47.23c-.1.15-.16.35-.16.6v.55c0,.26.05.47.16.61.1.15.26.22.47.22Zm0-.86c-.06,0-.12-.02-.17-.07-.05-.05-.08-.11-.08-.17s.02-.12.08-.17c.05-.05.11-.07.17-.07s.12.02.17.07c.05.05.07.11.07.17s-.02.12-.07.17c-.05.05-.11.07-.17.07Z"/>
        </g>
        <g>
          <path class="cls-3" d="m239.19,335.44c-.21,0-.38-.04-.53-.12-.15-.08-.25-.19-.33-.33-.07-.14-.11-.29-.11-.47v-.11h.32v.08c0,.21.06.37.18.48.12.11.28.16.47.16.14,0,.25-.03.35-.1.09-.06.16-.15.21-.25s.07-.22.07-.34v-.02c0-.1-.02-.2-.07-.29s-.11-.15-.19-.21-.18-.08-.28-.08-.2.03-.27.08c-.07.05-.11.11-.13.17h-.61v-1.42h1.69v.3h-1.37v.96h.05c.05-.11.14-.2.24-.28.11-.08.25-.12.42-.12s.31.04.44.11c.13.07.23.17.3.3s.11.28.11.45v.07c0,.17-.04.33-.11.47-.07.15-.18.26-.32.35-.14.09-.31.13-.52.13Z"/>
          <path class="cls-3" d="m241.88,335.44c-.3,0-.53-.09-.69-.28-.17-.19-.25-.46-.25-.82v-.6c0-.35.08-.62.25-.81s.4-.29.69-.29.53.1.7.29c.17.19.25.46.25.81v.6c0,.36-.08.63-.25.82-.17.19-.4.28-.7.28Zm0-.29c.21,0,.36-.07.47-.22s.16-.35.16-.61v-.55c0-.25-.05-.45-.16-.6s-.26-.23-.47-.23-.36.08-.47.23-.16.35-.16.6v.55c0,.26.05.47.16.61s.26.22.47.22Zm0-.86c-.06,0-.12-.02-.17-.08-.05-.05-.08-.11-.08-.17s.02-.12.08-.17c.05-.05.11-.07.17-.07s.12.02.17.07c.05.05.07.11.07.17s-.02.12-.07.17c-.05.05-.11.08-.17.08Z"/>
        </g>
        <g>
          <path class="cls-3" d="m281.19,335.44c-.18,0-.34-.04-.48-.11-.14-.08-.25-.18-.33-.31-.08-.13-.12-.29-.12-.46v-.98c0-.19.04-.35.13-.49.08-.14.2-.25.34-.32.14-.08.29-.11.46-.11s.33.03.46.1.24.16.32.29c.08.13.12.27.12.45h-.32c0-.17-.05-.3-.15-.4s-.25-.15-.43-.15c-.17,0-.31.06-.43.18-.11.12-.17.28-.17.47v.4h.05c.06-.11.15-.2.26-.27.11-.06.24-.1.38-.1.17,0,.31.04.44.11s.23.17.3.3c.07.13.11.29.11.48v.05c0,.18-.04.33-.12.47-.08.13-.19.24-.33.32s-.3.12-.48.12Zm0-.28c.19,0,.34-.06.45-.17.11-.11.17-.26.17-.44v-.05c0-.12-.03-.23-.08-.32s-.12-.16-.22-.21c-.09-.05-.2-.08-.32-.08s-.22.03-.31.08-.17.12-.22.21c-.05.09-.08.19-.08.3v.07c0,.17.06.31.17.43.11.11.26.17.45.17Z"/>
          <path class="cls-3" d="m283.93,335.44c-.3,0-.53-.09-.69-.28-.17-.19-.25-.46-.25-.82v-.6c0-.35.08-.62.25-.81.17-.19.4-.29.69-.29s.53.1.7.29c.17.19.25.46.25.81v.6c0,.36-.08.63-.25.82-.17.19-.4.28-.7.28Zm0-.29c.21,0,.36-.07.47-.22.1-.15.16-.35.16-.61v-.55c0-.25-.05-.45-.16-.6-.1-.15-.26-.23-.47-.23s-.36.08-.47.23c-.1.15-.16.35-.16.6v.55c0,.26.05.47.16.61.1.15.26.22.47.22Zm0-.86c-.06,0-.12-.02-.17-.07-.05-.05-.08-.11-.08-.17s.02-.12.08-.17c.05-.05.11-.07.17-.07s.12.02.17.07c.05.05.07.11.07.17s-.02.12-.07.17c-.05.05-.11.07-.17.07Z"/>
        </g>
        <g>
          <path class="cls-3" d="m321.69,335.38v-.14c0-.09.02-.18.06-.26.04-.08.1-.18.18-.3l1.1-1.65v-.05h-1.52v-.3h1.8v.47l-1.14,1.72c-.05.08-.1.15-.12.21-.03.06-.04.12-.04.18v.12h-.32Z"/>
          <path class="cls-3" d="m325.15,335.44c-.3,0-.53-.09-.69-.28-.17-.19-.25-.46-.25-.82v-.6c0-.35.08-.62.25-.81.17-.19.4-.29.69-.29s.53.1.7.29c.17.19.25.46.25.81v.6c0,.36-.08.63-.25.82-.17.19-.4.28-.7.28Zm0-.29c.21,0,.36-.07.47-.22.1-.15.16-.35.16-.61v-.55c0-.25-.05-.45-.16-.6-.1-.15-.26-.23-.47-.23s-.36.08-.47.23c-.1.15-.16.35-.16.6v.55c0,.26.05.47.16.61.1.15.26.22.47.22Zm0-.86c-.06,0-.12-.02-.17-.07-.05-.05-.08-.11-.08-.17s.02-.12.08-.17c.05-.05.11-.07.17-.07s.12.02.17.07c.05.05.07.11.07.17s-.02.12-.07.17c-.05.05-.11.07-.17.07Z"/>
        </g>
        <g>
          <path class="cls-3" d="m19.54,309.99v-.3h.76v-2.25h-.05l-.44,1.01h-.32v-.02l.5-1.13h.63v2.39h.76v.3h-1.85Z"/>
          <path class="cls-3" d="m23.19,310.05c-.3,0-.53-.09-.69-.28-.17-.19-.25-.46-.25-.82v-.6c0-.35.08-.62.25-.81.17-.19.4-.29.69-.29s.53.1.7.29c.17.19.25.46.25.81v.6c0,.36-.08.63-.25.82-.17.19-.4.28-.7.28Zm0-.29c.21,0,.36-.07.47-.22.1-.15.16-.35.16-.61v-.55c0-.25-.05-.45-.16-.6-.1-.15-.26-.23-.47-.23s-.36.08-.47.23c-.1.15-.16.35-.16.6v.55c0,.26.05.47.16.61.1.15.26.22.47.22Zm0-.86c-.06,0-.12-.02-.17-.07-.05-.05-.08-.11-.08-.17s.02-.12.08-.17c.05-.05.11-.07.17-.07s.12.02.17.07c.05.05.07.11.07.17s-.02.12-.07.17c-.05.05-.11.07-.17.07Z"/>
          <path class="cls-3" d="m25.93,310.05c-.3,0-.53-.09-.69-.28-.17-.19-.25-.46-.25-.82v-.6c0-.35.08-.62.25-.81.17-.19.4-.29.69-.29s.53.1.7.29c.17.19.25.46.25.81v.6c0,.36-.08.63-.25.82-.17.19-.4.28-.7.28Zm0-.29c.21,0,.36-.07.47-.22.1-.15.16-.35.16-.61v-.55c0-.25-.05-.45-.16-.6-.1-.15-.26-.23-.47-.23s-.36.08-.47.23c-.1.15-.16.35-.16.6v.55c0,.26.05.47.16.61.1.15.26.22.47.22Zm0-.86c-.06,0-.12-.02-.17-.07-.05-.05-.08-.11-.08-.17s.02-.12.08-.17c.05-.05.11-.07.17-.07s.12.02.17.07c.05.05.07.11.07.17s-.02.12-.07.17c-.05.05-.11.07-.17.07Z"/>
        </g>
        <g>
          <path class="cls-3" d="m19.54,290.46v-.46c0-.16.04-.3.11-.41.07-.11.17-.2.3-.26.13-.07.29-.12.47-.16.23-.05.39-.12.49-.22.1-.1.15-.21.15-.35v-.02c0-.09-.02-.18-.06-.27-.04-.09-.11-.16-.19-.21-.09-.06-.2-.08-.34-.08-.2,0-.35.06-.46.18-.11.12-.17.28-.17.48v.17h-.32v-.19c0-.16.04-.32.11-.46.07-.14.18-.26.32-.35.14-.09.31-.13.52-.13s.38.04.52.12.24.18.31.31c.07.13.1.26.1.4v.07c0,.2-.06.38-.19.52s-.33.25-.62.31c-.24.05-.42.12-.54.21-.12.09-.18.22-.18.39v.12h1.5v.3h-1.82Z"/>
          <path class="cls-3" d="m23.19,290.51c-.3,0-.53-.09-.69-.28-.17-.19-.25-.46-.25-.82v-.6c0-.35.08-.62.25-.81.17-.19.4-.29.69-.29s.53.1.7.29c.17.19.25.46.25.81v.6c0,.36-.08.63-.25.82-.17.19-.4.28-.7.28Zm0-.29c.21,0,.36-.07.47-.22.1-.15.16-.35.16-.61v-.55c0-.25-.05-.45-.16-.6-.1-.15-.26-.23-.47-.23s-.36.08-.47.23c-.1.15-.16.35-.16.6v.55c0,.26.05.47.16.61.1.15.26.22.47.22Zm0-.86c-.06,0-.12-.02-.17-.07-.05-.05-.08-.11-.08-.17s.02-.12.08-.17c.05-.05.11-.07.17-.07s.12.02.17.07c.05.05.07.11.07.17s-.02.12-.07.17c-.05.05-.11.07-.17.07Z"/>
          <path class="cls-3" d="m25.93,290.51c-.3,0-.53-.09-.69-.28-.17-.19-.25-.46-.25-.82v-.6c0-.35.08-.62.25-.81.17-.19.4-.29.69-.29s.53.1.7.29c.17.19.25.46.25.81v.6c0,.36-.08.63-.25.82-.17.19-.4.28-.7.28Zm0-.29c.21,0,.36-.07.47-.22.1-.15.16-.35.16-.61v-.55c0-.25-.05-.45-.16-.6-.1-.15-.26-.23-.47-.23s-.36.08-.47.23c-.1.15-.16.35-.16.6v.55c0,.26.05.47.16.61.1.15.26.22.47.22Zm0-.86c-.06,0-.12-.02-.17-.07-.05-.05-.08-.11-.08-.17s.02-.12.08-.17c.05-.05.11-.07.17-.07s.12.02.17.07c.05.05.07.11.07.17s-.02.12-.07.17c-.05.05-.11.07-.17.07Z"/>
        </g>
        <g>
          <path class="cls-3" d="m20.49,271.19c-.2,0-.38-.04-.52-.12-.15-.08-.26-.19-.34-.32-.08-.13-.12-.28-.12-.45v-.21h.32v.18c0,.19.06.34.18.45.12.11.28.16.46.16.11,0,.21-.02.31-.08.09-.05.16-.12.22-.2s.08-.18.08-.28v-.02c0-.16-.05-.29-.15-.38s-.23-.14-.38-.14h-.36v-.45l.88-.56v-.05h-1.52v-.3h1.8v.49l-.88.56v.05h.15c.14,0,.26.03.38.09.12.06.22.14.29.26.08.11.11.25.11.41v.07c0,.15-.04.29-.12.42-.08.12-.19.22-.33.29-.14.07-.3.11-.47.11Z"/>
          <path class="cls-3" d="m23.19,271.19c-.3,0-.53-.09-.69-.28s-.25-.46-.25-.82v-.6c0-.35.08-.62.25-.81.17-.19.4-.29.69-.29s.53.1.7.29c.17.19.25.46.25.81v.6c0,.36-.08.63-.25.82-.17.19-.4.28-.7.28Zm0-.29c.21,0,.36-.07.47-.22.1-.15.16-.35.16-.61v-.55c0-.25-.05-.45-.16-.6-.1-.15-.26-.23-.47-.23s-.36.08-.47.23c-.1.15-.16.35-.16.6v.55c0,.26.05.47.16.61.1.15.26.22.47.22Zm0-.86c-.06,0-.12-.02-.17-.07-.05-.05-.08-.11-.08-.17s.02-.12.08-.17c.05-.05.11-.07.17-.07s.12.02.17.07c.05.05.07.11.07.17s-.02.12-.07.17c-.05.05-.11.07-.17.07Z"/>
          <path class="cls-3" d="m25.93,271.19c-.3,0-.53-.09-.69-.28s-.25-.46-.25-.82v-.6c0-.35.08-.62.25-.81.17-.19.4-.29.69-.29s.53.1.7.29c.17.19.25.46.25.81v.6c0,.36-.08.63-.25.82-.17.19-.4.28-.7.28Zm0-.29c.21,0,.36-.07.47-.22.1-.15.16-.35.16-.61v-.55c0-.25-.05-.45-.16-.6-.1-.15-.26-.23-.47-.23s-.36.08-.47.23c-.1.15-.16.35-.16.6v.55c0,.26.05.47.16.61.1.15.26.22.47.22Zm0-.86c-.06,0-.12-.02-.17-.07-.05-.05-.08-.11-.08-.17s.02-.12.08-.17c.05-.05.11-.07.17-.07s.12.02.17.07c.05.05.07.11.07.17s-.02.12-.07.17c-.05.05-.11.07-.17.07Z"/>
        </g>
        <g>
          <path class="cls-3" d="m20.7,252.19v-.51h-1.25v-.45l.94-1.74h.63v1.89h.42v.3h-.42v.51h-.32Zm-.97-.81h.97v-1.75h-.05l-.92,1.7v.05Z"/>
          <path class="cls-3" d="m23.18,252.24c-.3,0-.53-.09-.69-.28-.17-.19-.25-.46-.25-.82v-.6c0-.35.08-.62.25-.81.17-.19.4-.29.69-.29s.53.1.7.29c.17.19.25.46.25.81v.6c0,.36-.08.63-.25.82-.17.19-.4.28-.7.28Zm0-.29c.21,0,.36-.07.47-.22.1-.15.16-.35.16-.61v-.55c0-.25-.05-.45-.16-.6-.1-.15-.26-.23-.47-.23s-.36.08-.47.23c-.1.15-.16.35-.16.6v.55c0,.26.05.47.16.61.1.15.26.22.47.22Zm0-.86c-.06,0-.12-.02-.17-.07-.05-.05-.08-.11-.08-.17s.02-.12.08-.17c.05-.05.11-.07.17-.07s.12.02.17.07c.05.05.07.11.07.17s-.02.12-.07.17c-.05.05-.11.07-.17.07Z"/>
          <path class="cls-3" d="m25.92,252.24c-.3,0-.53-.09-.69-.28-.17-.19-.25-.46-.25-.82v-.6c0-.35.08-.62.25-.81.17-.19.4-.29.69-.29s.53.1.7.29c.17.19.25.46.25.81v.6c0,.36-.08.63-.25.82-.17.19-.4.28-.7.28Zm0-.29c.21,0,.36-.07.47-.22.1-.15.16-.35.16-.61v-.55c0-.25-.05-.45-.16-.6-.1-.15-.26-.23-.47-.23s-.36.08-.47.23c-.1.15-.16.35-.16.6v.55c0,.26.05.47.16.61.1.15.26.22.47.22Zm0-.86c-.06,0-.12-.02-.17-.07-.05-.05-.08-.11-.08-.17s.02-.12.08-.17c.05-.05.11-.07.17-.07s.12.02.17.07c.05.05.07.11.07.17s-.02.12-.07.17c-.05.05-.11.07-.17.07Z"/>
        </g>
      </g>
      <g>
        <path class="cls-1" d="m519.96,530.65H0V0h519.96v530.65Zm-519.77-.19h519.58V.19H.19v530.27Z"/>
        <g>
          <path class="cls-1" d="m519.96,530.65h-109.02v-17.5h109.02v17.5Zm-108.82-.19h108.63v-17.11h-108.63v17.11Z"/>
          <rect class="cls-1" x=".1" y="17.1" width="519.77" height=".19"/>
          <g>
            <rect class="cls-1" x="502.34" y=".1" width=".19" height="17.1"/>
            <rect class="cls-1" x="484.91" y=".1" width=".19" height="17.1"/>
            <rect class="cls-1" x="467.48" y=".1" width=".19" height="17.1"/>
          </g>
          <g>
            <polygon class="cls-4" points="508.04 12.12 507.97 12.05 514.86 5.17 514.92 5.24 508.04 12.12"/>
            <polygon class="cls-4" points="514.86 12.12 507.97 5.24 508.04 5.17 514.92 12.05 514.86 12.12"/>
          </g>
          <rect class="cls-1" x="472.62" y="8.48" width="6.99" height=".19"/>
          <rect class="cls-1" x="472.69" y="8.62" width="6.99" height=".19"/>
          <rect class="cls-1" x="494.39" y="5.08" width=".19" height="6.99"/>
          <g>
            <path class="cls-3" d="m419.04,524.41c-.56,0-1-.18-1.31-.54-.32-.36-.48-.87-.48-1.55v-1.14c0-.66.16-1.17.48-1.53.32-.37.76-.55,1.31-.55.39,0,.72.08.98.25.27.16.47.39.6.67s.2.59.2.94v.09h-.61v-.09c0-.22-.05-.43-.13-.63-.08-.19-.21-.35-.38-.47-.17-.12-.4-.18-.67-.18-.39,0-.69.14-.89.43-.2.29-.3.66-.3,1.13v1.05c0,.5.1.88.3,1.15.2.27.49.41.89.41.28,0,.5-.06.68-.18.17-.12.3-.28.38-.47.08-.19.12-.4.12-.63v-.09h.61v.09c0,.34-.07.66-.2.94s-.34.5-.6.67-.59.25-.98.25Z"/>
            <path class="cls-3" d="m422.6,524.3v-5.1h.61v4.53h2.67v.57h-3.28Z"/>
            <path class="cls-3" d="m427.77,524.3v-.57h1.31v-3.96h-1.31v-.57h3.23v.57h-1.31v3.96h1.31v.57h-3.23Z"/>
            <path class="cls-3" d="m432.87,524.3v-5.1h1.22l1.47,4.84h.09v-4.84h.61v5.1h-1.22l-1.47-4.84h-.09v4.84h-.61Z"/>
            <path class="cls-3" d="m438.14,524.3v-.57h1.31v-3.96h-1.31v-.57h3.23v.57h-1.31v3.96h1.31v.57h-3.23Z"/>
            <path class="cls-3" d="m444.97,524.41c-.56,0-1-.18-1.31-.54-.32-.36-.48-.87-.48-1.55v-1.14c0-.66.16-1.17.48-1.53.32-.37.76-.55,1.31-.55.39,0,.72.08.98.25.27.16.47.39.6.67s.2.59.2.94v.09h-.61v-.09c0-.22-.05-.43-.13-.63-.08-.19-.21-.35-.38-.47-.17-.12-.4-.18-.67-.18-.39,0-.69.14-.89.43-.2.29-.3.66-.3,1.13v1.05c0,.5.1.88.3,1.15.2.27.49.41.89.41.28,0,.5-.06.68-.18.17-.12.3-.28.38-.47.08-.19.12-.4.12-.63v-.09h.61v.09c0,.34-.07.66-.2.94s-.34.5-.6.67-.59.25-.98.25Z"/>
            <path class="cls-3" d="m448.01,524.3l1.54-5.1h1.15l1.54,5.1h-.66l-.37-1.27h-2.18l-.37,1.27h-.66Zm1.19-1.84h1.85l-.88-3h-.09l-.88,3Z"/>
            <path class="cls-3" d="m453.72,524.3v-5.1h.61v4.53h2.67v.57h-3.28Z"/>
            <path class="cls-3" d="m464.14,524.3v-5.1h3.09v.57h-2.48v1.69h2.43v.57h-2.43v1.7h2.52v.57h-3.13Z"/>
            <path class="cls-3" d="m468.99,524.3l1.27-2.51v-.09l-1.27-2.5h.67l1.14,2.26h.13l1.14-2.26h.67l-1.27,2.5v.09l1.27,2.51h-.67l-1.14-2.27h-.13l-1.14,2.27h-.67Z"/>
            <path class="cls-3" d="m474.44,524.3v-5.1h1.82c.35,0,.64.06.87.19.23.13.4.3.52.51.11.21.17.44.17.68v.22c0,.25-.06.48-.17.69-.12.21-.29.38-.52.51-.23.13-.52.19-.86.19h-1.21v2.1h-.61Zm.61-2.67h1.14c.68,0,1.02-.29,1.02-.87v-.13c0-.26-.08-.46-.25-.62-.17-.16-.42-.24-.77-.24h-1.14v1.86Z"/>
            <path class="cls-3" d="m479.12,524.3l1.54-5.1h1.15l1.54,5.1h-.66l-.37-1.27h-2.18l-.37,1.27h-.66Zm1.19-1.84h1.85l-.88-3h-.09l-.88,3Z"/>
            <path class="cls-3" d="m484.73,524.3v-5.1h1.22l1.47,4.84h.09v-4.84h.61v5.1h-1.22l-1.47-4.84h-.09v4.84h-.61Z"/>
            <path class="cls-3" d="m491.71,524.41c-.44,0-.8-.08-1.1-.24s-.52-.38-.67-.67-.23-.6-.23-.95v-.22h.61v.17c0,.44.12.78.37,1,.25.23.59.34,1.02.34.38,0,.66-.08.86-.26.19-.17.29-.39.29-.66v-.04c0-.27-.1-.47-.3-.61-.2-.14-.52-.24-.96-.31-.51-.07-.92-.22-1.22-.43-.3-.22-.46-.54-.46-.98v-.09c0-.27.07-.5.21-.7s.34-.36.59-.48.54-.17.87-.17c.38,0,.71.07.98.21s.48.33.62.56c.14.23.21.48.21.76v.31h-.61v-.26c0-.22-.06-.41-.17-.56-.11-.15-.26-.26-.44-.33s-.38-.11-.6-.11c-.18,0-.36.03-.52.09s-.29.15-.39.27c-.1.12-.15.27-.15.44v.04c0,.28.11.49.34.62.23.13.57.23,1.03.3.53.08.93.23,1.18.47.25.23.38.54.38.93v.09c0,.44-.15.8-.45,1.07-.3.27-.73.41-1.31.41Z"/>
            <path class="cls-3" d="m495.18,524.3v-.57h1.31v-3.96h-1.31v-.57h3.23v.57h-1.31v3.96h1.31v.57h-3.23Z"/>
            <path class="cls-3" d="m501.98,524.41c-.56,0-1-.18-1.31-.54-.32-.36-.48-.87-.48-1.55v-1.14c0-.66.16-1.17.48-1.53.32-.37.76-.55,1.31-.55s1,.18,1.32.55.47.88.47,1.53v1.14c0,.67-.16,1.19-.47,1.55s-.75.54-1.32.54Zm0-.57c.39,0,.69-.14.88-.41.2-.27.3-.66.3-1.15v-1.05c0-.47-.1-.84-.3-1.13-.2-.29-.49-.43-.88-.43s-.69.14-.89.43c-.2.29-.3.66-.3,1.13v1.05c0,.5.1.88.3,1.15.2.27.49.41.89.41Z"/>
            <path class="cls-3" d="m505.47,524.3v-5.1h1.22l1.47,4.84h.09v-4.84h.61v5.1h-1.22l-1.47-4.84h-.09v4.84h-.61Z"/>
          </g>
          <g>
            <path class="cls-6" d="m10.51,11.76c-.4,0-.75-.07-1.07-.21-.32-.14-.58-.34-.78-.59s-.33-.56-.39-.92l.94-.14c.08.32.25.57.5.75.25.18.54.26.86.26.19,0,.38-.03.55-.09.17-.06.31-.15.42-.26.11-.12.16-.26.16-.43,0-.08-.01-.15-.04-.21-.03-.06-.06-.12-.11-.17-.05-.05-.11-.1-.19-.14-.08-.04-.17-.08-.27-.11l-1.4-.41c-.12-.03-.25-.08-.39-.14s-.27-.14-.4-.25c-.12-.1-.23-.24-.31-.4-.08-.16-.12-.36-.12-.6,0-.35.09-.64.27-.88.18-.24.42-.42.72-.53.3-.12.63-.18,1-.17.37,0,.7.07.99.19s.54.3.73.54c.2.24.33.52.41.86l-.98.17c-.04-.19-.12-.35-.23-.49-.11-.13-.25-.24-.42-.31-.16-.07-.34-.11-.53-.11-.18,0-.35.02-.5.08-.15.06-.28.14-.37.24-.09.11-.14.23-.14.37,0,.13.04.24.12.33s.18.15.3.2c.12.05.24.09.36.12l.97.27c.13.04.28.08.45.14.17.06.33.14.48.25.15.11.28.25.38.43.1.18.15.4.15.67s-.06.53-.18.74-.27.39-.47.53c-.2.14-.43.25-.68.32s-.52.11-.8.11Z"/>
            <path class="cls-6" d="m16.05,11.65v-2.22l-1.85-3.2h1.06l1.25,2.16,1.24-2.16h1.06l-1.84,3.2v2.22h-.92Z"/>
            <path class="cls-6" d="m22.63,11.76c-.4,0-.75-.07-1.07-.21-.32-.14-.58-.34-.78-.59s-.33-.56-.39-.92l.94-.14c.08.32.25.57.5.75.25.18.54.26.86.26.19,0,.38-.03.55-.09.17-.06.31-.15.42-.26.11-.12.16-.26.16-.43,0-.08-.01-.15-.04-.21-.03-.06-.06-.12-.11-.17-.05-.05-.11-.1-.19-.14-.08-.04-.17-.08-.27-.11l-1.4-.41c-.12-.03-.25-.08-.39-.14s-.27-.14-.4-.25c-.12-.1-.23-.24-.31-.4-.08-.16-.12-.36-.12-.6,0-.35.09-.64.27-.88.18-.24.42-.42.72-.53.3-.12.63-.18,1-.17.37,0,.7.07.99.19s.54.3.73.54c.2.24.33.52.41.86l-.98.17c-.04-.19-.12-.35-.23-.49-.11-.13-.25-.24-.42-.31-.16-.07-.34-.11-.53-.11-.18,0-.35.02-.5.08-.15.06-.28.14-.37.24-.09.11-.14.23-.14.37,0,.13.04.24.12.33s.18.15.3.2c.12.05.24.09.36.12l.97.27c.13.04.28.08.45.14.17.06.33.14.48.25.15.11.28.25.38.43.1.18.15.4.15.67s-.06.53-.18.74-.27.39-.47.53c-.2.14-.43.25-.68.32s-.52.11-.8.11Z"/>
            <path class="cls-6" d="m28.39,11.65v-4.57h-1.76v-.85h4.42v.85h-1.76v4.57h-.91Z"/>
            <path class="cls-6" d="m33.17,11.65v-5.43h3.5v.85h-2.6v1.34h2.14v.85h-2.14v1.53h2.6v.85h-3.5Z"/>
            <path class="cls-6" d="m39.08,11.65v-5.43h.82l1.88,3.84,1.88-3.84h.82v5.43h-.85v-3.48l-1.67,3.48h-.36l-1.66-3.48v3.48h-.85Z"/>
            <path class="cls-6" d="m49.67,11.65l1.71-5.43h1.33l1.71,5.43h-.93l-1.55-4.87h.2l-1.53,4.87h-.93Zm.95-1.18v-.85h2.85v.85h-2.85Z"/>
            <path class="cls-6" d="m56.61,11.65v-5.43h.92l2.52,3.82v-3.82h.92v5.43h-.92l-2.52-3.82v3.82h-.92Z"/>
            <path class="cls-6" d="m63.15,11.65l1.71-5.43h1.33l1.71,5.43h-.93l-1.55-4.87h.2l-1.53,4.87h-.93Zm.95-1.18v-.85h2.85v.85h-2.85Z"/>
            <path class="cls-6" d="m70.16,11.65v-5.43h.91v4.57h2.4v.85h-3.3Z"/>
            <path class="cls-6" d="m76.18,11.65v-2.22l-1.85-3.2h1.06l1.25,2.16,1.24-2.16h1.06l-1.84,3.2v2.22h-.92Z"/>
            <path class="cls-6" d="m82.51,11.65v-4.57h-1.76v-.85h4.42v.85h-1.76v4.57h-.91Z"/>
            <path class="cls-6" d="m87.36,11.65v-5.43h.91v5.43h-.91Z"/>
            <path class="cls-6" d="m93.2,11.76c-.54,0-1.01-.12-1.39-.36-.39-.24-.68-.57-.89-.99-.21-.42-.31-.92-.31-1.48s.1-1.05.31-1.48c.21-.42.5-.76.89-.99.39-.24.85-.36,1.39-.36.63,0,1.15.16,1.56.47.42.31.71.73.88,1.26l-.92.25c-.11-.35-.29-.63-.54-.83-.25-.2-.58-.3-.99-.3-.36,0-.67.08-.91.24-.24.16-.42.39-.55.69-.12.3-.18.64-.19,1.04,0,.4.06.74.18,1.04.12.3.3.52.55.69.24.16.55.25.91.25.4,0,.73-.1.99-.3.25-.2.43-.48.54-.83l.92.25c-.17.53-.46.95-.88,1.26-.42.31-.94.47-1.56.47Z"/>
            <path class="cls-6" d="m100.21,11.76c-.4,0-.75-.07-1.07-.21-.32-.14-.58-.34-.78-.59s-.33-.56-.39-.92l.94-.14c.08.32.25.57.5.75s.54.26.86.26c.19,0,.38-.03.55-.09.17-.06.31-.15.42-.26.11-.12.16-.26.16-.43,0-.08-.01-.15-.04-.21-.03-.06-.06-.12-.11-.17-.05-.05-.11-.1-.19-.14s-.17-.08-.27-.11l-1.4-.41c-.12-.03-.25-.08-.39-.14s-.27-.14-.4-.25c-.12-.1-.23-.24-.31-.4-.08-.16-.12-.36-.12-.6,0-.35.09-.64.27-.88.18-.24.42-.42.72-.53.3-.12.63-.18,1-.17.37,0,.7.07,1,.19.29.12.54.3.73.54.2.24.33.52.41.86l-.98.17c-.04-.19-.12-.35-.23-.49-.11-.13-.25-.24-.42-.31-.16-.07-.34-.11-.53-.11-.18,0-.35.02-.5.08-.15.06-.28.14-.37.24s-.14.23-.14.37c0,.13.04.24.12.33s.18.15.3.2c.12.05.24.09.36.12l.97.27c.13.04.28.08.45.14.17.06.33.14.48.25.15.11.28.25.38.43.1.18.15.4.15.67s-.06.53-.18.74-.27.39-.47.53c-.2.14-.43.25-.68.32-.26.07-.52.11-.8.11Z"/>
          </g>
        </g>
      </g>
      <g>
        <path class="cls-3" d="m360.56,291.67v-.53l15.11-30.33c.53-1.11.8-2.28.8-3.45,0-2.12-.74-3.92-2.28-5.41-1.48-1.54-3.29-2.28-5.41-2.28s-3.92.74-5.46,2.28-2.23,3.29-2.23,5.41v1.96h-.53v-1.96c0-2.28.8-4.24,2.39-5.83,1.64-1.59,3.55-2.39,5.83-2.39s4.19.8,5.78,2.39c1.64,1.59,2.44,3.55,2.44,5.83,0,1.33-.27,2.55-.85,3.66l-15.01,30.12h15.86v.53h-16.44Z"/>
        <path class="cls-3" d="m402.98,271.79c0-2.12-.74-3.92-2.28-5.41-1.48-1.54-3.29-2.28-5.41-2.28h-8.11v-14.85h15.7v.53h-15.17v13.79h7.58c2.28,0,4.19.8,5.78,2.39,1.64,1.59,2.44,3.55,2.44,5.83v11.77c0,2.28-.8,4.24-2.44,5.83-1.59,1.59-3.5,2.39-5.78,2.39s-4.19-.8-5.83-2.39c-1.59-1.59-2.39-3.55-2.39-5.83v-1.96h.53v1.96c0,2.12.74,3.92,2.23,5.46,1.54,1.48,3.34,2.23,5.46,2.23s3.92-.74,5.41-2.23c1.54-1.54,2.28-3.34,2.28-5.46v-11.77Z"/>
        <path class="cls-3" d="m413.59,260.02c0-1.54.53-2.81,1.59-3.92,1.11-1.11,2.44-1.64,3.98-1.64s2.86.53,3.92,1.64c1.11,1.11,1.64,2.39,1.64,3.92v7.64c0,1.54-.53,2.81-1.64,3.92-1.06,1.11-2.39,1.64-3.92,1.64s-2.86-.53-3.98-1.64c-1.06-1.11-1.59-2.39-1.59-3.92v-7.64Zm.53,7.64c0,2.76,2.28,5.04,5.04,5.04s5.04-2.28,5.04-5.04v-7.64c0-2.76-2.28-5.04-5.04-5.04s-5.04,2.28-5.04,5.04v7.64Zm5.99,21.48l-.42-.21,17.23-34.47.42.21-17.23,34.47Zm12.57-13.2c0-1.54.53-2.81,1.59-3.92,1.11-1.11,2.44-1.64,3.98-1.64s2.86.53,3.92,1.64c1.11,1.11,1.64,2.39,1.64,3.92v7.64c0,1.54-.53,2.81-1.64,3.92-1.06,1.11-2.39,1.64-3.92,1.64s-2.86-.53-3.98-1.64c-1.06-1.11-1.59-2.39-1.59-3.92v-7.64Zm.53,7.64c0,2.76,2.28,5.04,5.04,5.04s5.04-2.28,5.04-5.04v-7.64c0-2.76-2.28-5.04-5.04-5.04s-5.04,2.28-5.04,5.04v7.64Z"/>
      </g>
      <path class="cls-1" d="m456.93,327.8h-.1v-.38h.1v.38Zm-1.64,0h-.1v-.38h.1v.38Zm-1.64,0h-.1v-.38h.1v.38Zm-1.64,0h-.1v-.38h.1v.38Zm-1.64,0h-.1v-.38h.1v.38Zm-1.64,0h-.1v-.38h.1v.38Zm-1.64,0h-.1v-.38h.1v.38Zm-1.64,0h-.1v-.38h.1v.38Zm-1.64,0h-.1v-.38h.1v.38Zm-1.64,0h-.1v-.38h.1v.38Zm-1.64,0h-.1v-.38h.1v.38Zm-1.64,0h-.1v-.38h.1v.38Zm-1.64,0h-.1v-.38h.1v.38Zm-1.64,0h-.1v-.38h.1v.38Zm-1.64,0h-.1v-.38h.1v.38Zm-1.64,0h-.1v-.38h.1v.38Zm-1.64,0h-.1v-.38h.1v.38Zm-1.64,0h-.1v-.38h.1v.38Zm-1.64,0h-.1v-.38h.1v.38Zm-1.64,0h-.1v-.38h.1v.38Zm-1.64,0h-.1v-.38h.1v.38Zm-1.64,0h-.1v-.38h.1v.38Zm-1.64,0h-.1v-.38h.1v.38Zm-1.64,0h-.1v-.38h.1v.38Zm-1.64,0h-.1v-.38h.1v.38Zm-1.64,0h-.1v-.38h.1v.38Zm-1.64,0h-.1v-.38h.1v.38Zm-1.64,0h-.1v-.38h.1v.38Zm-1.64,0h-.1v-.38h.1v.38Zm-1.64,0h-.1v-.38h.1v.38Zm-1.64,0h-.1v-.38h.1v.38Zm-1.64,0h-.1v-.38h.1v.38Zm-1.64,0h-.1v-.38h.1v.38Zm-1.64,0h-.1v-.38h.1v.38Zm-1.64,0h-.1v-.38h.1v.38Zm-1.64,0h-.1v-.38h.1v.38Zm-1.64,0h-.1v-.38h.1v.38Zm-1.64,0h-.1v-.38h.1v.38Zm-1.64,0h-.1v-.38h.1v.38Zm-1.64,0h-.1v-.38h.1v.38Zm-1.64,0h-.1v-.38h.1v.38Zm-1.64,0h-.1v-.38h.1v.38Zm-1.64,0h-.1v-.38h.1v.38Zm-1.64,0h-.1v-.38h.1v.38Zm-1.64,0h-.1v-.38h.1v.38Zm-1.64,0h-.1v-.38h.1v.38Zm-1.64,0h-.1v-.38h.1v.38Zm-1.64,0h-.1v-.38h.1v.38Zm-1.64,0h-.1v-.38h.1v.38Zm-1.64,0h-.1v-.38h.1v.38Zm-1.64,0h-.1v-.38h.1v.38Zm-1.64,0h-.1v-.38h.1v.38Zm-1.64,0h-.1v-.38h.1v.38Zm-1.64,0h-.1v-.38h.1v.38Zm-1.64,0h-.1v-.38h.1v.38Zm-1.64,0h-.1v-.38h.1v.38Zm-1.64,0h-.1v-.38h.1v.38Zm-1.64,0h-.1v-.38h.1v.38Zm-1.64,0h-.1v-.38h.1v.38Zm-1.64,0h-.1v-.38h.1v.38Zm-1.64,0h-.1v-.38h.1v.38Zm-1.64,0h-.1v-.38h.1v.38Zm-1.64,0h-.1v-.38h.1v.38Zm-1.64,0h-.1v-.38h.1v.38Zm-1.64,0h-.1v-.38h.1v.38Zm-1.64,0h-.1v-.38h.1v.38Zm-1.64,0h-.1v-.38h.1v.38Zm-1.64,0h-.1v-.38h.1v.38Zm-1.64,0h-.1v-.38h.1v.38Zm-1.64,0h-.1v-.38h.1v.38Zm-1.64,0h-.1v-.38h.1v.38Zm-1.29-.35h-.38v-.1h.38v.1Zm115.96-.75h-.38v-.1h.38v.1Zm-115.96-.88h-.38v-.1h.38v.1Zm115.96-.75h-.38v-.1h.38v.1Zm-115.96-.88h-.38v-.1h.38v.1Zm115.96-.75h-.38v-.1h.38v.1Zm-115.96-.88h-.38v-.1h.38v.1Zm115.96-.75h-.38v-.1h.38v.1Zm-115.96-.88h-.38v-.1h.38v.1Zm115.96-.75h-.38v-.1h.38v.1Zm-115.96-.88h-.38v-.1h.38v.1Zm115.96-.75h-.38v-.1h.38v.1Zm-115.96-.88h-.38v-.1h.38v.1Zm115.96-.75h-.38v-.1h.38v.1Zm-115.96-.88h-.38v-.1h.38v.1Zm115.96-.75h-.38v-.1h.38v.1Zm-115.96-.88h-.38v-.1h.38v.1Zm115.96-.75h-.38v-.1h.38v.1Zm-115.96-.88h-.38v-.1h.38v.1Zm115.96-.75h-.38v-.1h.38v.1Zm-115.96-.88h-.38v-.1h.38v.1Zm115.96-.75h-.38v-.1h.38v.1Zm-115.96-.88h-.38v-.1h.38v.1Zm115.96-.75h-.38v-.1h.38v.1Zm-115.96-.88h-.38v-.1h.38v.1Zm115.96-.75h-.38v-.1h.38v.1Zm-115.96-.88h-.38v-.1h.38v.1Zm115.96-.75h-.38v-.1h.38v.1Zm-115.96-.88h-.38v-.1h.38v.1Zm115.96-.75h-.38v-.1h.38v.1Zm-115.96-.88h-.38v-.1h.38v.1Zm115.96-.75h-.38v-.1h.38v.1Zm-115.96-.88h-.38v-.1h.38v.1Zm115.96-.75h-.38v-.1h.38v.1Zm-115.96-.88h-.38v-.1h.38v.1Zm115.96-.75h-.38v-.1h.38v.1Zm-115.96-.88h-.38v-.1h.38v.1Zm115.96-.75h-.38v-.1h.38v.1Zm-115.96-.88h-.38v-.1h.38v.1Zm115.96-.75h-.38v-.1h.38v.1Zm-115.96-.88h-.38v-.1h.38v.1Zm115.96-.75h-.38v-.1h.38v.1Zm-115.96-.88h-.38v-.1h.38v.1Zm115.96-.75h-.38v-.1h.38v.1Zm-115.96-.88h-.38v-.1h.38v.1Zm115.96-.75h-.38v-.1h.38v.1Zm-115.96-.88h-.38v-.1h.38v.1Zm115.96-.75h-.38v-.1h.38v.1Zm-115.96-.88h-.38v-.1h.38v.1Zm115.96-.75h-.38v-.1h.38v.1Zm-115.96-.88h-.38v-.1h.38v.1Zm115.96-.75h-.38v-.1h.38v.1Zm-115.96-.88h-.38v-.1h.38v.1Zm115.96-.75h-.38v-.1h.38v.1Zm-115.96-.88h-.38v-.1h.38v.1Zm115.96-.75h-.38v-.1h.38v.1Zm-115.96-.88h-.38v-.1h.38v.1Zm115.96-.75h-.38v-.1h.38v.1Zm-115.96-.88h-.38v-.1h.38v.1Zm115.96-.75h-.38v-.1h.38v.1Zm-115.96-.88h-.38v-.1h.38v.1Zm115.96-.75h-.38v-.1h.38v.1Zm-115.96-.88h-.38v-.1h.38v.1Zm115.96-.75h-.38v-.1h.38v.1Zm-115.96-.88h-.38v-.1h.38v.1Zm115.96-.75h-.38v-.1h.38v.1Zm-115.96-.88h-.38v-.1h.38v.1Zm115.96-.75h-.38v-.1h.38v.1Zm-115.96-.88h-.38v-.1h.38v.1Zm115.96-.75h-.38v-.1h.38v.1Zm-115.96-.88h-.38v-.1h.38v.1Zm115.96-.75h-.38v-.1h.38v.1Zm-115.96-.88h-.38v-.1h.38v.1Zm115.96-.75h-.38v-.1h.38v.1Zm-115.96-.88h-.38v-.1h.38v.1Zm115.96-.75h-.38v-.1h.38v.1Zm-115.96-.88h-.38v-.1h.38v.1Zm115.96-.75h-.38v-.1h.38v.1Zm-115.96-.88h-.38v-.1h.38v.1Zm115.96-.75h-.38v-.1h.38v.1Zm-115.96-.88h-.38v-.1h.38v.1Zm115.96-.75h-.38v-.1h.38v.1Zm-115.96-.88h-.38v-.1h.38v.1Zm115.96-.75h-.38v-.1h.38v.1Zm-115.96-.88h-.38v-.1h.38v.1Zm115.96-.75h-.38v-.1h.38v.1Zm-115.96-.88h-.38v-.1h.38v.1Zm115.96-.75h-.38v-.1h.38v.1Zm-115.96-.88h-.38v-.1h.38v.1Zm115.96-.75h-.38v-.1h.38v.1Zm-115.96-.88h-.38v-.1h.38v.1Zm115.96-.75h-.38v-.1h.38v.1Zm-115.96-.88h-.38v-.1h.38v.1Zm115.96-.75h-.38v-.1h.38v.1Zm-115.96-.88h-.38v-.1h.38v.1Zm115.96-.75h-.38v-.1h.38v.1Zm-115.96-.88h-.38v-.1h.38v.1Zm115.96-.75h-.38v-.1h.38v.1Zm-115.96-.88h-.38v-.1h.38v.1Zm115.96-.75h-.38v-.1h.38v.1Zm-115.96-.88h-.38v-.1h.38v.1Zm115.96-.75h-.38v-.1h.38v.1Zm-115.96-.88h-.38v-.1h.38v.1Zm115.96-.75h-.38v-.1h.38v.1Zm-115.96-.88h-.38v-.1h.38v.1Zm115.96-.75h-.38v-.1h.38v.1Zm-115.96-.88h-.38v-.1h.38v.1Zm115.96-.75h-.38v-.1h.38v.1Zm-115.96-.88h-.38v-.1h.38v.1Zm115.96-.75h-.38v-.1h.38v.1Zm-115.96-.88h-.38v-.1h.38v.1Zm115.96-.75h-.38v-.1h.38v.1Zm-115.96-.88h-.38v-.1h.38v.1Zm115.96-.75h-.38v-.1h.38v.1Zm-115.96-.88h-.38v-.1h.38v.1Zm115.96-.75h-.38v-.1h.38v.1Zm-115.96-.89h-.38v-.1h.38v.1Zm115.96-.75h-.38v-.1h.38v.1Zm-115.96-.89h-.38v-.1h.38v.1Zm115.96-.75h-.38v-.1h.38v.1Zm-115.96-.89h-.38v-.1h.38v.1Zm115.96-.75h-.38v-.1h.38v.1Zm-115.96-.89h-.38v-.1h.38v.1Zm115.96-.75h-.38v-.1h.38v.1Zm-115.96-.89h-.38v-.1h.38v.1Zm115.96-.75h-.38v-.1h.38v.1Zm-115.96-.89h-.38v-.1h.38v.1Zm115.96-.75h-.38v-.1h.38v.1Zm-115.96-.89h-.38v-.1h.38v.1Zm115.96-.75h-.38v-.1h.38v.1Zm-115.96-.89h-.38v-.1h.38v.1Zm115.96-.75h-.38v-.1h.38v.1Zm-115.96-.89h-.38v-.1h.38v.1Zm115.96-.75h-.38v-.1h.38v.1Zm-115.96-.89h-.38v-.1h.38v.1Zm115.96-.75h-.38v-.1h.38v.1Zm-115.96-.89h-.38v-.1h.38v.1Zm115.96-.75h-.38v-.1h.38v.1Zm-115.96-.89h-.38v-.1h.38v.1Zm115.96-.75h-.38v-.1h.38v.1Zm-115.96-.89h-.38v-.1h.38v.1Zm115.96-.75h-.38v-.1h.38v.1Zm-1.26-.38h-.1v-.38h.1v.38Zm-1.64,0h-.1v-.38h.1v.38Zm-1.64,0h-.1v-.38h.1v.38Zm-1.64,0h-.1v-.38h.1v.38Zm-1.64,0h-.1v-.38h.1v.38Zm-1.64,0h-.1v-.38h.1v.38Zm-1.64,0h-.1v-.38h.1v.38Zm-1.64,0h-.1v-.38h.1v.38Zm-1.64,0h-.1v-.38h.1v.38Zm-1.64,0h-.1v-.38h.1v.38Zm-1.64,0h-.1v-.38h.1v.38Zm-1.64,0h-.1v-.38h.1v.38Zm-1.64,0h-.1v-.38h.1v.38Zm-1.64,0h-.1v-.38h.1v.38Zm-1.64,0h-.1v-.38h.1v.38Zm-1.64,0h-.1v-.38h.1v.38Zm-1.64,0h-.1v-.38h.1v.38Zm-1.64,0h-.1v-.38h.1v.38Zm-1.64,0h-.1v-.38h.1v.38Zm-1.64,0h-.1v-.38h.1v.38Zm-1.64,0h-.1v-.38h.1v.38Zm-1.64,0h-.1v-.38h.1v.38Zm-1.64,0h-.1v-.38h.1v.38Zm-1.64,0h-.1v-.38h.1v.38Zm-1.64,0h-.1v-.38h.1v.38Zm-1.64,0h-.1v-.38h.1v.38Zm-1.64,0h-.1v-.38h.1v.38Zm-1.64,0h-.1v-.38h.1v.38Zm-1.64,0h-.1v-.38h.1v.38Zm-1.64,0h-.1v-.38h.1v.38Zm-1.64,0h-.1v-.38h.1v.38Zm-1.64,0h-.1v-.38h.1v.38Zm-1.64,0h-.1v-.38h.1v.38Zm-1.64,0h-.1v-.38h.1v.38Zm-1.64,0h-.1v-.38h.1v.38Zm-1.64,0h-.1v-.38h.1v.38Zm-1.64,0h-.1v-.38h.1v.38Zm-1.64,0h-.1v-.38h.1v.38Zm-1.64,0h-.1v-.38h.1v.38Zm-1.64,0h-.1v-.38h.1v.38Zm-1.64,0h-.1v-.38h.1v.38Zm-1.64,0h-.1v-.38h.1v.38Zm-1.64,0h-.1v-.38h.1v.38Zm-1.64,0h-.1v-.38h.1v.38Zm-1.64,0h-.1v-.38h.1v.38Zm-1.64,0h-.1v-.38h.1v.38Zm-1.64,0h-.1v-.38h.1v.38Zm-1.64,0h-.1v-.38h.1v.38Zm-1.64,0h-.1v-.38h.1v.38Zm-1.64,0h-.1v-.38h.1v.38Zm-1.64,0h-.1v-.38h.1v.38Zm-1.64,0h-.1v-.38h.1v.38Zm-1.64,0h-.1v-.38h.1v.38Zm-1.64,0h-.1v-.38h.1v.38Zm-1.64,0h-.1v-.38h.1v.38Zm-1.64,0h-.1v-.38h.1v.38Zm-1.64,0h-.1v-.38h.1v.38Zm-1.64,0h-.1v-.38h.1v.38Zm-1.64,0h-.1v-.38h.1v.38Zm-1.64,0h-.1v-.38h.1v.38Zm-1.64,0h-.1v-.38h.1v.38Zm-1.64,0h-.1v-.38h.1v.38Zm-1.64,0h-.1v-.38h.1v.38Zm-1.64,0h-.1v-.38h.1v.38Zm-1.64,0h-.1v-.38h.1v.38Zm-1.64,0h-.1v-.38h.1v.38Zm-1.64,0h-.1v-.38h.1v.38Zm-1.64,0h-.1v-.38h.1v.38Zm-1.64,0h-.1v-.38h.1v.38Zm-1.64,0h-.1v-.38h.1v.38Zm-1.64,0h-.1v-.38h.1v.38Z"/>
      <rect class="cls-4" x="39.11" y="387.75" width="279.31" height=".1"/>
    </g>
  </g>
</svg>